<?xml version="1.0" encoding="UTF-8" standalone="no"?>
<!-- Created with Inkscape (http://www.inkscape.org/) -->

<svg
   xmlns:dc="http://purl.org/dc/elements/1.1/"
   xmlns:cc="http://creativecommons.org/ns#"
   xmlns:rdf="http://www.w3.org/1999/02/22-rdf-syntax-ns#"
   xmlns:svg="http://www.w3.org/2000/svg"
   xmlns="http://www.w3.org/2000/svg"
   xmlns:xlink="http://www.w3.org/1999/xlink"
   xmlns:sodipodi="http://sodipodi.sourceforge.net/DTD/sodipodi-0.dtd"
   xmlns:inkscape="http://www.inkscape.org/namespaces/inkscape"
   id="svg2"
   version="1.1"
   inkscape:version="0.91 r13725"
   width="2481"
   height="663"
   sodipodi:docname="Pepper-and-Carrot_by-David-Revoy_E08P00.svg">
  <metadata
     id="metadata8">
    <rdf:RDF>
      <cc:Work
         rdf:about="">
        <dc:format>image/svg+xml</dc:format>
        <dc:type
           rdf:resource="http://purl.org/dc/dcmitype/StillImage" />
        <dc:title />
      </cc:Work>
    </rdf:RDF>
  </metadata>
  <defs
     id="defs6">
    <pattern
       y="0"
       x="0"
       height="6"
       width="6"
       patternUnits="userSpaceOnUse"
       id="EMFhbasepattern" />
  </defs>
  <sodipodi:namedview
     pagecolor="#ffffff"
     bordercolor="#666666"
     borderopacity="1"
     objecttolerance="10"
     gridtolerance="10"
     guidetolerance="10"
     inkscape:pageopacity="0"
     inkscape:pageshadow="2"
     inkscape:window-width="1366"
     inkscape:window-height="705"
     id="namedview4"
     showgrid="false"
     inkscape:zoom="0.52995012"
     inkscape:cx="1160.9009"
     inkscape:cy="254.85792"
     inkscape:window-x="-8"
     inkscape:window-y="-8"
     inkscape:window-maximized="1"
     inkscape:current-layer="layer1" />
  <g
     inkscape:groupmode="layer"
     id="layer2"
     inkscape:label="artwork"
     sodipodi:insensitive="true">
    <image
       sodipodi:absref="C:\Users\Mahwiii\Desktop\Manga\translations\pepper carrot\peppercarrot_ep08_translation-master\peppercarrot_ep08_translation-master\ar\..\gfx_Pepper-and-Carrot_by-David-Revoy_E08P00.png"
       xlink:href="../gfx_Pepper-and-Carrot_by-David-Revoy_E08P00.png"
       width="2481"
       height="663"
       id="image10"
       x="0"
       y="0" />
  </g>
  <g
     inkscape:groupmode="layer"
     id="layer1"
     inkscape:label="txt"
     style="display:inline">
    <flowRoot
       xml:space="preserve"
       id="flowRoot2987"
       style="font-style:normal;font-variant:normal;font-weight:normal;font-stretch:normal;font-size:12px;line-height:125%;font-family:AlHor;-inkscape-font-specification:AlHor;letter-spacing:0px;word-spacing:0px;display:inline;fill:#301b0b;fill-opacity:1;stroke:none;"
       transform="translate(-748.44912,-120.8471)"><flowRegion
         id="flowRegion2989"><rect
           id="rect2991"
           width="2405.8"
           height="107.55731"
           x="739.22333"
           y="644.36664"
           style="fill:#301b0b;fill-opacity:1;-inkscape-font-specification:AlHor;font-family:AlHor;font-weight:normal;font-style:normal;font-stretch:normal;font-variant:normal;" /></flowRegion><flowPara
         id="flowPara2993"
         style="font-style:normal;font-variant:normal;font-weight:normal;font-stretch:normal;font-size:100px;font-family:AlHor;-inkscape-font-specification:AlHor;text-align:center;text-anchor:middle;fill:#301b0b;fill-opacity:1;">حلقة ٨ : حفلةُ عيدِ ميلادِ فُلفُل</flowPara></flowRoot>    <path
       inkscape:connector-curvature="0"
       id="path4145"
       d="m 587.62986,498.25767 c 0,-3.47348 -4.6784,-6.06011 -10.29213,-5.69061 -4.86493,0.29573 -5.14562,0.1477 -6.73602,-3.54739 -2.80687,-6.20794 -0.65509,-10.12485 10.19797,-18.91946 8.1399,-6.57745 21.61284,-21.06266 23.76462,-25.49691 0.46811,-0.88685 2.24549,-1.47808 4.39771,-1.47808 6.82974,0 10.47866,-5.46888 7.20414,-11.0856 -1.02904,-1.84762 -0.0928,-4.65596 5.8007,-16.55451 3.83634,-7.83385 9.82402,-21.80171 13.28596,-31.03874 6.64276,-17.88478 8.04619,-20.69315 11.88254,-23.42759 2.24549,-1.55198 2.61944,-1.55198 4.02287,-0.22171 2.24549,2.14322 9.16938,1.9215 11.78882,-0.36954 1.21646,-1.10856 2.99428,-1.69979 4.02332,-1.40415 3.18126,1.03465 7.67224,8.49894 12.3502,20.98874 5.52001,14.77983 7.85921,18.54893 14.97008,24.60909 7.5772,6.35574 15.15573,8.42507 27.78661,7.46431 5.23933,-0.36952 13.37923,-0.73906 18.1509,-0.88687 8.88825,-0.14767 12.06951,-1.62589 12.06951,-5.6167 0,-0.96074 1.87109,-2.58664 4.304,-3.69521 13.9406,-6.50357 52.5816,-31.55603 68.48745,-44.26755 l 8.60756,-6.947 -12.72459,-6.50354 c -12.44346,-6.35578 -12.63088,-6.57748 -10.75934,-8.7207 1.02903,-1.18247 1.9648,-3.17788 1.9648,-4.43423 0,-5.3211 -10.01144,-8.20336 -14.87637,-4.28646 -2.3392,1.84762 -2.61989,1.69982 -14.12802,-7.61209 -11.88254,-9.60755 -20.02244,-17.66311 -23.85834,-23.57543 l -2.15178,-3.17788 -5.05235,2.51276 c -8.98196,4.50816 -15.90585,6.35573 -23.57765,6.35573 -5.98812,0 -7.95292,-0.44342 -11.13418,-2.58662 -8.23317,-5.4689 -9.6366,-12.4159 -4.30356,-20.91489 3.64892,-5.83839 18.05719,-17.58914 31.06247,-25.422 l 8.70127,-5.1733 0.93577,7.53822 c 1.02903,9.08922 4.86493,14.1886 13.37923,17.88382 l 5.42675,2.36492 -4.02332,-5.83843 c -3.18126,-4.58204 -4.304,-7.68601 -5.14606,-14.55812 -0.65464,-4.87767 -0.93533,-9.01628 -0.65464,-9.23798 1.02903,-0.81297 12.35019,8.20334 17.7765,14.26247 4.58469,5.09939 5.33304,6.42965 4.21029,8.05556 -0.74834,1.03466 -1.30972,2.66055 -1.30972,3.5474 0,2.29103 5.70744,6.42965 8.98196,6.42965 2.05852,0 4.2103,1.69979 8.0462,6.13403 7.39155,8.64678 16.37351,16.33283 27.60096,23.64933 19.27364,12.56368 32.84029,16.62842 78.21687,23.27979 23.01628,3.32569 30.03343,5.24718 28.72327,7.83382 -2.05807,3.84302 -2.05807,5.2472 -0.18565,7.46434 1.12274,1.33027 3.18126,2.73442 4.58469,3.10397 5.70743,1.40414 -1.30972,10.78997 -11.04048,14.63301 -4.21029,1.69977 -9.82402,2.66054 -19.92872,3.54739 l -14.12758,1.18244 -2.99428,-2.58664 c -5.23933,-4.43423 -15.53102,-2.21711 -15.53102,3.39961 0,1.03465 -0.74879,1.9215 -1.68411,1.9215 -2.80687,0 -16.93356,4.87767 -22.45358,7.68601 -2.90057,1.47809 -14.03431,9.16412 -24.7941,17.07086 -18.43158,13.52445 -19.74175,14.2635 -23.85833,13.89397 -5.52002,-0.51732 -9.91773,2.58667 -9.35636,6.50358 0.37573,2.29101 -0.93532,3.47346 -8.98196,8.20334 -21.70611,12.93322 -41.54156,19.36289 -62.49932,20.24973 -16.6542,0.73901 -18.89969,0.29573 -20.4901,-3.84303 -0.65508,-1.84761 -2.61989,-3.84302 -4.67707,-4.65595 -3.08755,-1.4042 -3.74219,-1.33028 -7.20414,0.22172 -2.61988,1.18247 -4.49098,1.40418 -5.98812,0.81292 -2.71315,-1.18244 -13.19225,-10.05093 -18.80598,-15.96328 l -4.30356,-4.43425 -5.80114,11.38125 c -12.91157,25.27519 -30.22041,48.85061 -45.47118,62.07944 -9.44962,8.12944 -21.79982,12.6376 -21.79982,7.90772 z m 603.56524,-10.27264 c -5.0524,-2.66055 -10.4791,-11.23345 -9.1694,-14.41131 0.4681,-1.10855 8.7012,-8.05554 18.3383,-15.51985 16.6529,-12.85931 19.5534,-15.6677 21.5182,-20.61925 l 0.8421,-2.14324 -5.9881,2.06933 c -10.4791,3.6952 -25.5411,1.69978 -39.2948,-5.24717 -5.5204,-2.73447 -5.8011,-3.03011 -5.146,-6.65138 0.9357,-5.39501 -2.9939,-8.42506 -9.6371,-7.61214 -4.5842,0.59123 -4.9586,0.44343 -9.1689,-4.28643 -5.2393,-5.76453 -11.2275,-14.92861 -15.2508,-23.35367 -2.8068,-5.83747 -2.8068,-6.28089 -0.9353,-8.94143 2.6194,-3.54741 1.4034,-7.83382 -2.5262,-9.23801 -2.5262,-0.88684 -3.0875,-1.99542 -3.7426,-7.61212 -1.1228,-9.53364 -0.9358,-16.11108 0.6551,-25.94034 1.1227,-7.4643 1.6841,-8.72066 3.7422,-8.72066 6.3625,0 9.637,-7.98165 4.7716,-11.82468 l -2.5262,-1.99539 4.8654,-8.27727 c 9.824,-16.48061 15.9991,-21.21047 27.788,-21.21047 7.6722,0 14.315,1.47807 26.3845,5.76451 l 8.5129,3.03006 -2.5248,-2.51272 c -2.8069,-2.88225 -11.3212,-7.39042 -17.0286,-9.09021 -3.1808,-0.96075 -2.8069,-1.03467 3.1813,-0.51732 15.0624,1.10855 33.494,10.27268 46.3119,22.83636 8.7949,8.64678 19.0866,23.3537 23.1099,33.25684 l 3.3683,7.98163 -2.7132,2.14322 c -1.4971,1.18247 -2.7136,3.2518 -2.7136,4.58208 0,2.66055 3.9296,6.42965 6.7365,6.42965 2.6199,0 3.3682,2.29099 4.6784,15.22424 1.3097,13.59734 0.6546,24.90466 -2.3392,37.24667 -2.0585,8.35115 -2.2455,8.57288 -5.6137,8.57288 -4.304,0 -8.4206,3.17788 -8.4206,6.50356 0,1.40416 1.4034,3.47347 3.2745,4.87767 l 3.1813,2.36492 -7.0172,11.60294 c -8.2336,13.52446 -20.5838,28.52698 -28.443,34.58713 -5.1456,3.91691 -5.8007,4.13861 -8.8883,3.03005 -4.2103,-1.47807 -8.9819,0 -10.9454,3.5474 -1.8715,3.17789 -5.4267,3.17789 -11.2274,0.0741 z m 26.1024,-91.19767 c 4.2103,0 9.3564,-4.43424 8.7013,-7.46429 -0.6551,-2.65958 0.1857,-2.80737 6.0814,-1.47711 3.5557,0.81196 4.0233,0.66515 4.491,-1.40418 1.7778,-7.16871 -4.8649,-25.2752 -15.9054,-43.60341 -6.1751,-10.27268 -6.6428,-11.52902 -4.9587,-13.00714 2.4325,-2.21712 2.3388,-6.79915 -0.1856,-9.09019 -2.2455,-1.99541 -9.7308,-2.43884 -11.1342,-0.73903 -0.4677,0.66513 -2.2442,0 -4.7703,-1.92153 -10.9468,-8.35115 -22.7356,-7.686 -28.7237,1.62591 -4.7717,7.53822 -6.1751,15.07644 -6.2684,33.70027 0,18.62382 1.4034,24.16662 8.7013,34.14368 7.3911,10.12387 21.8935,19.73142 31.6225,21.06169 l 4.491,0.59123 2.5261,-6.20795 c 2.0585,-5.24718 2.9006,-6.20795 5.3331,-6.20795 z m -758.22107,63.77922 c 0,-3.39956 -2.71315,-5.6906 -7.48482,-6.50353 -3.64892,-0.59127 -4.39727,-1.18247 -5.23933,-4.43425 -1.21645,-4.58208 -1.21645,-4.50817 14.40827,-17.44139 9.44962,-7.83381 13.19226,-11.82463 17.21557,-18.25429 2.90013,-4.58207 5.98768,-8.27727 6.92345,-8.27727 2.61989,0 7.85922,-4.58203 7.85922,-6.87307 0,-1.18248 -1.31017,-3.17789 -2.99429,-4.43425 -2.90013,-2.29104 -2.99384,-2.95617 -3.55521,-20.91386 -0.46766,-15.96328 -1.02903,-19.95411 -3.92961,-28.8226 -2.24549,-7.0209 -2.90013,-10.5683 -2.05807,-11.23343 3.36824,-2.66056 0,-10.49436 -4.58469,-10.49436 -1.77782,0 -9.07567,-21.13658 -9.07567,-26.08817 0.0928,-9.97706 4.30401,-15.59373 12.53762,-16.77622 l 4.49098,-0.66514 -0.56137,3.62132 c -0.65509,4.72983 2.33875,7.39037 8.42014,7.39037 l 4.58469,0 3.92961,8.64679 c 5.42631,11.60295 8.23317,20.39752 12.72415,39.46479 7.67224,32.59169 9.54333,58.16154 5.42675,73.23798 -1.96481,7.53822 -2.05852,7.6121 -5.52002,7.09479 -2.61989,-0.44342 -4.21029,0.0741 -6.6432,1.99542 -4.02288,3.17784 -4.02288,5.91231 -0.0928,9.0902 l 3.08755,2.36491 -3.74263,4.9516 c -12.44346,16.7023 -26.2908,25.4969 -40.13769,25.57079 -5.42675,0 -5.98812,-0.22172 -5.98812,-2.21713 z m 392.95856,1.47812 c -8.79498,-3.39962 -12.8183,-9.45977 -13.00528,-19.36289 -0.0928,-6.57746 1.8711,-9.53363 8.70128,-13.22883 7.29784,-3.91694 8.04619,-3.84302 8.04619,1.33028 0,4.58204 2.61988,10.34657 5.42675,12.19417 1.12274,0.73902 1.49714,-1.10855 1.49714,-7.09478 l 0,-8.05557 3.55521,0.22171 c 7.9516,0.44344 14.68807,8.8685 14.68807,18.54992 0,11.23345 -4.77167,15.29815 -18.52397,15.81549 -4.6784,0.22171 -9.35635,0.0741 -10.38539,-0.3695 z m 668.49611,-6.20796 c -7.8592,-1.4781 -18.5253,-5.61673 -18.5253,-7.24261 0,-2.36492 -4.5847,-5.46891 -8.0462,-5.46891 -2.2455,0 -4.5847,-1.55197 -8.795,-5.9123 -16.2798,-16.70234 -25.168,-41.23848 -28.1623,-77.82003 -1.6841,-20.02803 -1.029,-42.27313 1.3102,-49.58964 1.3097,-3.91694 2.058,-4.65595 4.4909,-4.65595 6.6428,0 10.2917,-6.87309 6.0814,-11.60297 -2.2455,-2.51274 -1.1227,-4.87766 3.9296,-8.05554 6.4558,-3.99083 14.315,-1.62587 21.6129,6.42964 5.4267,5.91235 6.1751,11.01173 2.9005,19.80632 -1.4034,3.69519 -3.1812,9.31192 -4.0233,12.4898 -0.9357,3.62129 -2.2455,5.91231 -3.5552,6.28183 -6.1751,1.69981 -8.608,7.61212 -4.6784,11.08561 1.4972,1.25638 1.6841,2.73446 0.8421,6.94699 -1.4035,6.72529 0.3757,22.76245 3.4619,32.07437 l 2.2455,6.94699 -2.9006,2.06832 c -6.1751,4.36036 -1.8711,12.78543 5.9882,11.89858 3.3682,-0.44342 4.0233,0 8.5143,6.06011 8.6075,11.52905 18.8059,17.51527 31.4368,18.40212 7.1091,0.51735 8.3256,0.29573 12.1615,-1.99542 7.7659,-4.58203 13.3796,-13.22882 18.0576,-27.93573 2.2455,-6.72525 3.8359,-9.82825 6.2688,-11.60195 3.9296,-2.88226 4.1166,-6.65137 0.5614,-9.38583 -1.6841,-1.33027 -2.3392,-2.80834 -1.8716,-4.13863 1.5909,-5.02546 -1.9648,-52.25016 -5.8944,-76.26901 l -4.0228,-24.75786 2.9001,-1.99541 c 3.5556,-2.51275 3.7426,-7.39042 0.2829,-10.05096 -1.3097,-1.10856 -3.2745,-1.99541 -4.1166,-1.99541 -1.2165,0 -2.5262,-3.84205 -4.491,-13.00613 -1.4971,-7.16872 -4.9586,-21.5061 -7.7655,-31.77878 -6.7351,-25.34912 -6.8288,-26.60548 -3.3682,-32.07437 2.5262,-3.84302 3.5552,-4.50815 7.7655,-5.0255 4.7716,-0.59121 8.2336,-2.88226 8.2336,-5.46889 0,-0.81293 1.5904,-1.33028 4.3973,-1.33028 6.9234,0 9.824,3.10399 13.0052,13.8201 4.5843,15.22422 12.3502,58.0886 15.6248,85.72774 4.0233,33.55247 10.5723,70.87402 16.4667,92.60182 5.0524,19.14116 16.1866,45.67175 21.3322,51.21456 3.275,3.39959 6.3625,4.80375 7.5785,3.32569 0.5614,-0.81294 7.0172,-1.25637 20.8645,-1.47807 18.7123,-0.22172 20.0225,-0.36956 22.7356,-2.43884 1.4971,-1.2564 2.8069,-3.17789 2.8069,-4.28646 0,-1.92149 -4.304,-6.13402 -7.1109,-7.02087 -1.5904,-0.44343 -15.9054,-21.1356 -19.3673,-27.93477 -10.5724,-20.84095 -14.1276,-34.43932 -13.0986,-50.6982 0.8421,-13.96786 1.2165,-14.85471 6.4558,-14.85471 7.5785,0 10.9468,-6.87309 5.52,-11.38125 l -2.6194,-2.21711 6.9234,-5.39503 c 13.1923,-10.19876 33.0299,-12.41587 50.0581,-5.46888 21.3321,8.57286 40.1319,32.29607 47.3427,59.56668 4.3036,16.48063 3.5552,39.76041 -1.3102,39.76041 -2.8068,0 -6.7364,3.76912 -6.7364,6.42966 0,1.33028 1.1227,3.39859 2.6198,4.50716 l 2.52,1.9954 -3.4557,5.61671 c -1.8711,3.10399 -3.6551,5.91233 -3.8421,6.28188 -0.2741,0.3695 3.2807,2.06928 7.9591,3.84298 6.9235,2.58667 10.3792,3.25181 19.4606,3.62132 l 11.128,0.51733 6.5491,-5.46892 c 8.0466,-6.72525 10.2921,-11.97247 12.1632,-28.82159 1.2226,-10.79002 0.9358,-14.04178 -2.6199,-38.79964 -3.4553,-24.16665 -3.6427,-27.19674 -1.9586,-28.6748 2.8944,-2.51274 2.333,-7.39042 -0.9353,-9.53364 -2.7198,-1.69977 -3.2812,-4.36032 -10.6661,-56.97907 -4.304,-30.37458 -7.7722,-56.61054 -7.7722,-58.31032 0.1017,-4.65596 4.2165,-11.38125 8.5205,-13.82009 2.333,-1.33027 6.6366,-2.51271 10.6661,-2.88226 6.824,-0.59122 6.9235,-0.59122 9.3564,2.58668 1.3972,1.77369 3.4553,6.35574 4.6779,10.12484 1.9586,6.42966 1.9586,7.09479 0.088,9.60754 -2.8939,3.843 -2.6199,5.69062 1.4972,8.72067 4.0295,2.95617 4.5908,5.24722 8.2331,35.17837 1.4972,11.82463 1.4972,15.51986 0.3758,18.03257 -1.3098,2.73348 -1.2099,3.62033 0.6612,6.20696 1.5842,2.21713 2.9939,9.53364 5.3269,27.78796 3.5552,28.37917 8.7074,61.63601 10.853,71.24356 1.4972,6.35573 1.4097,6.72525 -1.2098,8.86849 -1.597,1.18244 -2.8069,3.10397 -2.8069,4.28641 0,2.29104 5.1395,6.87308 7.8593,6.87308 1.0228,0 2.52,2.43884 3.9296,6.50357 2.8068,8.05455 12.4372,19.95313 19.4606,24.01783 4.8654,2.73447 6.0756,2.95618 15.8059,2.95618 8.6076,0 11.0405,0.3695 13.66,1.9954 3.9296,2.43884 6.6494,2.51276 10.4791,0.1477 2.0585,-1.25637 6.0875,-1.99541 13.2859,-2.43884 23.2033,-1.33027 34.9046,-6.94695 45.6582,-21.65388 l 3.4681,-4.72887 -6.9239,3.10297 c -6.462,2.88226 -7.4848,3.03008 -14.6951,2.36494 -26.659,-2.43882 -49.1139,-16.62744 -60.8157,-38.42916 -10.1047,-18.91942 -12.1627,-49.294 -4.9524,-71.61305 1.0228,-3.17786 1.7716,-3.6952 4.7655,-3.6952 6.6489,0 10.2046,-6.947 5.6137,-10.93781 -2.8069,-2.51272 -1.3973,-5.02548 6.275,-11.23244 10.853,-8.79458 17.2151,-8.49898 40.2314,1.99443 l 12.2507,5.5428 -6.824,-5.5428 c -3.8421,-3.02907 -9.6432,-6.94601 -12.9115,-8.57188 -3.2808,-1.69982 -5.7137,-3.25181 -5.4268,-3.39961 1.2103,-1.03464 14.4087,1.9215 20.9582,4.65597 9.9173,4.21253 16.9283,9.23701 25.7232,18.40114 9.3564,9.90314 19.748,25.57082 17.8764,27.12282 -3.6551,2.88224 0,10.49435 4.9529,10.49435 2.2455,0 6.462,9.31191 9.4559,20.69315 2.8068,10.56828 3.0813,38.0606 0.5613,50.25477 -2.3454,11.60198 -8.1461,26.53059 -13.3854,34.88177 -6.3625,9.97706 -8.795,12.41588 -12.3502,12.41588 -3.9296,0 -8.0466,3.25177 -8.0466,6.35575 0,1.69978 -1.5842,3.10397 -5.8882,5.32109 -16.0054,8.05556 -25.4488,9.31191 -67.7387,8.86849 -30.601,-0.29572 -32.0981,-0.44343 -39.1091,-2.80835 -11.3273,-3.7691 -22.9288,-13.15493 -29.1914,-23.5754 l -5.0523,-8.35116 -1.4972,4.36033 c -3.7422,11.23341 -16.0924,23.27978 -28.5424,27.71403 -3.1813,1.10857 -9.5434,2.29104 -14.2213,2.58665 -7.8592,0.51732 -8.608,0.36954 -11.4149,-2.0693 -3.4553,-2.95618 -7.5723,-3.32569 -11.6889,-1.03469 -1.8711,1.03469 -4.0295,1.33027 -6.275,0.88685 -2.894,-0.51731 -23.3903,-9.0902 -34.6177,-14.41129 l -3.9296,-1.84758 -7.011,4.06469 c -9.7307,5.46893 -21.6155,9.53364 -34.3401,11.75075 -13.8469,2.43884 -18.2446,2.43884 -21.3321,-0.0741 -1.4034,-1.03468 -3.9296,-1.92152 -5.6137,-1.92152 -3.5553,0 -8.1399,3.10396 -8.1399,5.46892 0,1.33027 -0.9354,1.47807 -5.2394,0.88685 -17.2155,-2.14324 -30.6885,-13.37664 -34.8051,-29.04431 l -1.4034,-5.395 -2.3392,7.39042 c -1.3097,3.99081 -4.0229,9.75533 -5.9877,12.7854 -3.1812,4.80375 -4.117,5.46888 -8.3273,6.06015 -5.52,0.66513 -7.9525,2.95613 -7.9525,7.31649 0,2.80835 -0.842,3.5474 -5.8011,5.76452 -9.169,4.0647 -17.3089,5.54281 -29.7514,5.39498 -6.1751,-0.0741 -13.2856,-0.44343 -15.8117,-0.96074 z m 204.0602,-93.04425 c -0.1016,-10.93782 -0.6612,-15.00256 -2.5323,-19.73239 -1.8716,-4.43426 -2.2455,-6.50358 -1.3102,-8.57291 1.784,-3.76911 -0.6484,-7.53822 -5.3268,-8.27722 -2.8069,-0.44343 -5.0524,-2.21714 -9.4559,-7.39043 -6.5495,-7.83385 -11.6889,-10.4944 -17.1183,-8.8685 -4.9586,1.55199 -7.0171,5.69062 -7.8592,16.0372 -0.6546,7.53822 -0.3757,10.64219 1.7778,17.07186 3.5552,10.71606 17.0246,31.85264 25.9191,40.72114 l 7.2978,7.2416 4.304,-7.2416 4.3911,-7.16871 -0.088,-13.82004 z m 230.1628,-2.06934 c 0.274,-0.2217 0.3757,-4.28644 0.274,-8.9424 -0.1856,-4.72984 0.3757,-9.82922 1.1228,-11.30732 1.3097,-2.58664 9.7303,-6.72524 13.5724,-6.72524 3.4557,0 -3.6551,-19.36289 -12.4497,-33.92199 -9.9177,-16.33283 -19.648,-23.20591 -28.5305,-20.32365 -8.7946,2.88225 -13.7598,13.74616 -14.6952,32.51783 -0.8358,14.26347 0.4739,20.54531 5.9006,28.97038 2.0581,3.17789 3.7422,7.09479 3.7422,8.64678 0,3.32569 3.8302,6.72528 7.6723,6.72528 1.4971,0 3.6427,0.73902 4.8653,1.62587 4.678,3.32569 15.7185,4.9516 18.5253,2.73446 z M 643.01832,315.12435 c -10.94677,-2.21713 -21.33216,-10.19877 -24.23229,-18.77167 -2.61988,-7.68601 0.46767,-16.85013 6.82974,-20.1758 l 3.18126,-1.62587 4.77167,8.20334 c 4.49098,7.68601 11.50813,15.51986 13.9406,15.51986 0.56137,0 -0.27848,-2.36494 -1.8711,-5.17331 -3.46194,-6.35572 -7.48482,-17.36745 -6.54949,-18.10648 1.31016,-1.03468 11.50814,3.25177 15.71843,6.57746 6.08183,4.87767 10.10471,12.19417 10.10471,18.47603 0,10.93778 -9.44963,17.51526 -21.89353,15.07644 z M 1676.4044,241.66464 c 0.9353,-6.50356 -8.2337,-9.90313 -13.8474,-5.09939 -2.2455,1.9215 -3.1812,2.14322 -4.7717,1.25638 -7.2978,-4.21254 -8.1399,-16.62844 -1.6841,-24.90566 4.8654,-6.20795 9.9178,-8.42507 20.3032,-8.94241 7.0171,-0.36952 9.0752,-0.0741 13.3792,1.84762 4.3062,1.99539 5.055,2.88225 5.7034,6.65135 0.6613,4.21255 3.4682,6.94697 7.1109,6.94697 1.4971,0 1.6841,1.10856 1.0352,5.91235 -1.3097,9.75533 -6.549,15.29814 -17.4047,18.10649 -9.1694,2.43883 -10.3854,2.21713 -9.824,-1.7737 z m 229.1359,-18.3282 c -5.5262,-1.33028 -13.0986,-6.72528 -15.7185,-11.23344 -2.5323,-4.43425 -3.2807,-16.3328 -1.0352,-16.3328 2.4325,0 7.3973,-4.80376 7.3973,-7.24258 0,-3.3996 6.4496,-5.54282 16.4672,-5.54282 10.0048,0 16.3669,2.66056 21.8936,9.23801 l 4.1165,4.80376 -3.6551,1.77369 c -6.4496,3.10396 -6.5495,8.49899 -0.1856,11.60295 l 3.5552,1.69979 -3.2683,3.84302 c -5.9882,6.87309 -18.2508,9.97706 -29.5658,7.39042 z M 686.15074,204.26918 c 0,-8.86848 6.08138,-13.67227 32.55828,-26.01425 13.5662,-6.20794 18.71227,-8.12943 22.26748,-8.12943 4.58469,0 7.57853,-1.62591 9.07567,-5.0255 0.56137,-1.18244 27.50725,-14.41099 33.68235,-16.48031 3.08755,-1.03465 -0.56137,12.1939 -4.39727,15.963 -3.64892,3.47347 -69.7039,33.25685 -71.29431,32.07436 -2.05852,-1.55198 -8.98196,-0.96076 -11.13286,0.88686 -1.12274,1.03463 -2.05807,2.95617 -2.05807,4.28643 0,1.84759 -1.12275,2.88227 -4.304,4.06471 l -4.39727,1.69982 0,-3.32569 z M 1606.8874,175.9639 c -3.5552,-1.10857 -3.9296,-0.73902 6.1751,-5.39498 4.3977,-2.06933 12.257,-6.06015 17.3093,-8.94241 7.3911,-4.13861 9.9173,-5.02546 12.7242,-4.58204 4.304,0.66513 10.1984,-3.4732 9.637,-6.87279 -0.2785,-1.55199 1.4971,-3.54741 5.8944,-6.87309 l 6.1751,-4.65586 -5.9881,-4.06473 c -6.2684,-4.21254 -10.011,-9.01619 -11.3207,-14.48507 -1.4972,-6.4296 4.7716,-22.244967 9.3559,-23.42741 3.2749,-0.73906 6.4558,-4.877678 5.7074,-7.242595 -0.3757,-1.256291 0.7484,-2.88219 3.2745,-4.803682 5.6138,-4.138629 8.5143,-5.09938 15.4378,-5.09938 11.9762,0 18.8961,6.503578 19.2701,18.106377 0.1856,5.91226 0,6.57738 -3.0814,8.49889 -3.6551,2.29102 -4.4932,6.50356 -1.971,9.68144 1.1228,1.40409 0.8483,2.73437 -1.1227,6.28177 l -2.5222,4.50811 5.7035,3.25172 5.6137,3.17785 -0.7484,8.86849 c -0.4619,4.87759 -0.8358,10.12477 -0.8358,11.67676 0,2.58635 -0.2874,2.73414 -2.433,1.77339 -1.6841,-0.66514 -2.5323,-2.06901 -2.5323,-3.91661 0,-5.395 -6.6392,-8.42507 -12.6269,-5.83842 -1.8716,0.73904 -2.9943,0.73904 -4.304,-0.0741 -1.4035,-0.96076 -2.9939,-0.0741 -8.3269,4.50817 -23.8583,20.84064 -36.3022,27.1225 -53.0497,26.97467 -4.5847,-0.0741 -9.7308,-0.51731 -11.4149,-1.03465 z m 74.6626,-67.0304 c -2.8069,-8.35107 -17.9639,-13.376543 -18.806,-6.20794 -0.6546,5.69059 2.8069,9.53363 13.941,15.59368 l 4.3036,2.36491 0.9358,-4.06474 c 0.4676,-2.21702 0.3757,-5.6905 -0.3758,-7.68591 z m 158.4967,43.38142 -3.0938,-1.03469 4.9653,-2.29099 c 13.6599,-6.28188 28.2556,-14.48512 40.5059,-22.76228 7.3977,-5.02547 13.9472,-9.68144 14.4087,-10.34656 0.5614,-0.66508 -1.3097,-2.66049 -4.8654,-5.09931 -10.1047,-6.72525 -13.0985,-13.967769 -10.1047,-24.018653 3.4682,-11.972346 14.5086,-25.940147 23.2037,-29.487507 5.0524,-2.069335 8.0462,-1.773701 11.7013,1.108521 2.707,2.143215 4.0171,2.51274 7.4848,1.995414 4.0172,-0.591227 4.3916,-0.443425 6.9239,3.399558 4.865,7.464276 2.6195,25.644502 -4.491,36.508367 -1.597,2.51266 -1.4971,2.73436 3.8298,5.76445 5.4267,3.03006 5.6137,3.25177 5.4267,8.27723 -0.088,2.80827 -0.4619,8.05545 -0.9358,11.75069 l -0.7483,6.65126 -11.6894,-5.91225 -11.6014,-5.98623 -4.7778,4.28644 c -4.2042,3.76912 -5.3269,4.21244 -9.1694,3.84304 -6.0752,-0.51735 -10.1047,2.66044 -9.169,7.31639 0.6613,2.95614 0.1017,3.6952 -4.9524,7.24249 -9.4563,6.57749 -18.1514,9.38584 -29.7528,9.60754 -5.4267,0.1477 -11.3273,-0.2217 -13.0989,-0.81292 z m 74.8499,-67.03055 c -2.9943,-8.794563 -18.0638,-13.302621 -19.1865,-5.690596 -0.1857,1.330265 -0.9358,3.325679 -1.7717,4.508122 -2.2455,3.25181 -1.7836,5.09938 1.6841,7.833747 2.6199,2.069315 3.9296,2.438839 7.7598,1.921492 3.5552,-0.443425 5.4263,-0.07409 7.7717,1.330276 l 3.1812,1.921534 0.8359,-4.064738 c 0.5614,-2.217127 0.3757,-5.764423 -0.274,-7.759837 z"
       style="fill:#301b0b;fill-opacity:1;fill-rule:nonzero;stroke:none" />
  </g>
</svg>
