<?xml version="1.0" encoding="UTF-8" standalone="no"?>
<!-- Created with Inkscape (http://www.inkscape.org/) -->

<svg
   xmlns:dc="http://purl.org/dc/elements/1.1/"
   xmlns:cc="http://creativecommons.org/ns#"
   xmlns:rdf="http://www.w3.org/1999/02/22-rdf-syntax-ns#"
   xmlns:svg="http://www.w3.org/2000/svg"
   xmlns="http://www.w3.org/2000/svg"
   xmlns:xlink="http://www.w3.org/1999/xlink"
   xmlns:sodipodi="http://sodipodi.sourceforge.net/DTD/sodipodi-0.dtd"
   xmlns:inkscape="http://www.inkscape.org/namespaces/inkscape"
   id="svg2"
   version="1.1"
   inkscape:version="0.91 r13725"
   width="2481"
   height="3503"
   sodipodi:docname="Pepper-and-Carrot_by-David-Revoy_E08P04.svg">
  <metadata
     id="metadata8">
    <rdf:RDF>
      <cc:Work
         rdf:about="">
        <dc:format>image/svg+xml</dc:format>
        <dc:type
           rdf:resource="http://purl.org/dc/dcmitype/StillImage" />
        <dc:title />
      </cc:Work>
    </rdf:RDF>
  </metadata>
  <defs
     id="defs6" />
  <sodipodi:namedview
     pagecolor="#ffffff"
     bordercolor="#666666"
     borderopacity="1"
     objecttolerance="10"
     gridtolerance="10"
     guidetolerance="10"
     inkscape:pageopacity="0"
     inkscape:pageshadow="2"
     inkscape:window-width="1366"
     inkscape:window-height="705"
     id="namedview4"
     showgrid="false"
     inkscape:zoom="0.45740262"
     inkscape:cx="1300.2614"
     inkscape:cy="2426.0793"
     inkscape:window-x="-8"
     inkscape:window-y="-8"
     inkscape:window-maximized="1"
     inkscape:current-layer="layer3" />
  <g
     inkscape:groupmode="layer"
     id="layer2"
     inkscape:label="artwork"
     sodipodi:insensitive="true">
    <image
       sodipodi:absref="C:\Users\Mahwiii\Desktop\Manga\translations\pepper carrot\peppercarrot_ep08_translation-master\peppercarrot_ep08_translation-master\ar\..\gfx_Pepper-and-Carrot_by-David-Revoy_E08P04.png"
       xlink:href="../gfx_Pepper-and-Carrot_by-David-Revoy_E08P04.png"
       y="0"
       x="0"
       id="image10"
       height="3503"
       width="2481" />
  </g>
  <g
     inkscape:groupmode="layer"
     id="layer3"
     inkscape:label="speechbubbles">
    <path
       style="color:#000000;fill:#ffffff;fill-opacity:1;fill-rule:nonzero;stroke:none;stroke-width:1px;marker:none;visibility:visible;display:inline;overflow:visible;enable-background:accumulate"
       d="m 880.1864,440.58968 c 0.14158,-33.76631 51.46871,-65.56095 199.0001,-60.66235 79.0258,2.62392 194.0586,18.77677 194.6043,60.46715 1.0865,83.00989 -144.6282,62.40731 -183.2702,64.7296 -38.73,2.32758 -117.15085,1.62709 -160.71467,-15.1594 -27.13569,-10.45621 -50.82421,-18.8926 -49.61953,-49.375 z"
       id="path4546-0-5"
       inkscape:connector-curvature="0"
       sodipodi:nodetypes="cssssc" />
    <path
       style="color:#000000;fill:#ffffff;fill-opacity:1;fill-rule:nonzero;stroke:none;stroke-width:1px;marker:none;visibility:visible;display:inline;overflow:visible;enable-background:accumulate"
       d="m 1065.2159,520.14236 c 0.1613,-18.27017 58.6402,-75.95276 226.7279,-70.27769 90.0369,3.03982 214.301,21.75865 215.1736,70.05155 1.2381,68.50897 -176.6988,66.44352 -206.8889,68.47455 -30.1901,2.03111 -127.7283,2.31248 -178.4793,-14.95622 -43.2597,-14.71963 -56.363,-28.40229 -56.5333,-53.29219 z"
       id="path4546"
       inkscape:connector-curvature="0"
       sodipodi:nodetypes="cssssc" />
    <flowRoot
       xml:space="preserve"
       id="flowRoot2987-4-9-3"
       style="font-style:normal;font-variant:normal;font-weight:normal;font-stretch:normal;font-size:12px;line-height:125%;font-family:Lavi;-inkscape-font-specification:Lavi;text-align:center;letter-spacing:0px;word-spacing:0px;text-anchor:middle;fill:#000000;fill-opacity:1;stroke:none"
       transform="translate(872.51012,214.367)"><flowRegion
         id="flowRegion2989-5-4-5"><rect
           id="rect2991-7-9-6"
           width="602.40173"
           height="310.73996"
           x="120.55251"
           y="265.53046"
           style="font-style:normal;font-variant:normal;font-weight:normal;font-stretch:normal;font-family:Lavi;-inkscape-font-specification:Lavi;text-align:center;text-anchor:middle" /></flowRegion><flowPara
         style="font-style:normal;font-variant:normal;font-weight:normal;font-stretch:normal;font-size:75px;font-family:Midan;-inkscape-font-specification:Midan;text-align:center;text-anchor:middle"
         id="flowPara3013">... بأنهن سيأتون ...</flowPara></flowRoot>    <path
       style="color:#000000;display:inline;overflow:visible;visibility:visible;fill:#ffffff;fill-opacity:1;fill-rule:nonzero;stroke:none;stroke-width:1px;marker:none;enable-background:accumulate"
       d="m 895.27109,382.58696 c 0.14101,-32.98081 51.25744,-64.03584 198.18321,-59.25119 78.7013,2.56289 193.262,18.33997 193.8053,59.06053 1.0822,81.07888 -144.0344,60.95558 -182.5177,63.22385 -38.5711,2.27343 -116.66997,1.58923 -160.05497,-14.80677 -27.02429,-10.21298 -50.61558,-18.45311 -49.41584,-48.22642 z"
       id="path4546-0"
       inkscape:connector-curvature="0"
       sodipodi:nodetypes="cssssc" />
    <flowRoot
       xml:space="preserve"
       id="flowRoot2987-4-9-3-3"
       style="font-style:normal;font-variant:normal;font-weight:normal;font-stretch:normal;font-size:12px;line-height:125%;font-family:Lavi;-inkscape-font-specification:Lavi;text-align:center;letter-spacing:0px;word-spacing:0px;text-anchor:middle;fill:#000000;fill-opacity:1;stroke:none"
       transform="translate(660.82807,81.806841)"><flowRegion
         id="flowRegion2989-5-4-5-3"><rect
           id="rect2991-7-9-6-8"
           width="602.40173"
           height="310.73996"
           x="120.55251"
           y="265.53046"
           style="font-style:normal;font-variant:normal;font-weight:normal;font-stretch:normal;font-family:Lavi;-inkscape-font-specification:Lavi;text-align:center;text-anchor:middle" /></flowRegion><flowPara
         style="font-style:normal;font-variant:normal;font-weight:normal;font-stretch:normal;font-size:75px;line-height:100%;font-family:Midan;-inkscape-font-specification:Midan;text-align:center;text-anchor:middle"
         id="flowPara3051">لكن أنا متأكدة...</flowPara><flowPara
         style="font-style:normal;font-variant:normal;font-weight:normal;font-stretch:normal;font-size:75px;line-height:100%;font-family:Midan;-inkscape-font-specification:Midan;text-align:center;text-anchor:middle"
         id="flowPara3372">أنا على يقين...</flowPara></flowRoot>    <path
       style="color:#000000;fill:#ffffff;fill-opacity:1;fill-rule:nonzero;stroke:none;stroke-width:1px;marker:none;visibility:visible;display:inline;overflow:visible;enable-background:accumulate"
       d="m 1390.4444,579.0932 c 18.7289,5.11471 39.3681,13.94076 42.3389,17.10636 2.9707,3.16561 3.5403,29.0288 9.435,31.36015 5.8946,2.33123 19.9529,-4.23421 23.181,-1.87166 3.2281,2.36253 6.9164,21.25493 11.735,22.7987 4.8187,1.54378 31.4537,-1.43509 33.8787,0.67009 2.425,2.10524 15.6258,13.41875 31.9608,19.09482 -24.538,-22.91551 -24.3587,-30.38519 -30.2534,-32.71645 -5.8946,-2.33133 -22.6507,1.59871 -27.2277,-2.08151 -4.577,-3.68014 -8.5227,-21.76961 -14.9476,-23.8279 -6.4248,-2.05835 -17.3175,1.53629 -17.3175,1.53629 1.5283,-6.15207 4.6076,-39.25886 -25.7157,-55.17241 -30.3235,-15.91365 -37.0675,23.10352 -37.0675,23.10352 z"
       id="path5050"
       inkscape:connector-curvature="0" />
  </g>
  <g
     inkscape:groupmode="layer"
     id="layer1"
     inkscape:label="txt" />
</svg>
