<?xml version="1.0" encoding="UTF-8" standalone="no"?>
<!-- Created with Inkscape (http://www.inkscape.org/) -->

<svg
   xmlns:dc="http://purl.org/dc/elements/1.1/"
   xmlns:cc="http://creativecommons.org/ns#"
   xmlns:rdf="http://www.w3.org/1999/02/22-rdf-syntax-ns#"
   xmlns:svg="http://www.w3.org/2000/svg"
   xmlns="http://www.w3.org/2000/svg"
   xmlns:xlink="http://www.w3.org/1999/xlink"
   xmlns:sodipodi="http://sodipodi.sourceforge.net/DTD/sodipodi-0.dtd"
   xmlns:inkscape="http://www.inkscape.org/namespaces/inkscape"
   id="svg2"
   version="1.1"
   inkscape:version="0.48.4 r9939"
   width="2481"
   height="663"
   sodipodi:docname="Pepper-and-Carrot_by-David-Revoy_E08P00.svg">
  <metadata
     id="metadata8">
    <rdf:RDF>
      <cc:Work
         rdf:about="">
        <dc:format>image/svg+xml</dc:format>
        <dc:type
           rdf:resource="http://purl.org/dc/dcmitype/StillImage" />
        <dc:title />
      </cc:Work>
    </rdf:RDF>
  </metadata>
  <defs
     id="defs6">
    <pattern
       y="0"
       x="0"
       height="6"
       width="6"
       patternUnits="userSpaceOnUse"
       id="EMFhbasepattern" />
  </defs>
  <sodipodi:namedview
     pagecolor="#ffffff"
     bordercolor="#666666"
     borderopacity="1"
     objecttolerance="10"
     gridtolerance="10"
     guidetolerance="10"
     inkscape:pageopacity="0"
     inkscape:pageshadow="2"
     inkscape:window-width="1680"
     inkscape:window-height="1033"
     id="namedview4"
     showgrid="false"
     inkscape:zoom="0.52995012"
     inkscape:cx="1341.1065"
     inkscape:cy="207.68367"
     inkscape:window-x="1920"
     inkscape:window-y="0"
     inkscape:window-maximized="1"
     inkscape:current-layer="layer1" />
  <g
     inkscape:groupmode="layer"
     id="layer2"
     inkscape:label="artwork"
     sodipodi:insensitive="true">
    <image
       sodipodi:absref="/home/deevad/Production/Webcomics/New/lang/ar/../gfx_Pepper-and-Carrot_by-David-Revoy_E08P00.png"
       xlink:href="../gfx_Pepper-and-Carrot_by-David-Revoy_E08P00.png"
       y="0"
       x="0"
       id="image10"
       height="663"
       width="2481" />
  </g>
  <g
     inkscape:groupmode="layer"
     id="layer1"
     inkscape:label="txt"
     style="display:inline">
    <flowRoot
       xml:space="preserve"
       id="flowRoot2987"
       style="font-style:normal;font-variant:normal;font-weight:normal;font-stretch:normal;font-size:12px;line-height:125%;font-family:AlHor;-inkscape-font-specification:AlHor;letter-spacing:0px;word-spacing:0px;display:inline;fill:#301b0b;fill-opacity:1;stroke:none;"
       transform="translate(-748.44912,-120.8471)"><flowRegion
         id="flowRegion2989"><rect
           id="rect2991"
           width="2405.8"
           height="107.55731"
           x="739.22333"
           y="644.36664"
           style="fill:#301b0b;fill-opacity:1;-inkscape-font-specification:AlHor;font-family:AlHor;font-weight:normal;font-style:normal;font-stretch:normal;font-variant:normal;" /></flowRegion><flowPara
         id="flowPara2993"
         style="font-style:normal;font-variant:normal;font-weight:normal;font-stretch:normal;font-size:100px;font-family:AlHor;-inkscape-font-specification:AlHor;text-align:center;text-anchor:middle;fill:#301b0b;fill-opacity:1;">حلقة ٨ : حفلةُ عيدِ ميلادِ فُلفُل</flowPara></flowRoot>    <path
       inkscape:connector-curvature="0"
       id="path4145"
       d="m 627.83349,498.33938 c 0,-3.32594 -4.47968,-5.80271 -9.85496,-5.4489 -4.65829,0.28317 -4.92706,0.14143 -6.4499,-3.39671 -2.68765,-5.94426 -0.62727,-9.69479 9.7648,-18.11584 7.79415,-6.29807 20.69482,-20.16801 22.7552,-24.41391 0.44823,-0.84918 2.15011,-1.4153 4.21091,-1.4153 6.53965,0 10.03357,-5.23659 6.89814,-10.61473 -0.98533,-1.76914 -0.0889,-4.4582 5.55431,-15.85135 3.67339,-7.5011 9.40674,-20.87566 12.72163,-29.72034 6.36061,-17.12511 7.70442,-19.81419 11.37782,-22.43249 2.15011,-1.48606 2.50818,-1.48606 3.852,-0.21229 2.15011,2.05219 8.7799,1.83988 11.28808,-0.35384 1.16479,-1.06148 2.86709,-1.62759 3.85242,-1.34451 3.04614,0.9907 7.34636,8.13794 11.82562,20.09723 5.28554,14.15204 7.52538,17.76105 14.33422,23.5638 7.25535,6.08577 14.51197,8.06721 26.60635,7.14725 5.01678,-0.35382 12.81093,-0.70766 17.37992,-0.8492 8.51072,-0.14139 11.55685,-1.55682 11.55685,-5.37812 0,-0.91993 1.79162,-2.47677 4.12119,-3.53825 13.34846,-6.22733 50.34815,-30.21567 65.57839,-42.38726 l 8.24195,-6.65192 -12.18411,-6.22729 c -11.91491,-6.08582 -12.09437,-6.2981 -10.30232,-8.35029 0.98532,-1.13224 1.88134,-3.04289 1.88134,-4.24588 0,-5.09508 -9.5862,-7.85492 -14.24449,-4.10439 -2.23984,1.76914 -2.5086,1.62762 -13.52792,-7.28876 -11.37782,-9.19946 -19.17197,-16.91286 -22.84494,-22.57405 l -2.06038,-3.04289 -4.83775,2.40603 c -8.60044,4.31667 -15.23023,6.08576 -22.57617,6.08576 -5.73377,0 -7.61511,-0.42458 -10.66124,-2.47675 -7.88346,-5.2366 -9.22728,-11.88852 -4.12077,-20.02651 3.49393,-5.5904 17.2902,-16.84203 29.74307,-24.34218 l 8.33168,-4.95356 0.89602,7.21802 c 0.98532,8.70315 4.65829,13.58593 12.81094,17.12419 l 5.19624,2.26447 -3.85242,-5.59044 c -3.04614,-4.38741 -4.12119,-7.35954 -4.92748,-13.93975 -0.62683,-4.67049 -0.8956,-8.6333 -0.62683,-8.84559 0.98532,-0.77844 11.8256,7.8549 17.02142,13.65666 4.38996,4.88279 5.10652,6.15655 4.03146,7.7134 -0.71655,0.99071 -1.25409,2.54754 -1.25409,3.39672 0,2.19371 5.46501,6.15654 8.60045,6.15654 1.97108,0 4.03146,1.62759 7.70443,5.87349 7.07759,8.2795 15.67803,15.63908 26.42859,22.6448 18.45497,12.03003 31.44537,15.92212 74.89454,22.29097 22.03865,3.18443 28.75774,5.0243 27.50323,7.50107 -1.97065,3.67978 -1.97065,5.02432 -0.17776,7.14729 1.07505,1.27376 3.04613,2.61827 4.38995,2.97212 5.465,1.3445 -1.25409,10.33166 -10.57153,14.01146 -4.03145,1.62757 -9.40674,2.54754 -19.08223,3.39672 l -13.5275,1.13221 -2.8671,-2.47677 c -5.01678,-4.24588 -14.87132,-2.12294 -14.87132,3.25521 0,0.9907 -0.71699,1.83988 -1.61258,1.83988 -2.68765,0 -16.2143,4.67049 -21.49985,7.35954 -2.77736,1.41531 -13.43819,8.77487 -23.74095,16.34576 -17.64868,12.94999 -18.9032,13.65765 -22.84493,13.30382 -5.28555,-0.49535 -9.49647,2.4768 -8.95894,6.22733 0.35977,2.1937 -0.89559,3.32593 -8.60045,7.8549 -20.78412,12.38387 -39.77705,18.54044 -59.84461,19.38961 -15.9468,0.70762 -18.09691,0.28317 -19.61977,-3.6798 -0.62725,-1.76913 -2.5086,-3.67978 -4.4784,-4.45818 -2.95641,-1.34456 -3.58324,-1.27378 -6.89814,0.2123 -2.5086,1.13224 -4.30023,1.34454 -5.73377,0.77839 -2.59791,-1.13221 -12.6319,-9.62401 -18.00718,-15.28523 l -4.12077,-4.2459 -5.55473,10.89782 c -12.36314,24.20161 -28.93678,46.77565 -43.53976,59.44257 -9.04824,7.78414 -20.87385,12.10081 -20.87385,7.57184 z m 577.92841,-9.8363 c -4.8378,-2.54755 -10.034,-10.75631 -8.78,-13.79918 0.4482,-1.06147 8.3316,-7.71338 17.5594,-14.86064 15.9456,-12.3131 18.7228,-15.0022 20.6042,-19.74343 l 0.8063,-2.0522 -5.7337,1.98143 c -10.034,3.53825 -24.4562,1.62758 -37.6258,-5.02429 -5.2859,-2.61832 -5.5546,-2.9014 -4.9274,-6.36886 0.896,-5.16585 -2.8667,-8.0672 -9.2277,-7.28881 -4.3895,0.56612 -4.748,0.4246 -8.7795,-4.10436 -5.0167,-5.51967 -10.7506,-14.2945 -14.603,-22.3617 -2.6876,-5.58952 -2.6876,-6.01411 -0.8956,-8.56164 2.5082,-3.39673 1.3438,-7.50107 -2.4189,-8.84562 -2.4188,-0.84917 -2.9563,-1.91066 -3.5836,-7.28879 -1.0751,-9.12869 -0.896,-15.42675 0.6273,-24.8385 1.075,-7.14725 1.6126,-8.35024 3.5832,-8.35024 6.0923,0 9.2277,-7.64263 4.569,-11.32242 l -2.4189,-1.91064 4.6587,-7.92568 c 9.4067,-15.78059 15.3195,-20.30954 26.6077,-20.30954 7.3463,0 13.7069,1.41529 25.2638,5.51966 l 8.1513,2.90135 -2.4176,-2.40599 c -2.6876,-2.75982 -10.8403,-7.07651 -16.3053,-8.7041 -3.0457,-0.91994 -2.6876,-0.99072 3.0462,-0.49534 14.4226,1.06146 32.0713,9.83634 44.3448,21.86637 8.4213,8.2795 18.2759,22.36173 22.1283,31.84423 l 3.2252,7.6426 -2.598,2.05219 c -1.4335,1.13224 -2.5983,3.11367 -2.5983,4.38745 0,2.54754 3.7627,6.15654 6.4504,6.15654 2.5086,0 3.2251,2.19368 4.4796,14.57758 1.2541,13.01979 0.6268,23.84682 -2.2398,35.66459 -1.9711,7.99643 -2.1501,8.20874 -5.3752,8.20874 -4.1212,0 -8.063,3.0429 -8.063,6.22732 0,1.34452 1.3438,3.32593 3.1354,4.67049 l 3.0462,2.26447 -6.7191,11.11009 c -7.8839,12.95 -19.7095,27.31528 -27.2349,33.11802 -4.927,3.75053 -5.5543,3.96282 -8.5108,2.90134 -4.0314,-1.41528 -8.6003,0 -10.4804,3.39672 -1.792,3.04291 -5.1962,3.04291 -10.7505,0.071 z m 24.9936,-87.32398 c 4.0315,0 8.959,-4.2459 8.3317,-7.14724 -0.6272,-2.54662 0.1778,-2.68813 5.8231,-1.41437 3.4047,0.77747 3.8524,0.6369 4.3003,-1.34454 1.7023,-6.86421 -4.6583,-24.20161 -15.2298,-41.75132 -5.9128,-9.83634 -6.3607,-11.03932 -4.7481,-12.45465 2.3292,-2.12295 2.2394,-6.51035 -0.1777,-8.70408 -2.1502,-1.91065 -9.3175,-2.33525 -10.6613,-0.70764 -0.4478,0.63688 -2.1489,0 -4.5677,-1.83991 -10.4818,-7.99643 -21.7699,-7.35953 -27.5036,1.55685 -4.569,7.21803 -5.9128,14.43605 -6.0022,32.26882 0,17.83276 1.3438,23.14013 8.3317,32.6934 7.0772,9.69386 20.9636,18.89332 30.2794,20.16708 l 4.3002,0.56612 2.4188,-5.94426 c 1.9711,-5.0243 2.7774,-5.94426 5.1066,-5.94426 z m -726.01503,61.07014 c 0,-3.25516 -2.59791,-5.44888 -7.1669,-6.22728 -3.49393,-0.56616 -4.21049,-1.13225 -5.01678,-4.2459 -1.16479,-4.38746 -1.16479,-4.31669 13.79626,-16.70056 9.04824,-7.50106 12.63191,-11.32237 16.48433,-17.47892 2.77694,-4.38745 5.73335,-7.92569 6.62937,-7.92569 2.50861,0 7.52539,-4.38741 7.52539,-6.58113 0,-1.13225 -1.25452,-3.04291 -2.8671,-4.2459 -2.77695,-2.19373 -2.86668,-2.83061 -3.4042,-20.02553 -0.4478,-15.28523 -0.98532,-19.10655 -3.7627,-27.59834 -2.15011,-6.72268 -2.77694,-10.1194 -1.97065,-10.75628 3.22517,-2.54755 0,-10.04861 -4.38995,-10.04861 -1.70231,0 -8.69018,-20.23878 -8.69018,-24.98005 0.0889,-9.55328 4.1212,-14.93137 12.00508,-16.06364 l 4.30022,-0.63689 -0.53752,3.46751 c -0.62727,4.52892 2.23941,7.07645 8.06248,7.07645 l 4.38996,0 3.76269,8.27952 c 5.19583,11.1101 7.88346,19.53112 12.18368,37.78849 7.34636,31.20733 9.13797,55.69108 5.19625,70.12714 -1.88135,7.21803 -1.97108,7.28877 -5.28555,6.79343 -2.50861,-0.42458 -4.03146,0.071 -6.36103,1.91067 -3.852,3.04286 -3.852,5.66118 -0.0889,8.70408 l 2.95641,2.26446 -3.58366,4.74128 c -11.91492,15.99286 -25.17408,24.4139 -38.43281,24.48465 -5.19625,0 -5.73377,-0.2123 -5.73377,-2.12296 z m 376.26734,1.41534 c -8.4214,-3.25522 -12.27383,-9.05796 -12.45287,-18.54044 -0.0889,-6.29807 1.79163,-9.12868 8.33169,-12.66692 6.98786,-3.75057 7.70442,-3.67979 7.70442,1.27377 0,4.38742 2.5086,9.9071 5.19625,11.67622 1.07505,0.70763 1.43354,-1.06147 1.43354,-6.79343 l 0,-7.7134 3.4042,0.21229 c 7.61385,0.42461 14.06419,8.49181 14.06419,17.762 0,10.7563 -4.56899,14.64835 -17.73715,15.14372 -4.47968,0.21229 -8.95894,0.0709 -9.94427,-0.35381 z m 640.10129,-5.94427 c -7.5254,-1.41532 -17.7385,-5.37816 -17.7385,-6.93498 0,-2.26446 -4.3899,-5.23661 -7.7044,-5.23661 -2.1501,0 -4.39,-1.48605 -8.4214,-5.66117 -15.5883,-15.9929 -24.099,-39.48685 -26.9661,-74.51457 -1.6126,-19.17732 -0.9853,-40.47754 1.2545,-47.48328 1.2541,-3.75056 1.9706,-4.45818 4.3002,-4.45818 6.3606,0 9.8545,-6.58115 5.8231,-11.11013 -2.1502,-2.40601 -1.075,-4.67048 3.7627,-7.71337 6.1815,-3.82132 13.7069,-1.55681 20.6948,6.15653 5.1962,5.66122 5.9128,10.544 2.7773,18.96503 -1.3438,3.53824 -3.046,8.91639 -3.8524,11.95929 -0.8959,3.46747 -2.1501,5.66118 -3.4042,6.01501 -5.9128,1.6276 -8.2423,7.28878 -4.4796,10.61474 1.4336,1.20301 1.6125,2.61831 0.8063,6.65191 -1.3439,6.43962 0.3597,21.79559 3.3148,30.71198 l 2.1502,6.65191 -2.7774,1.98047 c -5.9128,4.17515 -1.7917,12.24236 5.7338,11.39318 3.2251,-0.42459 3.8524,0 8.1527,5.8027 8.2418,11.03935 18.0071,16.7713 30.1015,17.62048 6.8071,0.49537 7.9719,0.28317 11.6449,-1.91066 7.436,-4.38741 12.8113,-12.66692 17.2906,-26.74914 2.1501,-6.43959 3.6729,-9.41079 6.0025,-11.10915 3.7627,-2.75984 3.9417,-6.36885 0.5376,-8.98716 -1.6126,-1.27377 -2.2399,-2.68906 -1.7921,-3.96284 1.5233,-4.812 -1.8814,-50.03079 -5.6441,-73.02943 l -3.8519,-23.70625 2.7769,-1.91065 c 3.4046,-2.40602 3.5836,-7.07651 0.2709,-9.62404 -1.2541,-1.06147 -3.1354,-1.91065 -3.9417,-1.91065 -1.1649,0 -2.4189,-3.67886 -4.3003,-12.45369 -1.4335,-6.86422 -4.748,-20.59261 -7.4356,-30.42895 -6.4491,-24.2724 -6.5388,-25.47539 -3.2252,-30.71199 2.4189,-3.67978 3.4042,-4.31666 7.4357,-4.81203 4.5689,-0.5661 7.8839,-2.75984 7.8839,-5.2366 0,-0.7784 1.5228,-1.27377 4.2105,-1.27377 6.6293,0 9.4067,2.97214 12.4528,13.23308 4.3895,14.57756 11.8256,55.62124 14.9611,82.08639 3.8524,32.1273 10.1232,67.86359 15.7673,88.66848 4.8378,18.32813 15.499,43.73181 20.4261,49.03919 3.1358,3.25519 6.0922,4.5997 7.2566,3.18443 0.5375,-0.77841 6.7191,-1.20301 19.9782,-1.41529 17.9175,-0.2123 19.172,-0.35387 21.7699,-2.33525 1.4335,-1.20303 2.6877,-3.04291 2.6877,-4.10439 0,-1.83987 -4.1212,-5.87347 -6.8089,-6.72265 -1.5228,-0.4246 -15.2298,-20.23785 -18.5446,-26.74822 -10.1234,-19.95572 -13.5276,-32.97649 -12.5423,-48.54476 0.8064,-13.37456 1.1649,-14.22374 6.1816,-14.22374 7.2566,0 10.4818,-6.58115 5.2856,-10.89783 l -2.5082,-2.12293 6.6293,-5.16587 c 12.632,-9.76556 31.627,-11.8885 47.9319,-5.23659 20.426,8.20872 38.4272,30.92427 45.3318,57.03654 4.1208,15.7806 3.4042,38.07156 -1.2546,38.07156 -2.6876,0 -6.4503,3.60902 -6.4503,6.15655 0,1.27378 1.0751,3.25423 2.5086,4.31572 l 2.4129,1.91064 -3.3089,5.37814 c -1.7916,2.97214 -3.4998,5.6612 -3.6789,6.01505 -0.2624,0.3538 3.1414,1.98138 7.621,3.67975 6.6295,2.47679 9.9384,3.11368 18.634,3.4675 l 10.6554,0.49535 6.2709,-5.23662 c 7.7048,-6.43959 9.8549,-11.46393 11.6465,-27.59737 1.1707,-10.33171 0.8961,-13.44535 -2.5086,-37.1516 -3.3085,-23.14015 -3.4879,-26.04154 -1.8754,-27.45681 2.7715,-2.40601 2.2339,-7.07651 -0.8955,-9.12869 -2.6043,-1.62758 -3.1419,-4.17512 -10.2131,-54.55885 -4.1212,-29.08439 -7.4421,-54.20596 -7.4421,-55.83354 0.097,-4.45819 4.0374,-10.89782 8.1586,-13.23307 2.2339,-1.27377 6.3547,-2.40598 10.2131,-2.75984 6.5341,-0.5661 6.6294,-0.5661 8.9589,2.47681 1.3379,1.69835 3.3086,6.08578 4.4793,9.69478 1.8754,6.15656 1.8754,6.79344 0.084,9.19946 -2.771,3.67976 -2.5086,5.4489 1.4336,8.35025 3.8584,2.8306 4.3958,5.02434 7.8834,33.68414 1.4336,11.32237 1.4336,14.86064 0.3598,17.26662 -1.2541,2.61738 -1.1585,3.46656 0.6332,5.94332 1.5169,2.12295 2.8667,9.12869 5.1006,26.60764 3.4042,27.17375 8.3375,59.01798 10.392,68.21744 1.4336,6.08576 1.3498,6.43959 -1.1584,8.49179 -1.5292,1.13222 -2.6877,2.97213 -2.6877,4.10434 0,2.19373 4.9212,6.58115 7.5255,6.58115 0.9793,0 2.413,2.33524 3.7627,6.22732 2.6876,7.71243 11.9089,19.10561 18.634,22.99766 4.6587,2.61832 5.8175,2.83061 15.1345,2.83061 8.242,0 10.5716,0.35381 13.0798,1.91064 3.7627,2.33525 6.367,2.40603 10.034,0.14143 1.971,-1.203 5.8289,-1.91065 12.7216,-2.33525 22.2177,-1.27376 33.422,-6.65187 43.7188,-20.73411 l 3.3208,-4.52801 -6.6298,2.97117 c -6.1875,2.75983 -7.1669,2.90137 -14.0709,2.26449 -25.5267,-2.33523 -47.0278,-15.92118 -58.2325,-36.79686 -9.6755,-18.1158 -11.6461,-47.2002 -4.7421,-68.57123 0.9794,-3.04288 1.6964,-3.53824 4.5631,-3.53824 6.3665,0 9.7711,-6.65192 5.3752,-10.47322 -2.6876,-2.40599 -1.3379,-4.81202 6.0085,-10.75533 10.392,-8.42103 16.4839,-8.13798 38.5226,1.90971 l 11.7303,5.30737 -6.5342,-5.30737 c -3.6789,-2.90041 -9.2336,-6.65097 -12.363,-8.20778 -3.1415,-1.62762 -5.471,-3.11369 -5.1963,-3.25521 1.1589,-0.99069 13.7967,1.83988 20.068,4.4582 9.496,4.0336 16.2092,8.84466 24.6306,17.61954 8.9589,9.4825 18.9091,24.48468 17.117,25.97076 -3.4998,2.75981 0,10.04859 4.7426,10.04859 2.1501,0 6.1875,8.91638 9.0542,19.8142 2.6876,10.11938 2.9504,36.44394 0.5375,48.12016 -2.2458,11.10917 -7.8001,25.40368 -12.8169,33.40014 -6.0922,9.55327 -8.4214,11.8885 -11.8256,11.8885 -3.7627,0 -7.7048,3.11365 -7.7048,6.08579 0,1.62758 -1.5169,2.97212 -5.6381,5.09507 -15.3256,7.71339 -24.3678,8.91638 -64.8614,8.49179 -29.3012,-0.28315 -30.7348,-0.42459 -37.448,-2.68906 -10.8461,-3.609 -21.9548,-12.59616 -27.9514,-22.57402 l -4.8377,-7.99643 -1.4336,4.17512 c -3.5833,10.75626 -15.4089,22.29095 -27.3301,26.53685 -3.0461,1.06149 -9.138,2.19373 -13.6172,2.47678 -7.5254,0.49535 -8.2424,0.35385 -10.9301,-1.9814 -3.3085,-2.83062 -7.2506,-3.18443 -11.1924,-0.99074 -1.7916,0.99074 -3.8583,1.27376 -6.0084,0.84918 -2.7711,-0.49534 -22.3968,-8.70409 -33.1473,-13.79916 l -3.7627,-1.7691 -6.7132,3.89204 c -9.3174,5.23663 -20.6974,9.12869 -32.8815,11.25162 -13.2587,2.33525 -17.4696,2.33525 -20.426,-0.071 -1.3438,-0.99073 -3.7627,-1.8399 -5.3752,-1.8399 -3.4043,0 -7.7942,2.97212 -7.7942,5.23662 0,1.27377 -0.8957,1.41529 -5.0168,0.84918 -16.4843,-2.0522 -29.385,-12.80845 -33.3268,-27.81063 l -1.3438,-5.16584 -2.2398,7.0765 c -1.2541,3.8213 -3.852,9.34097 -5.7334,12.24234 -3.046,4.5997 -3.9421,5.23658 -7.9736,5.80274 -5.2855,0.63687 -7.6147,2.83056 -7.6147,7.00571 0,2.68907 -0.8062,3.39672 -5.5547,5.51967 -8.7795,3.89205 -16.5737,5.30737 -28.4877,5.16582 -5.9128,-0.071 -12.7212,-0.42459 -15.14,-0.91993 z m 195.3925,-89.09213 c -0.097,-10.47322 -0.6331,-14.36531 -2.4247,-18.89424 -1.7921,-4.24591 -2.1501,-6.22733 -1.2545,-8.20877 1.7082,-3.60901 -0.6209,-7.21803 -5.1006,-7.92564 -2.6877,-0.42459 -4.8378,-2.12296 -9.0542,-7.07651 -6.2713,-7.5011 -11.1924,-10.04864 -16.3912,-8.49181 -4.748,1.48607 -6.7191,5.44891 -7.5254,15.35601 -0.6268,7.21803 -0.3597,10.19016 1.7023,16.34672 3.4042,10.26089 16.3015,30.49968 24.8182,38.99148 l 6.9878,6.93401 4.1212,-6.93401 4.2045,-6.86421 -0.084,-13.23303 z m 220.3865,-1.98144 c 0.2624,-0.21228 0.3597,-4.10437 0.2624,-8.56256 -0.1778,-4.52894 0.3597,-9.41172 1.0751,-10.82704 1.254,-2.47677 9.317,-6.43958 12.9959,-6.43958 3.3089,0 -3.4999,-18.54043 -11.9209,-32.48113 -9.4965,-15.63908 -18.8135,-22.22022 -27.3187,-19.46038 -8.421,2.75982 -13.1753,13.16228 -14.071,31.13661 -0.8003,13.65762 0.4538,19.67263 5.65,27.73984 1.9707,3.04291 3.5832,6.79343 3.5832,8.2795 0,3.18443 3.6676,6.43962 7.3465,6.43962 1.4335,0 3.4879,0.70763 4.6586,1.55681 4.4793,3.18443 15.0508,4.74128 17.7384,2.61831 z M 680.86929,322.98478 c -10.4818,-2.12295 -20.42606,-9.76557 -23.20301,-17.97433 -2.5086,-7.35954 0.44781,-16.1344 6.53964,-19.31881 l 3.04614,-1.55681 4.56899,7.85489 c 4.30022,7.35954 11.01931,14.86065 13.34846,14.86065 0.53752,0 -0.26665,-2.26449 -1.79163,-4.95357 -3.31489,-6.08576 -7.16689,-16.62976 -6.27129,-17.3374 1.25451,-0.99073 11.01932,3.11365 15.05078,6.29808 5.8235,4.67049 9.6755,11.67621 9.6755,17.69125 0,10.47319 -9.04825,16.77128 -20.96358,14.43605 z m 989.49221,-70.33945 c 0.8956,-6.22732 -7.8839,-9.48249 -13.2592,-4.88279 -2.1501,1.83988 -3.0461,2.05219 -4.569,1.20302 -6.9878,-4.03361 -7.7942,-15.92214 -1.6126,-23.84778 4.6587,-5.94426 9.4965,-8.06721 19.4408,-8.56257 6.7191,-0.35383 8.6897,-0.0709 12.8109,1.76914 4.1233,1.91063 4.8403,2.75982 5.4612,6.36883 0.6332,4.03362 3.3209,6.65189 6.8088,6.65189 1.4335,0 1.6126,1.06147 0.9913,5.66122 -1.2541,9.34096 -6.2709,14.64834 -16.6655,17.3374 -8.7799,2.33524 -9.9442,2.12296 -9.4067,-1.69836 z m 219.4032,-17.5497 c -5.2915,-1.27377 -12.5422,-6.43961 -15.0508,-10.75629 -2.4248,-4.2459 -3.1414,-15.63905 -0.9913,-15.63905 2.3292,0 7.0831,-4.59971 7.0831,-6.93494 0,-3.2552 6.1757,-5.30739 15.7678,-5.30739 9.5798,0 15.6717,2.54755 20.9636,8.84562 l 3.9417,4.59972 -3.4999,1.69835 c -6.1756,2.97211 -6.2713,8.13799 -0.1777,11.1101 l 3.4042,1.62759 -3.1295,3.67979 c -5.7338,6.58115 -17.4756,9.55328 -28.31,7.0765 z M 722.16962,216.83827 c 0,-8.49178 5.82307,-13.09153 31.17535,-24.90927 12.98996,-5.94426 17.91745,-7.78413 21.32165,-7.78413 4.38995,0 7.25662,-1.55685 8.69017,-4.81204 0.53753,-1.13221 26.33886,-13.79887 32.25167,-15.78029 2.9564,-0.99071 -0.53753,11.67595 -4.21049,15.28496 -3.49393,3.32593 -66.74318,31.84424 -68.26603,30.71197 -1.97109,-1.48606 -8.60045,-0.91995 -10.65999,0.84919 -1.07505,0.99069 -1.97065,2.83061 -1.97065,4.10436 0,1.76912 -1.07506,2.75985 -4.12118,3.89206 l -4.2105,1.62762 0,-3.18443 z m 881.62768,-27.10299 c -3.4042,-1.06148 -3.7627,-0.70763 5.9128,-5.16582 4.2109,-1.98144 11.7364,-5.80275 16.5741,-8.56258 7.0771,-3.96282 9.496,-4.812 12.1837,-4.38741 4.1212,0.63687 9.7652,-3.32568 9.2277,-6.58087 -0.2667,-1.48606 1.4335,-3.39673 5.644,-6.58115 l 5.9128,-4.4581 -5.7337,-3.89207 c -6.0022,-4.03361 -9.5858,-8.63322 -10.8399,-13.86981 -1.4336,-6.1565 4.5689,-21.30009 8.9585,-22.43231 3.1358,-0.70767 6.1816,-4.6705 5.465,-6.93496 -0.3597,-1.20293 0.7166,-2.75977 3.1354,-4.59964 5.3754,-3.962841 8.1527,-4.882784 14.7821,-4.882784 11.4675,0 18.0935,6.227334 18.4516,17.337294 0.1777,5.66113 0,6.298 -2.9506,8.13789 -3.4998,2.19371 -4.3023,6.22732 -1.8872,9.27022 1.0751,1.34445 0.8122,2.61822 -1.075,6.01494 l -2.4151,4.31663 5.4612,3.1136 5.3753,3.04287 -0.7166,8.49179 c -0.4423,4.67041 -0.8003,9.69472 -0.8003,11.18078 0,2.4765 -0.2752,2.61801 -2.3297,1.69807 -1.6126,-0.63689 -2.4247,-1.98113 -2.4247,-3.75025 0,-5.16584 -6.3572,-8.06721 -12.0906,-5.59043 -1.7921,0.70765 -2.8671,0.70765 -4.1212,-0.071 -1.3439,-0.91995 -2.8667,-0.071 -7.9732,4.31668 -22.8449,19.95542 -34.7602,25.97045 -50.7964,25.8289 -4.3899,-0.0709 -9.3174,-0.49534 -10.93,-0.9907 z m 71.4913,-64.18323 c -2.6877,-7.99636 -17.2009,-12.80837 -18.0072,-5.94426 -0.6268,5.44888 2.6876,9.12869 13.3488,14.93133 l 4.1208,2.26446 0.8961,-3.89209 c 0.4477,-2.12285 0.3597,-5.44879 -0.3599,-7.35944 z m 151.7644,41.53876 -2.9624,-0.99074 4.7544,-2.19368 c 13.0797,-6.01505 27.0554,-13.86985 38.7854,-21.79544 7.0835,-4.81201 13.3548,-9.27021 13.7967,-9.90708 0.5375,-0.63683 -1.2541,-2.54748 -4.6588,-4.88271 -9.6755,-6.43959 -12.5421,-13.37448 -9.6755,-22.99844 3.3209,-11.463815 13.8924,-24.838323 22.2181,-28.235006 4.8378,-1.981439 7.7045,-1.698362 11.2043,1.061435 2.592,2.052181 3.8465,2.40601 7.1669,1.910658 3.8465,-0.566115 4.205,-0.424591 6.6298,3.255159 4.6583,7.147225 2.5082,24.555234 -4.3003,34.957644 -1.5291,2.40594 -1.4335,2.61822 3.6672,5.5196 5.1962,2.90136 5.3752,3.11365 5.1962,7.92565 -0.084,2.68899 -0.4423,7.71329 -0.8961,11.25157 l -0.7165,6.36874 -11.1929,-5.66112 -11.1086,-5.73196 -4.5749,4.10437 c -4.0256,3.60903 -5.1006,4.03351 -8.7799,3.67981 -5.8171,-0.49538 -9.6755,2.54743 -8.7795,7.00562 0.6332,2.83057 0.097,3.53824 -4.7421,6.93486 -9.0546,6.2981 -17.3804,8.98717 -28.489,9.19945 -5.1962,0.14142 -10.8462,-0.21228 -12.5425,-0.77839 z m 71.6706,-64.18338 c -2.8671,-8.421006 -17.2965,-12.737581 -18.3716,-5.448882 -0.1778,1.273761 -0.896,3.184422 -1.6964,4.316632 -2.1501,3.11369 -1.7078,4.88278 1.6126,7.50101 2.5086,1.98142 3.7626,2.33524 7.4302,1.83987 3.4041,-0.42459 5.1958,-0.0709 7.4415,1.27377 l 3.0461,1.83992 0.8004,-3.89209 c 0.5376,-2.12295 0.3598,-5.51957 -0.2623,-7.43023 z"
       style="fill:#301b0b;fill-opacity:1;fill-rule:nonzero;stroke:none" />
  </g>
</svg>
