<?xml version="1.0" encoding="UTF-8" standalone="no"?>
<!-- Created with Inkscape (http://www.inkscape.org/) -->

<svg
   xmlns:dc="http://purl.org/dc/elements/1.1/"
   xmlns:cc="http://creativecommons.org/ns#"
   xmlns:rdf="http://www.w3.org/1999/02/22-rdf-syntax-ns#"
   xmlns:svg="http://www.w3.org/2000/svg"
   xmlns="http://www.w3.org/2000/svg"
   xmlns:xlink="http://www.w3.org/1999/xlink"
   xmlns:sodipodi="http://sodipodi.sourceforge.net/DTD/sodipodi-0.dtd"
   xmlns:inkscape="http://www.inkscape.org/namespaces/inkscape"
   id="svg2"
   version="1.1"
   inkscape:version="0.48.5 r10040"
   width="2481"
   height="3503"
   sodipodi:docname="Pepper-and-Carrot_by-David-Revoy_E08P05.svg">
  <metadata
     id="metadata8">
    <rdf:RDF>
      <cc:Work
         rdf:about="">
        <dc:format>image/svg+xml</dc:format>
        <dc:type
           rdf:resource="http://purl.org/dc/dcmitype/StillImage" />
        <dc:title />
      </cc:Work>
    </rdf:RDF>
  </metadata>
  <defs
     id="defs6">
    <filter
       color-interpolation-filters="sRGB"
       id="filter4375-4-1-1-15-1-3"
       inkscape:label="deevad outline effect">
      <feFlood
         id="feFlood4377-7-9-0-4-4-4"
         flood-opacity="0.90476190476190477"
         flood-color="rgb(250,62,62)"
         result="flood" />
      <feComposite
         id="feComposite4379-3-8-8-6-0-7"
         in2="SourceGraphic"
         in="flood"
         operator="in"
         result="composite1" />
      <feMorphology
         id="feMorphology4393-1-0-49-8-2-7"
         operator="dilate"
         radius="0.59999999999999998"
         result="result3" />
      <feComposite
         id="feComposite4385-9-5-7-2-1-2"
         in2="result3"
         in="SourceGraphic"
         operator="over"
         result="composite2" />
    </filter>
    <filter
       color-interpolation-filters="sRGB"
       id="filter4005"
       inkscape:label="deevad outline effect">
      <feFlood
         id="feFlood4007"
         flood-opacity="1"
         flood-color="rgb(0,0,0)"
         result="flood" />
      <feComposite
         id="feComposite4009"
         in2="SourceGraphic"
         in="flood"
         operator="in"
         result="composite1" />
      <feMorphology
         id="feMorphology4011"
         operator="dilate"
         radius="0.59999999999999998"
         result="result3" />
      <feComposite
         id="feComposite4013"
         in2="result3"
         in="SourceGraphic"
         operator="over"
         result="composite2" />
    </filter>
    <filter
       color-interpolation-filters="sRGB"
       id="filter4015"
       inkscape:label="deevad outline effect">
      <feFlood
         id="feFlood4017"
         flood-opacity="1"
         flood-color="rgb(0,0,0)"
         result="flood" />
      <feComposite
         id="feComposite4019"
         in2="SourceGraphic"
         in="flood"
         operator="in"
         result="composite1" />
      <feMorphology
         id="feMorphology4021"
         operator="dilate"
         radius="0.59999999999999998"
         result="result3" />
      <feComposite
         id="feComposite4023"
         in2="result3"
         in="SourceGraphic"
         operator="over"
         result="composite2" />
    </filter>
    <filter
       color-interpolation-filters="sRGB"
       id="filter4025"
       inkscape:label="deevad outline effect">
      <feFlood
         id="feFlood4027"
         flood-opacity="1"
         flood-color="rgb(0,0,0)"
         result="flood" />
      <feComposite
         id="feComposite4029"
         in2="SourceGraphic"
         in="flood"
         operator="in"
         result="composite1" />
      <feMorphology
         id="feMorphology4031"
         operator="dilate"
         radius="0.59999999999999998"
         result="result3" />
      <feComposite
         id="feComposite4033"
         in2="result3"
         in="SourceGraphic"
         operator="over"
         result="composite2" />
    </filter>
    <filter
       color-interpolation-filters="sRGB"
       id="filter4035"
       inkscape:label="deevad outline effect">
      <feFlood
         id="feFlood4037"
         flood-opacity="1"
         flood-color="rgb(0,0,0)"
         result="flood" />
      <feComposite
         id="feComposite4039"
         in2="SourceGraphic"
         in="flood"
         operator="in"
         result="composite1" />
      <feMorphology
         id="feMorphology4041"
         operator="dilate"
         radius="0.59999999999999998"
         result="result3" />
      <feComposite
         id="feComposite4043"
         in2="result3"
         in="SourceGraphic"
         operator="over"
         result="composite2" />
    </filter>
    <filter
       color-interpolation-filters="sRGB"
       id="filter4045"
       inkscape:label="deevad outline effect">
      <feFlood
         id="feFlood4047"
         flood-opacity="1"
         flood-color="rgb(0,0,0)"
         result="flood" />
      <feComposite
         id="feComposite4049"
         in2="SourceGraphic"
         in="flood"
         operator="in"
         result="composite1" />
      <feMorphology
         id="feMorphology4051"
         operator="dilate"
         radius="0.59999999999999998"
         result="result3" />
      <feComposite
         id="feComposite4053"
         in2="result3"
         in="SourceGraphic"
         operator="over"
         result="composite2" />
    </filter>
    <filter
       color-interpolation-filters="sRGB"
       id="filter4055"
       inkscape:label="deevad outline effect">
      <feFlood
         id="feFlood4057"
         flood-opacity="1"
         flood-color="rgb(0,0,0)"
         result="flood" />
      <feComposite
         id="feComposite4059"
         in2="SourceGraphic"
         in="flood"
         operator="in"
         result="composite1" />
      <feMorphology
         id="feMorphology4061"
         operator="dilate"
         radius="0.59999999999999998"
         result="result3" />
      <feComposite
         id="feComposite4063"
         in2="result3"
         in="SourceGraphic"
         operator="over"
         result="composite2" />
    </filter>
    <filter
       color-interpolation-filters="sRGB"
       id="filter4065"
       inkscape:label="deevad outline effect">
      <feFlood
         id="feFlood4067"
         flood-opacity="1"
         flood-color="rgb(0,0,0)"
         result="flood" />
      <feComposite
         id="feComposite4069"
         in2="SourceGraphic"
         in="flood"
         operator="in"
         result="composite1" />
      <feMorphology
         id="feMorphology4071"
         operator="dilate"
         radius="0.59999999999999998"
         result="result3" />
      <feComposite
         id="feComposite4073"
         in2="result3"
         in="SourceGraphic"
         operator="over"
         result="composite2" />
    </filter>
  </defs>
  <sodipodi:namedview
     pagecolor="#ffffff"
     bordercolor="#666666"
     borderopacity="1"
     objecttolerance="10"
     gridtolerance="10"
     guidetolerance="10"
     inkscape:pageopacity="0"
     inkscape:pageshadow="2"
     inkscape:window-width="1600"
     inkscape:window-height="837"
     id="namedview4"
     showgrid="false"
     inkscape:zoom="0.526013"
     inkscape:cx="1222.4186"
     inkscape:cy="1677.636"
     inkscape:window-x="0"
     inkscape:window-y="27"
     inkscape:window-maximized="1"
     inkscape:current-layer="layer3" />
  <g
     inkscape:groupmode="layer"
     id="layer2"
     inkscape:label="artwork"
     sodipodi:insensitive="true">
    <image
       sodipodi:absref="/home/alex/Documents/PC8/en/../gfx_Pepper-and-Carrot_by-David-Revoy_E08P05.png"
       xlink:href="../gfx_Pepper-and-Carrot_by-David-Revoy_E08P05.png"
       y="0"
       x="0"
       id="image10"
       height="3503"
       width="2481" />
  </g>
  <g
     inkscape:groupmode="layer"
     id="layer3"
     inkscape:label="speechbubbles">
    <path
       style="color:#000000;fill:#ffffff;fill-opacity:1;fill-rule:nonzero;stroke:none;stroke-width:1px;marker:none;visibility:visible;display:inline;overflow:visible;enable-background:accumulate"
       d="M 868.35173,562.68548 C 823.8901,498.37454 769.82208,442.32851 736.52178,368.4149 l -7.85244,68.44405 c -20.16979,-47.43347 -13.10805,-23.8636 -27.18414,-63.06373 l -24.983,57.75358 C 668.65733,328.80768 659.9636,270.09369 658.3641,199.84088 L 528.94059,340.74874 c 50.32183,47.02748 107.39661,83.05293 150.12249,142.45557 l 21.12482,-36.13193 c 17.43127,17.7744 26.16516,26.22094 40.04375,49.0473 l 14.43754,-49.73 z"
       id="path4032"
       inkscape:connector-curvature="0"
       sodipodi:nodetypes="cccccccccccc" />
    <path
       style="color:#000000;fill:#ffffff;fill-opacity:1;fill-rule:nonzero;stroke:none;stroke-width:1px;marker:none;visibility:visible;display:inline;overflow:visible;enable-background:accumulate"
       d="m 232.74858,114.29659 -15.54417,-2.3506 3.65747,21.93887 c -24.59537,1.19044 -37.41006,-5.69521 -54.8613,-9.40235 l 27.43059,28.20694 -4.57174,7.83533 c 4.45347,4.58133 11.17334,7.70601 12.80095,14.10354 -12.42468,3.98674 -21.35777,3.9841 -31.63299,5.5149 9.66829,5.29828 17.71764,11.42881 23.40378,18.77444 l -32.91673,12.53639 30.17166,10.96766 c -22.69418,18.03509 -51.21784,29.4095 -77.71815,43.09588 l 94.17858,-6.26832 -14.62963,14.10353 c 9.41308,7.34049 8.58122,3.70704 12.80096,5.48475 2.05494,5.28262 -32.37593,27.24708 -29.25939,25.07291 3.65748,-0.78357 34.74554,-3.91773 34.74554,-3.91773 0,0 -27.43073,21.93886 -23.77325,21.93886 3.65734,0 33.83112,-5.48474 33.83112,-5.48474 l -10.05787,21.1553 -19.66144,8.63244 -27.02178,23.85823 c 10.22936,-1.54748 15.06881,1.17398 11.43201,10.3205 -24.61219,32.56833 8.96902,60.94583 15.00609,72.0337 19.26954,-12.91062 36.8198,-53.59327 82.42123,-63.13204 20.26311,2.25918 21.48244,11.51221 30.17379,18.02115 2.10067,-13.9102 16.12346,-27.2458 36.57421,-27.4235 6.31998,6.26824 8.94969,12.53647 6.40055,18.8047 4.97446,-6.548 7.18043,-12.24117 27.43058,-23.50588 5.90672,10.28508 2.70426,17.19497 0,24.28946 -3.6777,5.40223 -1.36058,-6.66084 35.65994,-28.20708 11.31145,45.70601 9.05915,71.30911 2.74307,90.88928 10.21369,-20.14519 23.00573,-42.04715 59.43305,-76.78574 11.44771,12.09501 8.31642,21.48908 11.88668,32.12468 0.24712,-9.4923 -1.29466,-18.70842 9.14362,-29.77409 5.95811,7.42322 5.62222,16.01248 2.74308,25.07291 5.6109,-11.68184 9.75857,-23.58959 25.60192,-33.69169 16.12451,7.93397 16.731,19.46158 19.2015,30.55754 -0.78165,-14.18026 4.87175,-23.88986 18.28709,-28.20695 30.47179,22.36071 53.69023,47.44159 68.57668,76.78574 -5.77399,-30.86957 -16.53276,-58.5945 -5.48614,-86.1881 10.36268,-2.48438 20.72537,2.48472 31.08806,9.40236 l -5.48615,-21.15529 38.403,14.10352 -17.37283,-32.90824 c 15.95705,-2.3292 39.7,4.37948 60.34759,7.83533 L 717.35712,328.1998 c 9.30921,0.79072 25.1744,9.08474 40.23168,16.45412 -18.5018,-20.2367 -34.06535,-33.60788 -32.91687,-52.49641 l 42.06036,3.91762 C 750.25024,281.99124 729.54235,271.52859 718.01112,253.2024 l 36.8346,-1.78834 -34.74553,-23.50589 27.43059,-13.31996 -21.94444,-3.13416 36.5742,-28.20695 -48.46089,-2.35058 58.51878,-50.92938 -67.66227,10.96949 5.48602,-36.82585 -37.48848,26.63993 37.48848,-92.456295 C 679.75344,71.36524 656.41553,97.84875 615.34505,121.68038 l -13.20309,-9.28456 -14.62335,4.80824 3.65733,-26.41325 -53.9469,32.12456 5.48613,-14.88698 -16.45842,14.10353 3.65734,-19.58827 -28.34499,23.50588 2.60973,-20.48062 -13.58202,13.42885 -4.18227,-12.86842 -15.9335,8.16725 c -4.79428,-33.952885 3.44361,-67.905767 9.14348,-101.858648 -18.70696,38.868059 -42.46408,74.026802 -74.0628,103.425778 L 395.50382,100.982 382.96314,114.74288 370.2955,96.95538 351.2232,118.21077 C 336.14091,102.01783 327.35676,92.09665 321.441,75.903718 c 2.91749,15.176162 5.03869,25.370992 0.78308,42.083792 -55.67651,-25.58774 -54.0097,-27.86955 -74.84587,-42.083792 -5.70948,18.269992 -11.3991,24.353092 -14.62963,38.392872 z"
       id="path4024"
       inkscape:connector-curvature="0"
       sodipodi:nodetypes="cccccccccccccccccsccccccccccccccccccccccccccccccccccccccccccccccccccccccccccccccccccc" />
    <flowRoot
       xml:space="preserve"
       id="flowRoot2987-4-9-3"
       style="font-size:12px;font-style:normal;font-variant:normal;font-weight:normal;font-stretch:normal;text-align:center;line-height:125%;letter-spacing:0px;word-spacing:0px;text-anchor:middle;fill:#000000;fill-opacity:1;stroke:none;font-family:Lavi;-inkscape-font-specification:Lavi"
       transform="translate(30.202934,-102.35604)"><flowRegion
         id="flowRegion2989-5-4-5"><rect
           id="rect2991-7-9-6"
           width="602.40173"
           height="310.73996"
           x="120.55251"
           y="265.53046"
           style="font-style:normal;font-variant:normal;font-weight:normal;font-stretch:normal;text-align:center;text-anchor:middle;font-family:Lavi;-inkscape-font-specification:Lavi" /></flowRegion><flowPara
         style="font-size:48px;text-align:center;text-anchor:middle"
         id="flowPara3009">How could they</flowPara><flowPara
         style="font-size:48px;text-align:center;text-anchor:middle"
         id="flowPara3362">do this to me ?!!</flowPara><flowPara
         style="font-size:48px;text-align:center;text-anchor:middle"
         id="flowPara3011">To      !!!</flowPara></flowRoot>    <flowRoot
       xml:space="preserve"
       id="flowRoot2987-4-9-3-0"
       style="font-size:12px;font-style:normal;font-variant:normal;font-weight:normal;font-stretch:normal;text-align:center;line-height:125%;letter-spacing:0px;word-spacing:0px;text-anchor:middle;fill:#000000;fill-opacity:1;stroke:none;font-family:Lavi;-inkscape-font-specification:Lavi"
       transform="matrix(1.2147869,0,0,1.2147869,-63.86893,-48.935668)"><flowRegion
         id="flowRegion2989-5-4-5-1"><rect
           id="rect2991-7-9-6-4"
           width="602.40173"
           height="310.73996"
           x="120.55251"
           y="265.53046"
           style="font-style:normal;font-variant:normal;font-weight:normal;font-stretch:normal;text-align:center;text-anchor:middle;font-family:Lavi;-inkscape-font-specification:Lavi" /></flowRegion><flowPara
         style="font-size:48px;font-style:italic;font-weight:bold;text-align:center;letter-spacing:1.5px;text-anchor:middle;stroke:#000000;stroke-width:3.15775537;stroke-miterlimit:4;stroke-opacity:1;stroke-dasharray:none;-inkscape-font-specification:Lavi Bold Italic"
         id="flowPara3030-8-7"> me</flowPara></flowRoot>    <flowRoot
       xml:space="preserve"
       id="flowRoot3805"
       style="font-size:12px;font-style:normal;font-variant:normal;font-weight:normal;font-stretch:normal;line-height:125%;letter-spacing:0px;word-spacing:0px;fill:#000000;fill-opacity:1;stroke:none;font-family:Arial;-inkscape-font-specification:Arial"><flowRegion
         id="flowRegion3807"><rect
           id="rect3809"
           width="371.73911"
           height="402.17389"
           x="1565.2173"
           y="587.78271" /></flowRegion><flowPara
         id="flowPara3811" /></flowRoot>    <flowRoot
       xml:space="preserve"
       id="flowRoot2987-4-9-3-8"
       style="font-size:12px;font-style:normal;font-variant:normal;font-weight:normal;font-stretch:normal;text-align:center;line-height:125%;letter-spacing:0px;word-spacing:0px;text-anchor:middle;opacity:0.8465116;fill:#aa7655;fill-opacity:1;stroke:none;font-family:Lavi;-inkscape-font-specification:Lavi"
       transform="matrix(0.94719422,-0.22266421,0.23893864,1.026553,1394.9943,-38.907074)"><flowRegion
         id="flowRegion2989-5-4-5-4"><rect
           id="rect2991-7-9-6-3"
           width="602.40173"
           height="310.73996"
           x="120.55251"
           y="265.53046"
           style="font-style:normal;font-variant:normal;font-weight:normal;font-stretch:normal;text-align:center;text-anchor:middle;fill:#aa7655;fill-opacity:1;font-family:Lavi;-inkscape-font-specification:Lavi" /></flowRegion><flowPara
         style="font-size:48px;font-style:normal;font-variant:normal;font-weight:normal;font-stretch:normal;text-align:center;text-anchor:middle;fill:#aa7655;fill-opacity:1;font-family:RoboKoz;-inkscape-font-specification:RoboKoz"
         id="flowPara3030-8-2">Incantations</flowPara><flowPara
         style="font-size:48px;font-style:normal;font-variant:normal;font-weight:normal;font-stretch:normal;text-align:center;text-anchor:middle;fill:#aa7655;fill-opacity:1;font-family:RoboKoz;-inkscape-font-specification:RoboKoz"
         id="flowPara3826">for Demons of</flowPara><flowPara
         style="font-size:48px;font-style:normal;font-variant:normal;font-weight:normal;font-stretch:normal;text-align:center;text-anchor:middle;fill:#aa7655;fill-opacity:1;font-family:RoboKoz;-inkscape-font-specification:RoboKoz"
         id="flowPara3828">CHAOSAH</flowPara><flowPara
         style="font-size:48px;font-style:normal;font-variant:normal;font-weight:normal;font-stretch:normal;text-align:center;text-anchor:middle;fill:#aa7655;fill-opacity:1;font-family:RoboKoz;-inkscape-font-specification:RoboKoz"
         id="flowPara3830">Vol .1</flowPara></flowRoot>    <path
       style="fill:#ffffff;fill-opacity:1;stroke:none"
       d="m 1565.4375,1600.6609 c 28.2866,6.4777 39.1658,12.4927 34.0887,16.1943 11.6047,1.8508 15.9565,49.971 5.0771,58.7621 -0.7253,0.9256 -5.8024,3.7017 -3.6265,4.1644 2.1758,0.4626 15.2312,-0.9253 17.4071,0.9254 2.1758,1.8508 -19.583,28.2244 -16.6818,29.1497 2.9012,0.9254 69.6281,-16.657 79.0568,-12.4927 9.429,4.1643 4.3519,14.8062 7.253,15.269 2.9011,0.4626 29.7371,-2.3135 33.3637,-1.8509 3.6262,0.4628 10.1538,14.3435 13.7802,14.8062 3.6265,0.4628 20.3083,-6.0149 23.2095,-5.5522 2.9012,0.4627 1.4504,12.03 5.077,12.4926 3.6266,0.4627 19.5829,-9.7164 21.7589,-9.2539 2.1757,0.4628 10.1541,23.5976 13.7804,24.9855 3.6267,1.3882 26.8358,-25.448 29.0118,-25.9108 2.1759,-0.4627 15.9563,31.4632 18.8577,31.926 2.9011,0.4627 17.4069,-21.7468 19.5828,-21.2841 2.1759,0.4627 15.9565,13.4183 18.8575,14.3436 2.9013,0.9253 21.759,-28.687 24.6599,-28.687 2.9014,0 27.5613,12.4927 29.7373,14.8061 2.1759,2.3135 4.3515,-12.0301 7.2528,-12.0301 2.9012,0 36.2646,8.3286 36.9899,7.8659 0.7252,-0.4627 -5.077,-9.2538 -2.9011,-9.2538 36.814,5.1423 82.5278,12.31 116.772,18.9704 -14.1919,-11.6279 -32.6381,-37.9409 -29.0119,-40.717 3.6266,-2.7763 16.682,0.4626 17.4074,-0.9255 0.7252,-1.388 -7.9783,-7.403 -5.8026,-9.2539 2.176,-1.8507 26.8359,-9.2538 29.0118,-11.5673 2.1759,-2.3135 -10.8793,-8.3286 -7.9783,-9.7167 2.9013,-1.3881 30.9058,-11.1331 46.419,-12.4927 -5.9966,-2.075 -21.7588,-13.418 -18.8578,-16.657 2.9013,-3.2388 4.3818,-4.15 10.1541,-6.9404 -2.7419,-1.3597 -14.5059,-5.0896 -13.7805,-7.4031 0.7254,-2.3135 7.9782,-13.8809 10.1541,-15.7316 2.1759,-1.8508 -15.2312,-0.9254 -15.2312,-2.7762 0,-1.8508 -3.2509,-17.5936 57.843,-45.9453 -81.4027,14.5795 -109.336,3.2987 -133.2704,-0.4028 -23.935,-3.7016 -9.7914,-14.7601 -3.6293,-26.2949 -13.9675,6.6425 -31.2333,9.6238 -34.089,4.6269 -3.6263,-3.2388 -3.8032,-2.0196 -7.9782,-9.2539 -14.5945,9.8474 -19.583,12.9554 -23.2092,12.4928 -3.6266,-0.4627 -31.5312,-7.3837 -42.7924,-21.284 -14.3531,9.6841 -24.6599,7.8659 -29.0118,8.3285 -4.3518,0.4627 -6.9475,-3.426 -11.6046,-10.1792 -3.6266,0.9253 -26.8358,9.2539 -30.4622,8.3284 -3.6265,-0.9253 -3.4356,0.8579 -9.429,-3.7014 -2.901,0.9253 -15.9563,4.6269 -15.9563,4.6269 0,0 -8.2598,1.993 -13.7806,-2.7762 -12.1451,10.7828 -30.3867,14.0247 -37.7151,16.1943 -6.7439,-3.0146 -34.814,-35.1648 -32.6381,-37.941 2.1759,-2.7762 -32.6384,38.4037 -37.7153,39.7918 -5.0771,1.388 -15.1549,1.6116 -21.7588,-1.3881 -1.4508,1.3881 -5.8024,8.7911 -10.1542,9.2539 -4.3517,0.4626 -14.5058,2.3133 -14.5058,2.3133 l 1.4505,2.7763 c 0,0 -30.4622,-7.4031 -34.0888,-10.1793 -3.6264,-2.7761 2.176,12.03 4.3519,15.7316 -13.0551,-3.7016 -51.4958,-11.5674 -54.3967,-13.8809 -2.9014,-2.3134 5.0767,8.3286 9.4285,11.5674 -5.8022,-1.3881 -10.8794,-1.8507 -10.8794,-1.8507 l 16.6818,11.1046 -5.077,0.9255 c 0,0 10.8793,5.0896 10.8793,7.4031 0,2.3135 -28.2864,5.0896 -28.2864,5.0896 0,0 11.6048,4.1642 8.7036,6.4777 -2.9013,2.3135 -10.1541,3.7015 -10.1541,3.7015 l -1.4506,6.0151 z"
       id="path5888"
       inkscape:connector-curvature="0"
       sodipodi:nodetypes="ccccccsccsscccccscscsccccscccccccsscscccccccccccccccccccccccccsccccc" />
    <flowRoot
       xml:space="preserve"
       id="flowRoot2987-4-9-3-7"
       style="font-size:12px;font-style:normal;font-variant:normal;font-weight:normal;font-stretch:normal;text-align:center;line-height:125%;letter-spacing:0px;word-spacing:0px;text-anchor:middle;fill:#000000;fill-opacity:1;stroke:none;font-family:Lavi;-inkscape-font-specification:Lavi"
       transform="translate(1437.4887,1298.2943)"><flowRegion
         id="flowRegion2989-5-4-5-6"><rect
           id="rect2991-7-9-6-7"
           width="602.40173"
           height="310.73996"
           x="120.55251"
           y="265.53046"
           style="font-style:normal;font-variant:normal;font-weight:normal;font-stretch:normal;text-align:center;text-anchor:middle;font-family:Lavi;-inkscape-font-specification:Lavi" /></flowRegion><flowPara
         style="font-size:48px;text-align:center;text-anchor:middle"
         id="flowPara3891">... since I can't </flowPara><flowPara
         style="font-size:48px;text-align:center;text-anchor:middle"
         id="flowPara3366">count on them ...</flowPara></flowRoot>    <path
       style="color:#000000;fill:#ffffff;fill-opacity:1;fill-rule:nonzero;stroke:none;stroke-width:1px;marker:none;visibility:visible;display:inline;overflow:visible;enable-background:accumulate"
       d="m 1889.0397,1689.3949 c -18.4523,28.3798 -51.1226,88.4968 -53.6964,103.6923 24.9455,9.8716 63.3606,38.7994 61.4454,43.4826 -1.9154,4.6832 -64.3114,57.1793 -62.1183,64.6368 2.1932,7.4574 17.4097,29.1871 26.1857,34.615 -23.9099,-18.6352 -40.7903,-34.5159 -40.9424,-46.0736 -0.5159,-7.819 48.671,-48.3166 52.2072,-50.9091 -18.4319,-14.9363 -59.2654,-41.5126 -63.9461,-49.6536 1.5251,-11.9193 7.4437,-57.7273 34.6061,-108.1162 27.1625,-50.3889 46.2588,8.3258 46.2588,8.3258 z"
       id="path5901"
       inkscape:connector-curvature="0"
       sodipodi:nodetypes="ccccccccsc" />
    <flowRoot
       xml:space="preserve"
       id="flowRoot4133-6-9-4-8-5"
       style="font-size:12px;font-style:normal;font-variant:normal;font-weight:normal;font-stretch:normal;line-height:125%;letter-spacing:0.00204969px;word-spacing:0px;color:#000000;fill:#ffffff;fill-opacity:1;fill-rule:nonzero;stroke:#ffffff;stroke-width:0.0836072;stroke-linecap:butt;stroke-linejoin:miter;stroke-miterlimit:4;stroke-opacity:1;stroke-dasharray:none;stroke-dashoffset:0;marker:none;visibility:visible;display:inline;overflow:visible;filter:url(#filter4375-4-1-1-15-1-3);enable-background:accumulate;font-family:Arial;-inkscape-font-specification:Arial"
       transform="matrix(10.283923,-1.1779802,-12.443827,20.606946,2168.326,-18000.295)"><flowRegion
         id="flowRegion4135-2-9-3-5-2"
         style="stroke-width:0.86646658"><rect
           id="rect4137-1-7-1-2-1"
           width="92.489304"
           height="30.687002"
           x="1125.3193"
           y="1078.5308"
           style="letter-spacing:0.00204969px;color:#000000;fill:#ffffff;fill-opacity:1;fill-rule:nonzero;stroke:#ffffff;stroke-width:0.0836072;stroke-linecap:butt;stroke-linejoin:miter;stroke-miterlimit:4;stroke-opacity:1;stroke-dasharray:none;stroke-dashoffset:0;marker:none;visibility:visible;display:inline;overflow:visible;filter:url(#filter4375-4-1-1-15-1-3);enable-background:accumulate" /></flowRegion><flowPara
         id="flowPara4139-2-8-6-8-6"
         style="font-style:normal;font-variant:normal;font-weight:normal;font-stretch:normal;line-height:125%;letter-spacing:0.00204969px;word-spacing:0.00204969px;color:#000000;fill:#ffffff;fill-opacity:1;fill-rule:nonzero;stroke:#ffffff;stroke-width:0.0836072;stroke-linecap:butt;stroke-linejoin:miter;stroke-miterlimit:4;stroke-opacity:1;stroke-dasharray:none;stroke-dashoffset:0;marker:none;visibility:visible;display:inline;overflow:visible;filter:url(#filter4375-4-1-1-15-1-3);enable-background:accumulate;font-family:Lavi;-inkscape-font-specification:Lavi"><flowSpan
   id="flowSpan4821"
   style="font-size:7.13246202px;color:#000000;fill:#ffffff;fill-opacity:1;fill-rule:nonzero;stroke:#ffffff;stroke-width:0.0836072;stroke-linecap:butt;stroke-linejoin:miter;stroke-miterlimit:4;stroke-opacity:1;stroke-dasharray:none;stroke-dashoffset:0;marker:none;visibility:visible;display:inline;overflow:visible;filter:url(#filter4375-4-1-1-15-1-3);enable-background:accumulate">D</flowSpan><flowSpan
   id="flowSpan4823"
   style="font-size:8.55645752px;color:#000000;fill:#ffffff;fill-opacity:1;fill-rule:nonzero;stroke:#ffffff;stroke-width:0.0836072;stroke-linecap:butt;stroke-linejoin:miter;stroke-miterlimit:4;stroke-opacity:1;stroke-dasharray:none;stroke-dashoffset:0;marker:none;visibility:visible;display:inline;overflow:visible;filter:url(#filter4375-4-1-1-15-1-3);enable-background:accumulate">Z</flowSpan><flowSpan
   style="font-size:9.90925312px;color:#000000;fill:#ffffff;fill-opacity:1;fill-rule:nonzero;stroke:#ffffff;stroke-width:0.0836072;stroke-linecap:butt;stroke-linejoin:miter;stroke-miterlimit:4;stroke-opacity:1;stroke-dasharray:none;stroke-dashoffset:0;marker:none;visibility:visible;display:inline;overflow:visible;filter:url(#filter4375-4-1-1-15-1-3);enable-background:accumulate"
   id="flowSpan4271-5">Z</flowSpan>ZO<flowSpan
   id="flowSpan4277-2"
   style="font-size:17.85409164px;color:#000000;fill:#ffffff;fill-opacity:1;fill-rule:nonzero;stroke:#ffffff;stroke-width:0.0836072;stroke-linecap:butt;stroke-linejoin:miter;stroke-miterlimit:4;stroke-opacity:1;stroke-dasharray:none;stroke-dashoffset:0;marker:none;visibility:visible;display:inline;overflow:visible;filter:url(#filter4375-4-1-1-15-1-3);enable-background:accumulate">O<flowSpan
   style="font-size:20.70208168px"
   id="flowSpan4005">O</flowSpan></flowSpan></flowPara></flowRoot>    <text
       xml:space="preserve"
       style="font-size:40px;font-style:normal;font-weight:normal;line-height:125%;letter-spacing:0px;word-spacing:0px;fill:#000000;fill-opacity:1;stroke:none;font-family:Sans"
       x="472.33951"
       y="266.25055"
       id="text3358"
       sodipodi:linespacing="125%"><tspan
         sodipodi:role="line"
         id="tspan3360"
         x="472.33951"
         y="266.25055" /></text>
  </g>
  <g
     inkscape:groupmode="layer"
     id="layer1"
     inkscape:label="txt" />
</svg>
