<?xml version="1.0" encoding="UTF-8" standalone="no"?>
<!-- Created with Inkscape (http://www.inkscape.org/) -->

<svg
   xmlns:dc="http://purl.org/dc/elements/1.1/"
   xmlns:cc="http://creativecommons.org/ns#"
   xmlns:rdf="http://www.w3.org/1999/02/22-rdf-syntax-ns#"
   xmlns:svg="http://www.w3.org/2000/svg"
   xmlns="http://www.w3.org/2000/svg"
   xmlns:xlink="http://www.w3.org/1999/xlink"
   xmlns:sodipodi="http://sodipodi.sourceforge.net/DTD/sodipodi-0.dtd"
   xmlns:inkscape="http://www.inkscape.org/namespaces/inkscape"
   id="svg2"
   version="1.1"
   inkscape:version="0.91 r13725"
   width="2481"
   height="3503"
   sodipodi:docname="Pepper-and-Carrot_by-David-Revoy_E08P05.svg">
  <metadata
     id="metadata8">
    <rdf:RDF>
      <cc:Work
         rdf:about="">
        <dc:format>image/svg+xml</dc:format>
        <dc:type
           rdf:resource="http://purl.org/dc/dcmitype/StillImage" />
        <dc:title />
      </cc:Work>
    </rdf:RDF>
  </metadata>
  <defs
     id="defs6">
    <linearGradient
       inkscape:collect="always"
       id="linearGradient4258">
      <stop
         style="stop-color:#000000;stop-opacity:1;"
         offset="0"
         id="stop4260" />
      <stop
         style="stop-color:#000000;stop-opacity:0;"
         offset="1"
         id="stop4262" />
    </linearGradient>
    <filter
       color-interpolation-filters="sRGB"
       id="filter4375-4-1-1-15-1-3"
       inkscape:label="deevad outline effect">
      <feFlood
         id="feFlood4377-7-9-0-4-4-4"
         flood-opacity="0.90476190476190477"
         flood-color="rgb(250,62,62)"
         result="flood" />
      <feComposite
         id="feComposite4379-3-8-8-6-0-7"
         in2="SourceGraphic"
         in="flood"
         operator="in"
         result="composite1" />
      <feMorphology
         id="feMorphology4393-1-0-49-8-2-7"
         operator="dilate"
         radius="0.59999999999999998"
         result="result3" />
      <feComposite
         id="feComposite4385-9-5-7-2-1-2"
         in2="result3"
         in="SourceGraphic"
         operator="over"
         result="composite2" />
    </filter>
    <filter
       color-interpolation-filters="sRGB"
       id="filter4005"
       inkscape:label="deevad outline effect">
      <feFlood
         id="feFlood4007"
         flood-opacity="1"
         flood-color="rgb(0,0,0)"
         result="flood" />
      <feComposite
         id="feComposite4009"
         in2="SourceGraphic"
         in="flood"
         operator="in"
         result="composite1" />
      <feMorphology
         id="feMorphology4011"
         operator="dilate"
         radius="0.59999999999999998"
         result="result3" />
      <feComposite
         id="feComposite4013"
         in2="result3"
         in="SourceGraphic"
         operator="over"
         result="composite2" />
    </filter>
    <filter
       color-interpolation-filters="sRGB"
       id="filter4015"
       inkscape:label="deevad outline effect">
      <feFlood
         id="feFlood4017"
         flood-opacity="1"
         flood-color="rgb(0,0,0)"
         result="flood" />
      <feComposite
         id="feComposite4019"
         in2="SourceGraphic"
         in="flood"
         operator="in"
         result="composite1" />
      <feMorphology
         id="feMorphology4021"
         operator="dilate"
         radius="0.59999999999999998"
         result="result3" />
      <feComposite
         id="feComposite4023"
         in2="result3"
         in="SourceGraphic"
         operator="over"
         result="composite2" />
    </filter>
    <filter
       color-interpolation-filters="sRGB"
       id="filter4025"
       inkscape:label="deevad outline effect">
      <feFlood
         id="feFlood4027"
         flood-opacity="1"
         flood-color="rgb(0,0,0)"
         result="flood" />
      <feComposite
         id="feComposite4029"
         in2="SourceGraphic"
         in="flood"
         operator="in"
         result="composite1" />
      <feMorphology
         id="feMorphology4031"
         operator="dilate"
         radius="0.59999999999999998"
         result="result3" />
      <feComposite
         id="feComposite4033"
         in2="result3"
         in="SourceGraphic"
         operator="over"
         result="composite2" />
    </filter>
    <filter
       color-interpolation-filters="sRGB"
       id="filter4035"
       inkscape:label="deevad outline effect">
      <feFlood
         id="feFlood4037"
         flood-opacity="1"
         flood-color="rgb(0,0,0)"
         result="flood" />
      <feComposite
         id="feComposite4039"
         in2="SourceGraphic"
         in="flood"
         operator="in"
         result="composite1" />
      <feMorphology
         id="feMorphology4041"
         operator="dilate"
         radius="0.59999999999999998"
         result="result3" />
      <feComposite
         id="feComposite4043"
         in2="result3"
         in="SourceGraphic"
         operator="over"
         result="composite2" />
    </filter>
    <filter
       color-interpolation-filters="sRGB"
       id="filter4045"
       inkscape:label="deevad outline effect">
      <feFlood
         id="feFlood4047"
         flood-opacity="1"
         flood-color="rgb(0,0,0)"
         result="flood" />
      <feComposite
         id="feComposite4049"
         in2="SourceGraphic"
         in="flood"
         operator="in"
         result="composite1" />
      <feMorphology
         id="feMorphology4051"
         operator="dilate"
         radius="0.59999999999999998"
         result="result3" />
      <feComposite
         id="feComposite4053"
         in2="result3"
         in="SourceGraphic"
         operator="over"
         result="composite2" />
    </filter>
    <filter
       color-interpolation-filters="sRGB"
       id="filter4055"
       inkscape:label="deevad outline effect">
      <feFlood
         id="feFlood4057"
         flood-opacity="1"
         flood-color="rgb(0,0,0)"
         result="flood" />
      <feComposite
         id="feComposite4059"
         in2="SourceGraphic"
         in="flood"
         operator="in"
         result="composite1" />
      <feMorphology
         id="feMorphology4061"
         operator="dilate"
         radius="0.59999999999999998"
         result="result3" />
      <feComposite
         id="feComposite4063"
         in2="result3"
         in="SourceGraphic"
         operator="over"
         result="composite2" />
    </filter>
    <filter
       color-interpolation-filters="sRGB"
       id="filter4065"
       inkscape:label="deevad outline effect">
      <feFlood
         id="feFlood4067"
         flood-opacity="1"
         flood-color="rgb(0,0,0)"
         result="flood" />
      <feComposite
         id="feComposite4069"
         in2="SourceGraphic"
         in="flood"
         operator="in"
         result="composite1" />
      <feMorphology
         id="feMorphology4071"
         operator="dilate"
         radius="0.59999999999999998"
         result="result3" />
      <feComposite
         id="feComposite4073"
         in2="result3"
         in="SourceGraphic"
         operator="over"
         result="composite2" />
    </filter>
    <filter
       id="filter3068"
       inkscape:label="Diffuse light"
       inkscape:menu="ABCs"
       inkscape:menu-tooltip="Basic diffuse bevel to use for building textures"
       color-interpolation-filters="sRGB">
      <feGaussianBlur
         id="feGaussianBlur3070"
         stdDeviation="6"
         in="SourceGraphic"
         result="result0" />
      <feDiffuseLighting
         id="feDiffuseLighting3072"
         diffuseConstant="1"
         surfaceScale="10"
         result="result5">
        <feDistantLight
           id="feDistantLight3074"
           elevation="25"
           azimuth="235" />
      </feDiffuseLighting>
      <feComposite
         id="feComposite3076"
         in2="SourceGraphic"
         k1="1"
         in="result5"
         result="result4"
         operator="arithmetic"
         k2="0"
         k3="0.6" />
    </filter>
    <linearGradient
       inkscape:collect="always"
       xlink:href="#linearGradient4258"
       id="linearGradient4264"
       x1="349.53636"
       y1="292.41471"
       x2="492.34044"
       y2="292.41471"
       gradientUnits="userSpaceOnUse" />
    <linearGradient
       inkscape:collect="always"
       xlink:href="#linearGradient4258"
       id="linearGradient4266"
       gradientUnits="userSpaceOnUse"
       x1="349.53636"
       y1="292.41471"
       x2="492.34044"
       y2="292.41471" />
  </defs>
  <sodipodi:namedview
     pagecolor="#ffffff"
     bordercolor="#666666"
     borderopacity="1"
     objecttolerance="10"
     gridtolerance="10"
     guidetolerance="10"
     inkscape:pageopacity="0"
     inkscape:pageshadow="2"
     inkscape:window-width="960"
     inkscape:window-height="1024"
     id="namedview4"
     showgrid="false"
     inkscape:zoom="0.74389472"
     inkscape:cx="1778.771"
     inkscape:cy="2948.393"
     inkscape:window-x="0"
     inkscape:window-y="30"
     inkscape:window-maximized="0"
     inkscape:current-layer="layer3"
     showguides="true"
     inkscape:guide-bbox="true">
    <sodipodi:guide
       orientation="1,0"
       position="102.49375,3567.4437"
       id="guide3066" />
    <sodipodi:guide
       orientation="0,1"
       position="438.07811,3402.1312"
       id="guide3068" />
  </sodipodi:namedview>
  <g
     inkscape:groupmode="layer"
     id="layer2"
     inkscape:label="artwork"
     sodipodi:insensitive="true">
    <image
       sodipodi:absref="/home/graphene/peppercarrot-translations/peppercarrot_ep08_translation/kr/../gfx_Pepper-and-Carrot_by-David-Revoy_E08P05.png"
       xlink:href="../gfx_Pepper-and-Carrot_by-David-Revoy_E08P05.png"
       width="2481"
       height="3503"
       id="image10"
       x="0"
       y="0" />
  </g>
  <g
     inkscape:groupmode="layer"
     id="layer3"
     inkscape:label="speechbubbles">
    <path
       style="color:#000000;fill:#ffffff;fill-opacity:1;fill-rule:nonzero;stroke:none;stroke-width:1px;marker:none;visibility:visible;display:inline;overflow:visible;enable-background:accumulate"
       d="m 1889.0397,1689.3949 c -18.4523,28.3798 -51.1226,88.4968 -53.6964,103.6923 24.9455,9.8716 63.3606,38.7994 61.4454,43.4826 -1.9154,4.6832 -64.3114,57.1793 -62.1183,64.6368 2.1932,7.4574 17.4097,29.1871 26.1857,34.615 -23.9099,-18.6352 -40.7903,-34.5159 -40.9424,-46.0736 -0.5159,-7.819 48.671,-48.3166 52.2072,-50.9091 -18.4319,-14.9363 -59.2654,-41.5126 -63.9461,-49.6536 1.5251,-11.9193 7.4437,-57.7273 34.6061,-108.1162 27.1625,-50.3889 46.2588,8.3258 46.2588,8.3258 z"
       id="path5901"
       inkscape:connector-curvature="0"
       sodipodi:nodetypes="ccccccccsc" />
    <path
       style="color:#000000;fill:#ffffff;fill-opacity:1;fill-rule:nonzero;stroke:none;stroke-width:1px;marker:none;visibility:visible;display:inline;overflow:visible;enable-background:accumulate"
       d="M 750.05428,530.36217 C 700.59655,469.80917 642.22347,418.26218 603.12416,347.24545 l -2.35887,68.85263 c -23.8951,-45.67033 -14.97277,-22.74002 -32.13583,-60.6902 l -20.2888,59.56502 C 532.31217,313.18701 518.95517,255.35532 511.7478,185.45489 L 393.99614,336.25283 c 53.91831,42.85658 113.68895,74.20676 161.02432,130.00583 l 18.17046,-37.70422 c 18.79567,16.32487 28.17649,24.0466 43.83446,45.69113 l 10.41812,-50.72454 z"
       id="path4032"
       inkscape:connector-curvature="0"
       sodipodi:nodetypes="cccccccccccc" />
    <path
       style="color:#000000;fill:#ffffff;fill-opacity:1;fill-rule:nonzero;stroke:none;stroke-width:1px;marker:none;visibility:visible;display:inline;overflow:visible;enable-background:accumulate"
       d="m 116.87621,81.268649 -16.16782,-2.618442 3.80421,24.438733 C 78.930439,104.41503 65.601602,96.744774 47.450199,92.615219 l 28.531141,31.421031 -4.755168,8.72813 c 4.632152,5.10336 11.621637,8.58408 13.314546,15.71059 -12.923181,4.44102 -22.214674,4.43807 -32.902146,6.14331 10.056188,5.902 18.428489,12.73108 24.342768,20.91372 l -34.23739,13.96486 31.382186,12.21739 c -23.604703,20.09013 -53.272771,32.76061 -80.8363082,48.0065 l 97.9571492,-6.98257 -15.216585,15.71057 c 9.790738,8.17692 8.925507,4.12945 13.314546,6.10973 2.137391,5.88455 -33.674897,30.35178 -30.433312,27.92988 3.80422,-0.87286 36.139571,-4.36415 36.139571,-4.36415 0,0 -28.531284,24.43872 -24.727064,24.43872 3.804078,0 35.188467,-6.1097 35.188467,-6.1097 l -10.461403,23.56587 -20.450279,9.61607 -28.105925,26.57679 c 10.639766,-1.7238 15.673384,1.30775 11.890677,11.49648 -25.59967,36.27938 9.328864,67.8904 15.608153,80.24169 60.438267,-67.82824 60.669997,-73.37239 81.999247,-88.34837 20.10336,15.16219 20.85822,14.17501 35.11323,38.09725 10.29109,-15.49522 22.17445,-21.7038 38.04161,-30.54831 4.95231,9.14413 4.98548,11.26291 6.65735,20.94743 5.17405,-7.29412 7.46852,-13.636 28.53113,-26.18429 0.73962,11.45703 0.65112,11.04814 0,27.05716 21.57399,-19.38145 21.28204,-19.30883 37.09067,-31.42118 4.15657,49.82709 7.2487,68.56497 8.2879,113.20231 18.23218,-30.04935 29.36353,-53.36001 56.3828,-97.49172 5.42211,15.09443 5.94804,18.5336 3.71704,36.86599 8.36318,-14.89719 8.92118,-19.21894 18.15703,-34.24756 6.19715,8.26907 5.84779,17.83705 2.85313,27.92988 5.83602,-13.01294 10.1501,-26.27754 26.6291,-37.53074 16.77146,8.83803 17.40227,21.67917 19.9719,34.03946 -0.81301,-15.79604 5.06721,-26.61202 19.02079,-31.42103 31.69436,24.90864 73.10415,26.54674 88.58786,59.23456 -6.00565,-34.38705 -34.45587,-38.97049 -22.96605,-69.70828 10.77845,-2.76747 21.5569,2.76785 32.33536,10.47372 l -0.77489,-35.07239 39.94378,14.88867 -23.00123,-24.32959 c 16.59728,-2.5946 41.29282,4.87851 62.76882,8.72814 l -11.41251,-23.56586 c 9.68271,0.88082 26.18443,10.11991 41.84582,18.32901 -19.24411,-22.5426 -35.43209,-37.43738 -34.23753,-58.47819 l 43.74788,4.36402 c -17.14333,-15.6887 -38.68205,-27.34353 -50.67593,-47.75793 l 38.31245,-1.99212 -36.13957,-26.1843 28.53114,-14.83772 -22.82487,-3.49129 38.0416,-31.42103 -50.40521,-2.61842 60.86663,-56.732607 -65.51328,-4.533267 0.84244,-24.269334 -38.99257,29.675456 38.99257,-102.9913631 C 581.8155,33.445424 557.54124,62.946636 514.82295,89.493796 l -13.73281,-10.342503 -15.21006,5.356122 3.80407,-29.422947 -56.11132,35.785041 5.70624,-16.583299 -17.11875,15.710578 3.80408,-21.820285 -29.48223,26.184292 2.71443,-22.814314 -14.12694,14.95902 -4.35007,-14.334731 -16.57278,9.097879 c -4.98663,-37.821695 3.58177,-75.6433889 9.51033,-113.465081 -19.4575,43.296937 -44.16779,82.461895 -77.0343,115.210781 L 286.1614,66.436909 273.11758,81.765792 259.9417,61.95147 240.10419,85.628836 c -15.68741,-18.038068 -24.824,-29.089731 -30.9771,-47.127791 3.03454,16.905432 5.24085,28.261927 0.8145,46.879092 C 152.03126,56.876764 153.76494,54.33495 132.0928,38.501045 126.15425,58.852839 120.23635,65.629086 116.87621,81.268649 z"
       id="path4024"
       inkscape:connector-curvature="0"
       sodipodi:nodetypes="cccccccccccccccccsccccccccccccccccccccccccccccccccccccccccccccccccccccccccccccccccccc" />
    <flowRoot
       xml:space="preserve"
       id="flowRoot2987-4-9-3"
       style="font-style:normal;font-variant:normal;font-weight:normal;font-stretch:normal;font-size:12px;line-height:125%;font-family:'Nanum Pen Script OTF';-inkscape-font-specification:'Nanum Pen Script OTF';text-align:center;letter-spacing:0px;word-spacing:0px;text-anchor:middle;fill:#000000;fill-opacity:1;stroke:#000000;stroke-width:1.77156126;stroke-opacity:1"
       transform="matrix(1.4810496,0,-0.26539818,1.4810496,-176.24487,-120.47671)"><flowRegion
         id="flowRegion2989-5-4-5"
         style="stroke:url(#linearGradient4266)"><rect
           id="rect2991-7-9-6"
           width="602.40173"
           height="310.73996"
           x="120.55251"
           y="265.53046"
           style="font-style:normal;font-variant:normal;font-weight:normal;font-stretch:normal;font-family:'Nanum Pen Script OTF';-inkscape-font-specification:'Nanum Pen Script OTF';text-align:center;text-anchor:middle;stroke:#000000;stroke-width:1.77156126;stroke-opacity:1" /></flowRegion><flowPara
         style="font-style:normal;font-variant:normal;font-weight:normal;font-stretch:normal;font-size:48px;font-family:'Nanum Pen Script OTF';-inkscape-font-specification:'Nanum Pen Script OTF';text-align:center;text-anchor:middle;stroke:#000000;stroke-width:1.77156126;stroke-opacity:1"
         id="flowPara3425">나한테 !!!</flowPara></flowRoot>    <flowRoot
       xml:space="preserve"
       id="flowRoot3805"
       style="font-size:12px;font-style:normal;font-variant:normal;font-weight:normal;font-stretch:normal;line-height:125%;letter-spacing:0px;word-spacing:0px;fill:#000000;fill-opacity:1;stroke:none;font-family:Arial;-inkscape-font-specification:Arial"><flowRegion
         id="flowRegion3807"><rect
           id="rect3809"
           width="371.73911"
           height="402.17389"
           x="1565.2173"
           y="587.78271" /></flowRegion><flowPara
         id="flowPara3811" /></flowRoot>    <flowRoot
       xml:space="preserve"
       id="flowRoot2987-4-9-3-8"
       style="font-style:normal;font-variant:normal;font-weight:normal;font-stretch:normal;font-size:12px;line-height:100%;font-family:'Nanum Pen Script OTF';-inkscape-font-specification:'Nanum Pen Script OTF';text-align:center;letter-spacing:0px;word-spacing:0px;text-anchor:middle;opacity:0.6465116;fill:#bf987f;fill-opacity:1;stroke:none;filter:url(#filter3068)"
       transform="matrix(1.0523225,-0.29673483,0.32881308,1.1034328,1305.2896,-9.0339391)"><flowRegion
         id="flowRegion2989-5-4-5-4"><rect
           id="rect2991-7-9-6-3"
           width="602.40173"
           height="310.73996"
           x="120.55251"
           y="265.53046"
           style="font-style:normal;font-variant:normal;font-weight:normal;font-stretch:normal;line-height:100%;font-family:'Nanum Pen Script OTF';-inkscape-font-specification:'Nanum Pen Script OTF';text-align:center;text-anchor:middle;fill:#bf987f;fill-opacity:1" /></flowRegion><flowPara
         style="font-style:normal;font-variant:normal;font-weight:normal;font-stretch:normal;font-size:48px;line-height:100%;font-family:'Nanum Pen Script OTF';-inkscape-font-specification:'Nanum Pen Script OTF';text-align:center;text-anchor:middle;fill:#bf987f;fill-opacity:1"
         id="flowPara3448">카오사의</flowPara><flowPara
         style="font-style:normal;font-variant:normal;font-weight:normal;font-stretch:normal;font-size:48px;line-height:100%;font-family:'Nanum Pen Script OTF';-inkscape-font-specification:'Nanum Pen Script OTF';text-align:center;text-anchor:middle;fill:#bf987f;fill-opacity:1"
         id="flowPara4273">악령 주문서</flowPara><flowPara
         style="font-style:normal;font-variant:normal;font-weight:normal;font-stretch:normal;font-size:48px;line-height:100%;font-family:'Nanum Pen Script OTF';-inkscape-font-specification:'Nanum Pen Script OTF';text-align:center;text-anchor:middle;fill:#bf987f;fill-opacity:1"
         id="flowPara4275">1권</flowPara></flowRoot>    <path
       style="fill:#ffffff;fill-opacity:1;stroke:none"
       d="m 1641.4812,1598.1716 c 21.2651,6.7213 29.4438,12.9625 25.627,16.8033 8.724,1.9204 11.9956,51.8501 3.8168,60.9718 -0.5453,0.9604 -4.3621,3.8409 -2.7263,4.321 1.6357,0.48 11.4504,-0.9601 13.0861,0.9602 1.6358,1.9204 -14.7219,29.2858 -12.5409,30.2459 2.1811,0.9602 52.3445,-17.2834 59.4327,-12.9625 7.0885,4.3209 3.2716,15.363 5.4526,15.8432 2.181,0.48 22.3555,-2.4005 25.0819,-1.9205 2.7261,0.4802 9.7715,11.51 10.3595,15.363 2.3993,-2.6121 15.2673,-6.2411 17.4483,-5.761 2.181,0.4801 3.6868,10.1635 3.8167,12.9623 2.1155,-2.6818 14.7219,-10.0817 16.3578,-9.6018 1.6356,0.4802 8.7026,19.6365 10.3597,25.925 2.5737,-4.0404 20.1744,-26.4049 21.8102,-26.8851 1.6358,-0.4801 11.9955,32.6463 14.1767,33.1265 2.181,0.4801 13.086,-22.5646 14.7218,-22.0845 1.6358,0.4801 11.9956,13.9229 14.1765,14.883 2.1811,0.9601 16.3578,-29.7657 18.5386,-29.7657 2.1812,0 20.7198,12.9625 22.3557,15.3628 1.6358,2.4005 3.2713,-12.4824 5.4525,-12.4824 2.181,0 27.2626,8.6418 27.8079,8.1617 0.5452,-0.4801 -3.8167,-9.6018 -2.181,-9.6018 27.6758,5.3356 62.0421,12.7729 87.7859,19.6837 -10.669,-12.0651 -24.5364,-39.3676 -21.8103,-42.2481 2.7264,-2.8807 12.541,0.48 13.0864,-0.9603 0.5452,-1.4402 -5.9979,-7.6814 -4.3622,-9.6019 1.6358,-1.9203 21.8102,-12.0023 21.8102,-12.0023 0,0 -8.1787,-8.6418 -5.9979,-10.0821 2.1812,-1.4403 23.2341,-11.5517 34.8965,-12.9625 -4.508,-2.153 -16.3576,-13.9226 -14.1767,-17.2834 2.1811,-3.3605 3.2941,-4.306 7.6335,-7.2013 -2.0612,-1.4109 -10.9051,-5.281 -10.3598,-7.6815 0.5454,-2.4005 5.9978,-14.4029 7.6336,-16.3232 1.6358,-1.9204 -11.4504,-0.9602 -11.4504,-2.8806 0,-1.9204 -2.4439,-18.2552 43.4848,-47.6731 -61.1963,15.1278 -82.1957,3.4228 -100.189,-0.4179 -17.9936,-3.8408 -7.3608,-15.3152 -2.7284,-27.2837 -10.5003,6.8922 -23.4803,9.9857 -25.6271,4.8008 -2.7261,-3.3605 -2.8591,-2.0955 -5.9978,-9.6018 -10.9717,10.2177 -14.7219,13.4425 -17.448,12.9625 -2.7264,-0.4801 -23.7043,-7.6613 -32.1701,-22.0843 -10.7903,10.0482 -18.5386,8.1617 -21.8103,8.6417 -3.2715,0.4801 -5.2229,-3.5549 -8.724,-10.562 -2.7263,0.9601 -20.1744,9.6019 -22.9006,8.6416 -2.7263,-0.9601 -2.5828,0.8901 -7.0884,-3.8406 -2.1809,0.9601 -11.9955,4.8009 -11.9955,4.8009 0,0 -6.2095,2.0679 -10.3599,-2.8806 -9.1303,11.1882 -22.8439,14.5521 -28.3531,16.8032 -5.0699,-3.1279 -26.1722,-36.4871 -24.5364,-39.3677 1.6357,-2.8806 -24.5367,39.8478 -28.3533,41.2881 -3.8168,1.4402 -11.3931,1.6722 -16.3577,-1.4403 -1.0906,1.4403 -4.3621,9.1217 -7.6336,9.6019 -3.2715,0.48 -10.9051,2.4003 -10.9051,2.4003 l 1.0905,2.8807 c 0,0 -22.9006,-7.6815 -25.627,-10.5621 -2.7262,-2.8805 1.6358,12.4824 3.2716,16.3232 -9.8144,-3.8408 -38.7131,-12.0024 -40.8939,-14.4029 -2.1812,-2.4004 3.8165,8.6418 7.0881,12.0024 -4.3619,-1.4403 -8.1788,-1.9203 -8.1788,-1.9203 l 12.5409,11.5222 -3.8168,0.9603 c 0,0 8.1788,5.281 8.1788,7.6815 0,2.4005 -21.2649,5.281 -21.2649,5.281 0,0 8.7241,4.3208 6.5431,6.7213 -2.1811,2.4005 -7.6336,3.8407 -7.6336,3.8407 l -1.0905,6.2413 z"
       id="path5888"
       inkscape:connector-curvature="0"
       sodipodi:nodetypes="ccccccscccscccccscscsccccscccccccsscscccccccccccccccccccccccccsccccc" />
    <flowRoot
       xml:space="preserve"
       id="flowRoot2987-4-9-3-7"
       style="font-style:normal;font-variant:normal;font-weight:normal;font-stretch:normal;font-size:16.56517792px;line-height:100%;font-family:Lavi;-inkscape-font-specification:Lavi;text-align:center;letter-spacing:0px;word-spacing:0px;text-anchor:middle;fill:#000000;fill-opacity:1;stroke:none"
       transform="translate(0,13.307656)"><flowRegion
         id="flowRegion2989-5-4-5-6"><rect
           id="rect2991-7-9-6-7"
           width="831.57428"
           height="428.9552"
           x="1443.8331"
           y="1556.0439"
           style="font-style:normal;font-variant:normal;font-weight:normal;font-stretch:normal;line-height:100%;font-family:Lavi;-inkscape-font-specification:Lavi;text-align:center;text-anchor:middle" /></flowRegion><flowPara
         style="font-style:normal;font-variant:normal;font-weight:normal;font-stretch:normal;font-size:66.26071167px;line-height:100%;font-family:'Nanum Pen Script OTF';-inkscape-font-specification:'Nanum Pen Script OTF';text-align:center;text-anchor:middle"
         id="flowPara3454">... 더 이상 걔들을</flowPara><flowPara
         style="font-style:normal;font-variant:normal;font-weight:normal;font-stretch:normal;font-size:66.26071167px;line-height:100%;font-family:'Nanum Pen Script OTF';-inkscape-font-specification:'Nanum Pen Script OTF';text-align:center;text-anchor:middle"
         id="flowPara4279">믿을 수 없어!</flowPara></flowRoot>    <flowRoot
       xml:space="preserve"
       id="flowRoot4133-6-9-4-8-5"
       style="color:#000000;font-style:normal;font-variant:normal;font-weight:normal;font-stretch:normal;font-size:12px;line-height:125%;font-family:Arial;-inkscape-font-specification:Arial;letter-spacing:0.00204969px;word-spacing:0px;display:inline;overflow:visible;visibility:visible;fill:#ffffff;fill-opacity:1;fill-rule:nonzero;stroke:#ffffff;stroke-width:0.02957995;stroke-linecap:butt;stroke-linejoin:miter;stroke-miterlimit:4;stroke-dasharray:none;stroke-dashoffset:0;stroke-opacity:1;marker:none;filter:url(#filter4375-4-1-1-15-1-3);enable-background:accumulate"
       transform="matrix(20.038183,-1.8085557,-15.165338,31.637891,-6004.6638,-29083.117)"><flowRegion
         id="flowRegion4135-2-9-3-5-2"
         style="stroke-width:0.86646658"><rect
           id="rect4137-1-7-1-2-1"
           width="92.489304"
           height="30.687002"
           x="1125.3193"
           y="1078.5308"
           style="color:#000000;letter-spacing:0.00204969px;display:inline;overflow:visible;visibility:visible;fill:#ffffff;fill-opacity:1;fill-rule:nonzero;stroke:#ffffff;stroke-width:0.02957995;stroke-linecap:butt;stroke-linejoin:miter;stroke-miterlimit:4;stroke-dasharray:none;stroke-dashoffset:0;stroke-opacity:1;marker:none;filter:url(#filter4375-4-1-1-15-1-3);enable-background:accumulate" /></flowRegion><flowPara
         id="flowPara4139-2-8-6-8-6"
         style="color:#000000;font-style:normal;font-variant:normal;font-weight:normal;font-stretch:normal;font-size:7.13246202px;line-height:125%;font-family:'Nanum Pen Script OTF';-inkscape-font-specification:'Nanum Pen Script OTF';letter-spacing:0.00204969px;word-spacing:0.00204969px;display:inline;overflow:visible;visibility:visible;fill:#ffffff;fill-opacity:1;fill-rule:nonzero;stroke:#ffffff;stroke-width:0.02957995;stroke-linecap:butt;stroke-linejoin:miter;stroke-miterlimit:4;stroke-dasharray:none;stroke-dashoffset:0;stroke-opacity:1;marker:none;enable-background:accumulate"> 드<flowSpan
   style="font-size:8.13353062px"
   id="flowSpan4281">우</flowSpan><flowSpan
   style="font-size:9.07201481px"
   id="flowSpan4283">우</flowSpan><flowSpan
   style="font-size:9.38484287px"
   id="flowSpan4285">우</flowSpan><flowSpan
   style="font-size:10.32332706px"
   id="flowSpan4287">우</flowSpan><flowSpan
   style="font-size:11.26181126px"
   id="flowSpan4289">우<flowSpan
   style="stroke-width:0.21239749"
   id="flowSpan4363">웅</flowSpan></flowSpan></flowPara></flowRoot>    <text
       xml:space="preserve"
       style="font-size:40px;font-style:normal;font-weight:normal;line-height:125%;letter-spacing:0px;word-spacing:0px;fill:#000000;fill-opacity:1;stroke:none;font-family:Sans"
       x="472.33951"
       y="266.25055"
       id="text3358"
       sodipodi:linespacing="125%"><tspan
         sodipodi:role="line"
         id="tspan3360"
         x="472.33951"
         y="266.25055" /></text>
    <flowRoot
       xml:space="preserve"
       id="flowRoot2987-4-9-3-3"
       style="font-style:normal;font-variant:normal;font-weight:normal;font-stretch:normal;font-size:12px;line-height:100%;font-family:Lavi;-inkscape-font-specification:Lavi;text-align:center;letter-spacing:0px;word-spacing:0px;text-anchor:middle;fill:#000000;fill-opacity:1;stroke:none"
       transform="matrix(1.3670659,0,0,1.3670659,-216.14362,-214.4368)"><flowRegion
         id="flowRegion2989-5-4-5-67"><rect
           id="rect2991-7-9-6-5"
           width="602.40173"
           height="310.73996"
           x="120.55251"
           y="265.53046"
           style="font-style:normal;font-variant:normal;font-weight:normal;font-stretch:normal;line-height:100%;font-family:Lavi;-inkscape-font-specification:Lavi;text-align:center;text-anchor:middle" /></flowRegion><flowPara
         style="font-style:normal;font-variant:normal;font-weight:normal;font-stretch:normal;font-size:48px;line-height:100%;font-family:'Nanum Pen Script OTF';-inkscape-font-specification:'Nanum Pen Script OTF';text-align:center;text-anchor:middle"
         id="flowPara3431-3">어떻게 나한테</flowPara><flowPara
         style="font-style:normal;font-variant:normal;font-weight:normal;font-stretch:normal;font-size:48px;line-height:100%;font-family:'Nanum Pen Script OTF';-inkscape-font-specification:'Nanum Pen Script OTF';text-align:center;text-anchor:middle"
         id="flowPara3425-5">이럴 수가 있어 ?!!</flowPara></flowRoot>  </g>
  <g
     inkscape:groupmode="layer"
     id="layer1"
     inkscape:label="txt" />
</svg>
