<?xml version="1.0" encoding="UTF-8" standalone="no"?>
<!-- Created with Inkscape (http://www.inkscape.org/) -->

<svg
   xmlns:dc="http://purl.org/dc/elements/1.1/"
   xmlns:cc="http://creativecommons.org/ns#"
   xmlns:rdf="http://www.w3.org/1999/02/22-rdf-syntax-ns#"
   xmlns:svg="http://www.w3.org/2000/svg"
   xmlns="http://www.w3.org/2000/svg"
   xmlns:xlink="http://www.w3.org/1999/xlink"
   xmlns:sodipodi="http://sodipodi.sourceforge.net/DTD/sodipodi-0.dtd"
   xmlns:inkscape="http://www.inkscape.org/namespaces/inkscape"
   id="svg2"
   version="1.1"
   inkscape:version="0.91 r13725"
   width="2481"
   height="3503"
   sodipodi:docname="Pepper-and-Carrot_by-David-Revoy_E08P04.svg">
  <metadata
     id="metadata8">
    <rdf:RDF>
      <cc:Work
         rdf:about="">
        <dc:format>image/svg+xml</dc:format>
        <dc:type
           rdf:resource="http://purl.org/dc/dcmitype/StillImage" />
        <dc:title />
      </cc:Work>
    </rdf:RDF>
  </metadata>
  <defs
     id="defs6" />
  <sodipodi:namedview
     pagecolor="#ffffff"
     bordercolor="#666666"
     borderopacity="1"
     objecttolerance="10"
     gridtolerance="10"
     guidetolerance="10"
     inkscape:pageopacity="0"
     inkscape:pageshadow="2"
     inkscape:window-width="1304"
     inkscape:window-height="745"
     id="namedview4"
     showgrid="false"
     inkscape:zoom="0.32343249"
     inkscape:cx="1067.0676"
     inkscape:cy="2835.8444"
     inkscape:window-x="-8"
     inkscape:window-y="-8"
     inkscape:window-maximized="1"
     inkscape:current-layer="layer3" />
  <g
     inkscape:groupmode="layer"
     id="layer2"
     inkscape:label="artwork"
     sodipodi:insensitive="true">
    <image
       sodipodi:absref="E:\Projects\Pepper&amp;Carrot\peppercarrot_ep08_translation\hu\..\gfx_Pepper-and-Carrot_by-David-Revoy_E08P04.png"
       xlink:href="..\gfx_Pepper-and-Carrot_by-David-Revoy_E08P04.png"
       width="2481"
       height="3503"
       id="image10"
       x="0"
       y="0" />
  </g>
  <g
     inkscape:groupmode="layer"
     id="layer3"
     inkscape:label="speechbubbles">
    <path
       style="color:#000000;display:inline;overflow:visible;visibility:visible;fill:#ffffff;fill-opacity:1;fill-rule:nonzero;stroke:none;stroke-width:1px;marker:none;enable-background:accumulate"
       d="m 912.97293,440.58968 c 0.11799,-33.76631 42.89338,-65.56095 165.84417,-60.66235 65.8592,2.62392 161.7261,18.77677 162.1808,60.46715 0.9055,83.00989 -120.5313,62.40731 -152.7351,64.7296 -32.2771,2.32758 -97.63203,1.62709 -133.93757,-15.1594 -22.61455,-10.45621 -42.35627,-18.8926 -41.3523,-49.375 z"
       id="path4546-0-5"
       inkscape:connector-curvature="0"
       sodipodi:nodetypes="cssssc" />
    <path
       style="color:#000000;display:inline;overflow:visible;visibility:visible;fill:#ffffff;fill-opacity:1;fill-rule:nonzero;stroke:none;stroke-width:1px;marker:none;enable-background:accumulate"
       d="m 1128.6174,520.14236 c 0.115,-18.27017 41.8137,-75.95276 161.6696,-70.27769 64.2013,3.03982 152.8086,21.75865 153.4308,70.05155 0.8828,68.50897 -125.9961,66.44352 -147.5233,68.47455 -21.5273,2.03111 -91.0774,2.31248 -127.2657,-14.95622 -30.8466,-14.71963 -40.19,-28.40229 -40.3114,-53.29219 z"
       id="path4546"
       inkscape:connector-curvature="0"
       sodipodi:nodetypes="cssssc" />
    <flowRoot
       xml:space="preserve"
       id="flowRoot2987-4-9-3"
       style="font-style:normal;font-variant:normal;font-weight:normal;font-stretch:normal;font-size:12px;line-height:125%;font-family:Lavi;-inkscape-font-specification:Lavi;text-align:center;letter-spacing:0px;word-spacing:0px;text-anchor:middle;fill:#000000;fill-opacity:1;stroke:none"
       transform="translate(868.51012,226.367)"><flowRegion
         id="flowRegion2989-5-4-5"><rect
           id="rect2991-7-9-6"
           width="602.40173"
           height="310.73996"
           x="120.55251"
           y="265.53046"
           style="font-style:normal;font-variant:normal;font-weight:normal;font-stretch:normal;font-family:Lavi;-inkscape-font-specification:Lavi;text-align:center;text-anchor:middle" /></flowRegion><flowPara
         style="font-size:48px;text-align:center;text-anchor:middle"
         id="flowPara3013">eljönnek...</flowPara></flowRoot>    <path
       style="color:#000000;display:inline;overflow:visible;visibility:visible;fill:#ffffff;fill-opacity:1;fill-rule:nonzero;stroke:none;stroke-width:1px;marker:none;enable-background:accumulate"
       d="m 761.93652,373.54199 c 0.22829,-37.64305 82.98615,-73.08808 320.85998,-67.62706 127.4181,2.92518 312.8925,20.93255 313.7724,67.40945 1.7518,92.54036 -233.1928,69.57238 -295.4977,72.1613 -62.4469,2.59481 -188.88945,1.81389 -259.13007,-16.89988 -43.75253,-11.65671 -81.94699,-21.06168 -80.00461,-55.04381 z"
       id="path4546-0"
       inkscape:connector-curvature="0"
       sodipodi:nodetypes="cssssc" />
    <flowRoot
       xml:space="preserve"
       id="flowRoot2987-4-9-3-3"
       style="font-style:normal;font-variant:normal;font-weight:normal;font-stretch:normal;font-size:12px;line-height:155%;font-family:Lavi;-inkscape-font-specification:Lavi;text-align:center;letter-spacing:0px;word-spacing:0px;text-anchor:middle;fill:#000000;fill-opacity:1;stroke:none;"
       transform="translate(666.82807,71.806841)"><flowRegion
         id="flowRegion2989-5-4-5-3"><rect
           id="rect2991-7-9-6-8"
           width="602.40173"
           height="310.73996"
           x="120.55251"
           y="265.53046"
           style="font-style:normal;font-variant:normal;font-weight:normal;font-stretch:normal;line-height:155%;font-family:Lavi;-inkscape-font-specification:Lavi;text-align:center;text-anchor:middle;" /></flowRegion><flowPara
         style="font-size:48px;line-height:155%;text-align:center;text-anchor:middle;"
         id="flowPara3051">De biztos vagyok benne...</flowPara><flowPara
         style="font-size:48px;line-height:155%;text-align:center;text-anchor:middle;"
         id="flowPara3372"><flowSpan
   style="font-style:italic;font-variant:normal;font-weight:normal;font-stretch:normal;line-height:155%;font-family:Lavi;-inkscape-font-specification:'Lavi Italic';"
   id="flowSpan3350">biztosan</flowSpan>...</flowPara></flowRoot>    <path
       style="color:#000000;fill:#ffffff;fill-opacity:1;fill-rule:nonzero;stroke:none;stroke-width:1px;marker:none;visibility:visible;display:inline;overflow:visible;enable-background:accumulate"
       d="m 1390.4444,579.0932 c 18.7289,5.11471 39.3681,13.94076 42.3389,17.10636 2.9707,3.16561 3.5403,29.0288 9.435,31.36015 5.8946,2.33123 19.9529,-4.23421 23.181,-1.87166 3.2281,2.36253 6.9164,21.25493 11.735,22.7987 4.8187,1.54378 31.4537,-1.43509 33.8787,0.67009 2.425,2.10524 15.6258,13.41875 31.9608,19.09482 -24.538,-22.91551 -24.3587,-30.38519 -30.2534,-32.71645 -5.8946,-2.33133 -22.6507,1.59871 -27.2277,-2.08151 -4.577,-3.68014 -8.5227,-21.76961 -14.9476,-23.8279 -6.4248,-2.05835 -17.3175,1.53629 -17.3175,1.53629 1.5283,-6.15207 4.6076,-39.25886 -25.7157,-55.17241 -30.3235,-15.91365 -37.0675,23.10352 -37.0675,23.10352 z"
       id="path5050"
       inkscape:connector-curvature="0" />
  </g>
  <g
     inkscape:groupmode="layer"
     id="layer1"
     inkscape:label="txt" />
</svg>
