<?xml version="1.0" encoding="UTF-8" standalone="no"?>
<!-- Created with Inkscape (http://www.inkscape.org/) -->

<svg
   xmlns:dc="http://purl.org/dc/elements/1.1/"
   xmlns:cc="http://creativecommons.org/ns#"
   xmlns:rdf="http://www.w3.org/1999/02/22-rdf-syntax-ns#"
   xmlns:svg="http://www.w3.org/2000/svg"
   xmlns="http://www.w3.org/2000/svg"
   xmlns:xlink="http://www.w3.org/1999/xlink"
   xmlns:sodipodi="http://sodipodi.sourceforge.net/DTD/sodipodi-0.dtd"
   xmlns:inkscape="http://www.inkscape.org/namespaces/inkscape"
   id="svg2"
   version="1.1"
   inkscape:version="0.48.5 r10040"
   width="2481"
   height="3503"
   sodipodi:docname="Pepper-and-Carrot_by-David-Revoy_E08P05.svg">
  <metadata
     id="metadata8">
    <rdf:RDF>
      <cc:Work
         rdf:about="">
        <dc:format>image/svg+xml</dc:format>
        <dc:type
           rdf:resource="http://purl.org/dc/dcmitype/StillImage" />
        <dc:title />
      </cc:Work>
    </rdf:RDF>
  </metadata>
  <defs
     id="defs6">
    <filter
       color-interpolation-filters="sRGB"
       id="filter4375-4-1-1-15-1-3"
       inkscape:label="deevad outline effect">
      <feFlood
         id="feFlood4377-7-9-0-4-4-4"
         flood-opacity="0.90476190476190477"
         flood-color="rgb(250,62,62)"
         result="flood" />
      <feComposite
         id="feComposite4379-3-8-8-6-0-7"
         in2="SourceGraphic"
         in="flood"
         operator="in"
         result="composite1" />
      <feMorphology
         id="feMorphology4393-1-0-49-8-2-7"
         operator="dilate"
         radius="0.59999999999999998"
         result="result3" />
      <feComposite
         id="feComposite4385-9-5-7-2-1-2"
         in2="result3"
         in="SourceGraphic"
         operator="over"
         result="composite2" />
    </filter>
    <filter
       color-interpolation-filters="sRGB"
       id="filter4005"
       inkscape:label="deevad outline effect">
      <feFlood
         id="feFlood4007"
         flood-opacity="1"
         flood-color="rgb(0,0,0)"
         result="flood" />
      <feComposite
         id="feComposite4009"
         in2="SourceGraphic"
         in="flood"
         operator="in"
         result="composite1" />
      <feMorphology
         id="feMorphology4011"
         operator="dilate"
         radius="0.59999999999999998"
         result="result3" />
      <feComposite
         id="feComposite4013"
         in2="result3"
         in="SourceGraphic"
         operator="over"
         result="composite2" />
    </filter>
    <filter
       color-interpolation-filters="sRGB"
       id="filter4015"
       inkscape:label="deevad outline effect">
      <feFlood
         id="feFlood4017"
         flood-opacity="1"
         flood-color="rgb(0,0,0)"
         result="flood" />
      <feComposite
         id="feComposite4019"
         in2="SourceGraphic"
         in="flood"
         operator="in"
         result="composite1" />
      <feMorphology
         id="feMorphology4021"
         operator="dilate"
         radius="0.59999999999999998"
         result="result3" />
      <feComposite
         id="feComposite4023"
         in2="result3"
         in="SourceGraphic"
         operator="over"
         result="composite2" />
    </filter>
    <filter
       color-interpolation-filters="sRGB"
       id="filter4025"
       inkscape:label="deevad outline effect">
      <feFlood
         id="feFlood4027"
         flood-opacity="1"
         flood-color="rgb(0,0,0)"
         result="flood" />
      <feComposite
         id="feComposite4029"
         in2="SourceGraphic"
         in="flood"
         operator="in"
         result="composite1" />
      <feMorphology
         id="feMorphology4031"
         operator="dilate"
         radius="0.59999999999999998"
         result="result3" />
      <feComposite
         id="feComposite4033"
         in2="result3"
         in="SourceGraphic"
         operator="over"
         result="composite2" />
    </filter>
    <filter
       color-interpolation-filters="sRGB"
       id="filter4035"
       inkscape:label="deevad outline effect">
      <feFlood
         id="feFlood4037"
         flood-opacity="1"
         flood-color="rgb(0,0,0)"
         result="flood" />
      <feComposite
         id="feComposite4039"
         in2="SourceGraphic"
         in="flood"
         operator="in"
         result="composite1" />
      <feMorphology
         id="feMorphology4041"
         operator="dilate"
         radius="0.59999999999999998"
         result="result3" />
      <feComposite
         id="feComposite4043"
         in2="result3"
         in="SourceGraphic"
         operator="over"
         result="composite2" />
    </filter>
    <filter
       color-interpolation-filters="sRGB"
       id="filter4045"
       inkscape:label="deevad outline effect">
      <feFlood
         id="feFlood4047"
         flood-opacity="1"
         flood-color="rgb(0,0,0)"
         result="flood" />
      <feComposite
         id="feComposite4049"
         in2="SourceGraphic"
         in="flood"
         operator="in"
         result="composite1" />
      <feMorphology
         id="feMorphology4051"
         operator="dilate"
         radius="0.59999999999999998"
         result="result3" />
      <feComposite
         id="feComposite4053"
         in2="result3"
         in="SourceGraphic"
         operator="over"
         result="composite2" />
    </filter>
    <filter
       color-interpolation-filters="sRGB"
       id="filter4055"
       inkscape:label="deevad outline effect">
      <feFlood
         id="feFlood4057"
         flood-opacity="1"
         flood-color="rgb(0,0,0)"
         result="flood" />
      <feComposite
         id="feComposite4059"
         in2="SourceGraphic"
         in="flood"
         operator="in"
         result="composite1" />
      <feMorphology
         id="feMorphology4061"
         operator="dilate"
         radius="0.59999999999999998"
         result="result3" />
      <feComposite
         id="feComposite4063"
         in2="result3"
         in="SourceGraphic"
         operator="over"
         result="composite2" />
    </filter>
    <filter
       color-interpolation-filters="sRGB"
       id="filter4065"
       inkscape:label="deevad outline effect">
      <feFlood
         id="feFlood4067"
         flood-opacity="1"
         flood-color="rgb(0,0,0)"
         result="flood" />
      <feComposite
         id="feComposite4069"
         in2="SourceGraphic"
         in="flood"
         operator="in"
         result="composite1" />
      <feMorphology
         id="feMorphology4071"
         operator="dilate"
         radius="0.59999999999999998"
         result="result3" />
      <feComposite
         id="feComposite4073"
         in2="result3"
         in="SourceGraphic"
         operator="over"
         result="composite2" />
    </filter>
  </defs>
  <sodipodi:namedview
     pagecolor="#ffffff"
     bordercolor="#666666"
     borderopacity="1"
     objecttolerance="10"
     gridtolerance="10"
     guidetolerance="10"
     inkscape:pageopacity="0"
     inkscape:pageshadow="2"
     inkscape:window-width="1408"
     inkscape:window-height="855"
     id="namedview4"
     showgrid="false"
     inkscape:zoom="0.42532422"
     inkscape:cx="928.71859"
     inkscape:cy="1621.3774"
     inkscape:window-x="1"
     inkscape:window-y="0"
     inkscape:window-maximized="0"
     inkscape:current-layer="layer3"
     showguides="true"
     inkscape:guide-bbox="true">
    <sodipodi:guide
       orientation="1,0"
       position="102.49375,3567.4437"
       id="guide3066" />
    <sodipodi:guide
       orientation="0,1"
       position="438.07811,3402.1312"
       id="guide3068" />
  </sodipodi:namedview>
  <g
     inkscape:groupmode="layer"
     id="layer2"
     inkscape:label="artwork"
     sodipodi:insensitive="true">
    <image
       sodipodi:absref="/Users/gand/Documents/Pepper&amp;Carrot/peppercarrot_ep08_translation/it/../gfx_Pepper-and-Carrot_by-David-Revoy_E08P05.png"
       xlink:href="../gfx_Pepper-and-Carrot_by-David-Revoy_E08P05.png"
       width="2481"
       height="3503"
       id="image10"
       x="0"
       y="0" />
  </g>
  <g
     inkscape:groupmode="layer"
     id="layer3"
     inkscape:label="speechbubbles">
    <path
       style="color:#000000;fill:#ffffff;fill-opacity:1;fill-rule:nonzero;stroke:none;stroke-width:1px;marker:none;visibility:visible;display:inline;overflow:visible;enable-background:accumulate"
       d="m 1889.0397,1689.3949 c -18.4523,28.3798 -51.1226,88.4968 -53.6964,103.6923 24.9455,9.8716 63.3606,38.7994 61.4454,43.4826 -1.9154,4.6832 -64.3114,57.1793 -62.1183,64.6368 2.1932,7.4574 17.4097,29.1871 26.1857,34.615 -23.9099,-18.6352 -40.7903,-34.5159 -40.9424,-46.0736 -0.5159,-7.819 48.671,-48.3166 52.2072,-50.9091 -18.4319,-14.9363 -59.2654,-41.5126 -63.9461,-49.6536 1.5251,-11.9193 7.4437,-57.7273 34.6061,-108.1162 27.1625,-50.3889 46.2588,8.3258 46.2588,8.3258 z"
       id="path5901"
       inkscape:connector-curvature="0"
       sodipodi:nodetypes="ccccccccsc" />
    <path
       style="color:#000000;fill:#ffffff;fill-opacity:1;fill-rule:nonzero;stroke:none;stroke-width:1px;marker:none;visibility:visible;display:inline;overflow:visible;enable-background:accumulate"
       d="M 750.05428,530.36217 C 700.59655,469.80917 642.22347,418.26218 603.12416,347.24545 l -2.35887,68.85263 c -23.8951,-45.67033 -14.97277,-22.74002 -32.13583,-60.6902 l -20.2888,59.56502 C 532.31217,313.18701 518.95517,255.35532 511.7478,185.45489 L 393.99614,336.25283 c 53.91831,42.85658 113.68895,74.20676 161.02432,130.00583 l 18.17046,-37.70422 c 18.79567,16.32487 28.17649,24.0466 43.83446,45.69113 l 10.41812,-50.72454 z"
       id="path4032"
       inkscape:connector-curvature="0"
       sodipodi:nodetypes="cccccccccccc" />
    <path
       style="color:#000000;fill:#ffffff;fill-opacity:1;fill-rule:nonzero;stroke:none;stroke-width:1px;marker:none;visibility:visible;display:inline;overflow:visible;enable-background:accumulate"
       d="m 116.87621,81.268649 -16.16782,-2.618442 3.80421,24.438733 C 78.930439,104.41503 65.601602,96.744774 47.450199,92.615219 l 28.531141,31.421031 -4.755168,8.72813 c 4.632152,5.10336 11.621637,8.58408 13.314546,15.71059 -12.923181,4.44102 -22.214674,4.43807 -32.902146,6.14331 10.056188,5.902 18.428489,12.73108 24.342768,20.91372 l -34.23739,13.96486 31.382186,12.21739 c -23.604703,20.09013 -53.272771,32.76061 -80.8363082,48.0065 l 97.9571492,-6.98257 -15.216585,15.71057 c 9.790738,8.17692 8.925507,4.12945 13.314546,6.10973 2.137391,5.88455 -33.674897,30.35178 -30.433312,27.92988 3.80422,-0.87286 36.139571,-4.36415 36.139571,-4.36415 0,0 -28.531284,24.43872 -24.727064,24.43872 3.804078,0 35.188467,-6.1097 35.188467,-6.1097 l -10.461403,23.56587 -20.450279,9.61607 -28.105925,26.57679 c 10.639766,-1.7238 15.673384,1.30775 11.890677,11.49648 -25.59967,36.27938 9.328864,67.8904 15.608153,80.24169 60.438267,-67.82824 60.669997,-73.37239 81.999247,-88.34837 20.10336,15.16219 20.85822,14.17501 35.11323,38.09725 10.29109,-15.49522 22.17445,-21.7038 38.04161,-30.54831 4.95231,9.14413 4.98548,11.26291 6.65735,20.94743 5.17405,-7.29412 7.46852,-13.636 28.53113,-26.18429 0.73962,11.45703 0.65112,11.04814 0,27.05716 21.57399,-19.38145 21.28204,-19.30883 37.09067,-31.42118 4.15657,49.82709 7.2487,68.56497 8.2879,113.20231 18.23218,-30.04935 29.36353,-53.36001 56.3828,-97.49172 5.42211,15.09443 5.94804,18.5336 3.71704,36.86599 8.36318,-14.89719 8.92118,-19.21894 18.15703,-34.24756 6.19715,8.26907 5.84779,17.83705 2.85313,27.92988 5.83602,-13.01294 10.1501,-26.27754 26.6291,-37.53074 16.77146,8.83803 17.40227,21.67917 19.9719,34.03946 -0.81301,-15.79604 5.06721,-26.61202 19.02079,-31.42103 31.69436,24.90864 73.10415,26.54674 88.58786,59.23456 -6.00565,-34.38705 -34.45587,-38.97049 -22.96605,-69.70828 10.77845,-2.76747 21.5569,2.76785 32.33536,10.47372 l -0.77489,-35.07239 39.94378,14.88867 -23.00123,-24.32959 c 16.59728,-2.5946 41.29282,4.87851 62.76882,8.72814 l -11.41251,-23.56586 c 9.68271,0.88082 26.18443,10.11991 41.84582,18.32901 -19.24411,-22.5426 -35.43209,-37.43738 -34.23753,-58.47819 l 43.74788,4.36402 c -17.14333,-15.6887 -38.68205,-27.34353 -50.67593,-47.75793 l 38.31245,-1.99212 -36.13957,-26.1843 28.53114,-14.83772 -22.82487,-3.49129 38.0416,-31.42103 -50.40521,-2.61842 60.86663,-56.732607 -65.51328,-4.533267 0.84244,-24.269334 -38.99257,29.675456 38.99257,-102.9913631 C 581.8155,33.445424 557.54124,62.946636 514.82295,89.493796 l -13.73281,-10.342503 -15.21006,5.356122 3.80407,-29.422947 -56.11132,35.785041 5.70624,-16.583299 -17.11875,15.710578 3.80408,-21.820285 -29.48223,26.184292 2.71443,-22.814314 -14.12694,14.95902 -4.35007,-14.334731 -16.57278,9.097879 c -4.98663,-37.821695 3.58177,-75.6433889 9.51033,-113.465081 -19.4575,43.296937 -44.16779,82.461895 -77.0343,115.210781 L 286.1614,66.436909 273.11758,81.765792 259.9417,61.95147 240.10419,85.628836 c -15.68741,-18.038068 -24.824,-29.089731 -30.9771,-47.127791 3.03454,16.905432 5.24085,28.261927 0.8145,46.879092 C 152.03126,56.876764 153.76494,54.33495 132.0928,38.501045 126.15425,58.852839 120.23635,65.629086 116.87621,81.268649 z"
       id="path4024"
       inkscape:connector-curvature="0"
       sodipodi:nodetypes="cccccccccccccccccsccccccccccccccccccccccccccccccccccccccccccccccccccccccccccccccccccc" />
    <flowRoot
       xml:space="preserve"
       id="flowRoot2987-4-9-3"
       style="font-size:12px;font-style:normal;font-variant:normal;font-weight:normal;font-stretch:normal;text-align:center;line-height:125%;letter-spacing:0px;word-spacing:0px;text-anchor:middle;fill:#000000;fill-opacity:1;stroke:none;font-family:Lavi;-inkscape-font-specification:Lavi"
       transform="translate(-53.025188,-112.88729)"><flowRegion
         id="flowRegion2989-5-4-5"><rect
           id="rect2991-7-9-6"
           width="602.40173"
           height="310.73996"
           x="120.55251"
           y="265.53046"
           style="font-style:normal;font-variant:normal;font-weight:normal;font-stretch:normal;text-align:center;text-anchor:middle;font-family:Lavi;-inkscape-font-specification:Lavi" /></flowRegion><flowPara
         style="font-size:48px;text-align:center;text-anchor:middle"
         id="flowPara3362">Come hanno osato</flowPara><flowPara
         style="font-size:48px;text-align:center;text-anchor:middle"
         id="flowPara3070">farmi questo ?!!</flowPara><flowPara
         style="font-size:48px;text-align:center;text-anchor:middle"
         id="flowPara3011">A        !!!</flowPara></flowRoot>    <flowRoot
       xml:space="preserve"
       id="flowRoot2987-4-9-3-0"
       style="font-size:12px;font-style:normal;font-variant:normal;font-weight:normal;font-stretch:normal;text-align:center;line-height:125%;letter-spacing:0px;word-spacing:0px;text-anchor:middle;fill:#000000;fill-opacity:1;stroke:none;font-family:Lavi;-inkscape-font-specification:Lavi"
       transform="matrix(1.2147869,0,0,1.2147869,-144.95955,-59.063793)"><flowRegion
         id="flowRegion2989-5-4-5-1"><rect
           id="rect2991-7-9-6-4"
           width="602.40173"
           height="310.73996"
           x="120.55251"
           y="265.53046"
           style="font-style:normal;font-variant:normal;font-weight:normal;font-stretch:normal;text-align:center;text-anchor:middle;font-family:Lavi;-inkscape-font-specification:Lavi" /></flowRegion><flowPara
         style="font-size:48px;font-style:italic;font-weight:bold;text-align:center;letter-spacing:1.5px;text-anchor:middle;stroke:#000000;stroke-width:3.15775537;stroke-miterlimit:4;stroke-opacity:1;stroke-dasharray:none;-inkscape-font-specification:Lavi Bold Italic"
         id="flowPara3030-8-7">me</flowPara></flowRoot>    <flowRoot
       xml:space="preserve"
       id="flowRoot3805"
       style="font-size:12px;font-style:normal;font-variant:normal;font-weight:normal;font-stretch:normal;line-height:125%;letter-spacing:0px;word-spacing:0px;fill:#000000;fill-opacity:1;stroke:none;font-family:Arial;-inkscape-font-specification:Arial"><flowRegion
         id="flowRegion3807"><rect
           id="rect3809"
           width="371.73911"
           height="402.17389"
           x="1565.2173"
           y="587.78271" /></flowRegion><flowPara
         id="flowPara3811" /></flowRoot>    <flowRoot
       xml:space="preserve"
       id="flowRoot2987-4-9-3-8"
       style="font-size:12px;font-style:normal;font-variant:normal;font-weight:normal;font-stretch:normal;text-align:center;line-height:125%;letter-spacing:0px;word-spacing:0px;text-anchor:middle;opacity:0.8465116;fill:#aa7655;fill-opacity:1;stroke:none;font-family:Lavi;-inkscape-font-specification:Lavi"
       transform="matrix(0.94719422,-0.22266421,0.23893864,1.026553,1394.9943,-38.907074)"><flowRegion
         id="flowRegion2989-5-4-5-4"><rect
           id="rect2991-7-9-6-3"
           width="602.40173"
           height="310.73996"
           x="120.55251"
           y="265.53046"
           style="font-style:normal;font-variant:normal;font-weight:normal;font-stretch:normal;text-align:center;text-anchor:middle;fill:#aa7655;fill-opacity:1;font-family:Lavi;-inkscape-font-specification:Lavi" /></flowRegion><flowPara
         style="font-size:48px;font-style:normal;font-variant:normal;font-weight:normal;font-stretch:normal;text-align:center;text-anchor:middle;fill:#aa7655;fill-opacity:1;font-family:RoboKoz;-inkscape-font-specification:RoboKoz"
         id="flowPara3030-8-2">Incamtesimi</flowPara><flowPara
         style="font-size:48px;font-style:normal;font-variant:normal;font-weight:normal;font-stretch:normal;text-align:center;text-anchor:middle;fill:#aa7655;fill-opacity:1;font-family:RoboKoz;-inkscape-font-specification:RoboKoz"
         id="flowPara3828">per Demoni </flowPara><flowPara
         style="font-size:48px;font-style:normal;font-variant:normal;font-weight:normal;font-stretch:normal;text-align:center;text-anchor:middle;fill:#aa7655;fill-opacity:1;font-family:RoboKoz;-inkscape-font-specification:RoboKoz"
         id="flowPara3069">CHAOSAH</flowPara><flowPara
         style="font-size:48px;font-style:normal;font-variant:normal;font-weight:normal;font-stretch:normal;text-align:center;text-anchor:middle;fill:#aa7655;fill-opacity:1;font-family:RoboKoz;-inkscape-font-specification:RoboKoz"
         id="flowPara3830">Vol .1</flowPara></flowRoot>    <path
       style="fill:#ffffff;fill-opacity:1;stroke:none"
       d="m 1497.2542,1603.9485 c 35.1251,6.4777 48.6344,12.4927 42.3299,16.1943 14.4102,1.8508 19.8141,49.971 6.3045,58.7621 -0.9006,0.9256 -7.2052,3.7017 -4.5032,4.1644 2.7018,0.4626 18.9134,-0.9253 21.6154,0.9254 2.7018,1.8508 -24.3174,28.2244 -20.7148,29.1497 3.6026,0.9254 86.4612,-16.657 98.1694,-12.4927 11.7084,4.1643 5.404,14.8062 9.0064,15.269 3.6025,0.4626 36.9263,-2.3135 41.4296,-1.8509 4.5028,0.4628 16.1404,11.0929 17.1117,14.8062 3.9631,-2.5174 25.2179,-6.0149 28.8205,-5.5522 3.6027,0.4627 6.0897,9.7952 6.3043,12.4926 3.4944,-2.5847 24.3173,-9.7164 27.0194,-9.2539 2.7016,0.4628 14.3748,18.9249 17.1118,24.9855 4.2512,-3.894 33.3235,-25.448 36.0256,-25.9108 2.7019,-0.4627 19.8139,31.4632 23.4167,31.926 3.6026,0.4627 21.6152,-21.7468 24.3172,-21.2841 2.7019,0.4627 19.814,13.4183 23.4163,14.3436 3.6028,0.9253 27.0194,-28.687 30.6215,-28.687 3.6029,0 34.2245,12.4927 36.9266,14.8061 2.7019,2.3135 5.4035,-12.0301 9.0062,-12.0301 3.6025,0 45.0318,8.3286 45.9326,7.8659 0.9004,-0.4627 -6.3046,-9.2538 -3.6026,-9.2538 45.714,5.1423 102.4795,12.31 145.0024,18.9704 -17.623,-11.6279 -40.5286,-37.9409 -36.0257,-40.717 4.5033,-2.7763 20.7149,0.4626 21.6157,-0.9255 0.9006,-1.388 -9.9071,-7.403 -7.2053,-9.2539 2.702,-1.8507 36.0256,-11.5673 36.0256,-11.5673 0,0 -13.5096,-8.3286 -9.9072,-9.7167 3.6027,-1.3881 38.3775,-11.1331 57.6411,-12.4927 -7.4463,-2.075 -27.0191,-13.418 -23.4168,-16.657 3.6027,-3.2388 5.4411,-4.15 12.6089,-6.9404 -3.4047,-1.3597 -18.0128,-5.0896 -17.112,-7.4031 0.9008,-2.3135 9.907,-13.8809 12.6089,-15.7316 2.702,-1.8508 -18.9134,-0.9254 -18.9134,-2.7762 0,-1.8508 -4.0368,-17.5936 71.8269,-45.9453 -101.0823,14.5795 -135.7686,3.2987 -165.4894,-0.4028 -29.7214,-3.7016 -12.1585,-14.7601 -4.5067,-26.2949 -17.3442,6.6425 -38.7842,9.6238 -42.3303,4.6269 -4.5029,-3.2388 -4.7226,-2.0196 -9.9069,-9.2539 -18.1229,9.8474 -24.3172,12.9554 -28.8202,12.4928 -4.5033,-0.4627 -39.1541,-7.3837 -53.1378,-21.284 -17.8229,9.6841 -30.6216,7.8659 -36.0256,8.3285 -5.4039,0.4627 -8.627,-3.426 -14.41,-10.1792 -4.5033,0.9253 -33.3236,9.2539 -37.8266,8.3284 -4.5034,-0.9253 -4.2663,0.8579 -11.7086,-3.7014 -3.6022,0.9253 -19.8138,4.6269 -19.8138,4.6269 0,0 -10.2567,1.993 -17.1122,-2.7762 -15.0812,10.7828 -37.7329,14.0247 -46.8329,16.1943 -8.3743,-3.0146 -43.2306,-35.1648 -40.5286,-37.941 2.7019,-2.7762 -40.529,38.4037 -46.8333,39.7918 -6.3044,1.388 -18.8186,1.6116 -27.0191,-1.3881 -1.8016,1.3881 -7.2052,8.7911 -12.6091,9.2539 -5.4037,0.4626 -18.0125,2.3133 -18.0125,2.3133 l 1.8011,2.7763 c 0,0 -37.8266,-7.4031 -42.3301,-10.1793 -4.503,-2.7761 2.7021,12.03 5.404,15.7316 -16.2111,-3.7016 -63.9452,-11.5674 -67.5473,-13.8809 -3.6029,-2.3134 6.3039,8.3286 11.7078,11.5674 -7.2049,-1.3881 -13.5096,-1.8507 -13.5096,-1.8507 l 20.7148,11.1046 -6.3044,0.9255 c 0,0 13.5094,5.0896 13.5094,7.4031 0,2.3135 -35.1248,5.0896 -35.1248,5.0896 0,0 14.4103,4.1642 10.8077,6.4777 -3.6027,2.3135 -12.6088,3.7015 -12.6088,3.7015 l -1.8013,6.0151 z"
       id="path5888"
       inkscape:connector-curvature="0"
       sodipodi:nodetypes="ccccccscccscccccscscsccccscccccccsscscccccccccccccccccccccccccsccccc" />
    <flowRoot
       xml:space="preserve"
       id="flowRoot2987-4-9-3-7"
       style="font-size:12px;font-style:normal;font-variant:normal;font-weight:normal;font-stretch:normal;text-align:center;line-height:125%;letter-spacing:0px;word-spacing:0px;text-anchor:middle;fill:#000000;fill-opacity:1;stroke:none;font-family:Lavi;-inkscape-font-specification:Lavi"
       transform="translate(1438.7362,1306.9683)"><flowRegion
         id="flowRegion2989-5-4-5-6"><rect
           id="rect2991-7-9-6-7"
           width="602.40173"
           height="310.73996"
           x="120.55251"
           y="265.53046"
           style="font-style:normal;font-variant:normal;font-weight:normal;font-stretch:normal;text-align:center;text-anchor:middle;font-family:Lavi;-inkscape-font-specification:Lavi" /></flowRegion><flowPara
         style="font-size:48px;text-align:center;text-anchor:middle"
         id="flowPara3074">... dal momento che non posso contare su di loro...</flowPara></flowRoot>    <flowRoot
       xml:space="preserve"
       id="flowRoot4133-6-9-4-8-5"
       style="font-size:12px;font-style:normal;font-variant:normal;font-weight:normal;font-stretch:normal;line-height:125%;letter-spacing:0.00204969px;word-spacing:0px;color:#000000;fill:#ffffff;fill-opacity:1;fill-rule:nonzero;stroke:#ffffff;stroke-width:0.0836072;stroke-linecap:butt;stroke-linejoin:miter;stroke-miterlimit:4;stroke-opacity:1;stroke-dasharray:none;stroke-dashoffset:0;marker:none;visibility:visible;display:inline;overflow:visible;filter:url(#filter4375-4-1-1-15-1-3);enable-background:accumulate;font-family:Arial;-inkscape-font-specification:Arial"
       transform="matrix(10.283923,-1.1779802,-12.443827,20.606946,2168.326,-18000.295)"><flowRegion
         id="flowRegion4135-2-9-3-5-2"
         style="stroke-width:0.86646658"><rect
           id="rect4137-1-7-1-2-1"
           width="92.489304"
           height="30.687002"
           x="1125.3193"
           y="1078.5308"
           style="letter-spacing:0.00204969px;color:#000000;fill:#ffffff;fill-opacity:1;fill-rule:nonzero;stroke:#ffffff;stroke-width:0.0836072;stroke-linecap:butt;stroke-linejoin:miter;stroke-miterlimit:4;stroke-opacity:1;stroke-dasharray:none;stroke-dashoffset:0;marker:none;visibility:visible;display:inline;overflow:visible;filter:url(#filter4375-4-1-1-15-1-3);enable-background:accumulate" /></flowRegion><flowPara
         id="flowPara4139-2-8-6-8-6"
         style="font-style:normal;font-variant:normal;font-weight:normal;font-stretch:normal;line-height:125%;letter-spacing:0.00204969px;word-spacing:0.00204969px;color:#000000;fill:#ffffff;fill-opacity:1;fill-rule:nonzero;stroke:#ffffff;stroke-width:0.0836072;stroke-linecap:butt;stroke-linejoin:miter;stroke-miterlimit:4;stroke-opacity:1;stroke-dasharray:none;stroke-dashoffset:0;marker:none;visibility:visible;display:inline;overflow:visible;filter:url(#filter4375-4-1-1-15-1-3);enable-background:accumulate;font-family:Lavi;-inkscape-font-specification:Lavi"><flowSpan
   id="flowSpan4821"
   style="font-size:7.13246202px;color:#000000;fill:#ffffff;fill-opacity:1;fill-rule:nonzero;stroke:#ffffff;stroke-width:0.0836072;stroke-linecap:butt;stroke-linejoin:miter;stroke-miterlimit:4;stroke-opacity:1;stroke-dasharray:none;stroke-dashoffset:0;marker:none;visibility:visible;display:inline;overflow:visible;filter:url(#filter4375-4-1-1-15-1-3);enable-background:accumulate">D</flowSpan><flowSpan
   id="flowSpan4823"
   style="font-size:8.55645752px;color:#000000;fill:#ffffff;fill-opacity:1;fill-rule:nonzero;stroke:#ffffff;stroke-width:0.0836072;stroke-linecap:butt;stroke-linejoin:miter;stroke-miterlimit:4;stroke-opacity:1;stroke-dasharray:none;stroke-dashoffset:0;marker:none;visibility:visible;display:inline;overflow:visible;filter:url(#filter4375-4-1-1-15-1-3);enable-background:accumulate">Z</flowSpan><flowSpan
   style="font-size:9.90925312px;color:#000000;fill:#ffffff;fill-opacity:1;fill-rule:nonzero;stroke:#ffffff;stroke-width:0.0836072;stroke-linecap:butt;stroke-linejoin:miter;stroke-miterlimit:4;stroke-opacity:1;stroke-dasharray:none;stroke-dashoffset:0;marker:none;visibility:visible;display:inline;overflow:visible;filter:url(#filter4375-4-1-1-15-1-3);enable-background:accumulate"
   id="flowSpan4271-5">Z</flowSpan>ZO<flowSpan
   id="flowSpan4277-2"
   style="font-size:17.85409164px;color:#000000;fill:#ffffff;fill-opacity:1;fill-rule:nonzero;stroke:#ffffff;stroke-width:0.0836072;stroke-linecap:butt;stroke-linejoin:miter;stroke-miterlimit:4;stroke-opacity:1;stroke-dasharray:none;stroke-dashoffset:0;marker:none;visibility:visible;display:inline;overflow:visible;filter:url(#filter4375-4-1-1-15-1-3);enable-background:accumulate">O<flowSpan
   style="font-size:20.70208168px"
   id="flowSpan4005">O</flowSpan></flowSpan></flowPara></flowRoot>    <text
       xml:space="preserve"
       style="font-size:40px;font-style:normal;font-weight:normal;line-height:125%;letter-spacing:0px;word-spacing:0px;fill:#000000;fill-opacity:1;stroke:none;font-family:Sans"
       x="472.33951"
       y="266.25055"
       id="text3358"
       sodipodi:linespacing="125%"><tspan
         sodipodi:role="line"
         id="tspan3360"
         x="472.33951"
         y="266.25055" /></text>
  </g>
  <g
     inkscape:groupmode="layer"
     id="layer1"
     inkscape:label="txt" />
</svg>
