<?xml version="1.0" encoding="UTF-8" standalone="no"?>
<!-- Created with Inkscape (http://www.inkscape.org/) -->

<svg
   xmlns:dc="http://purl.org/dc/elements/1.1/"
   xmlns:cc="http://creativecommons.org/ns#"
   xmlns:rdf="http://www.w3.org/1999/02/22-rdf-syntax-ns#"
   xmlns:svg="http://www.w3.org/2000/svg"
   xmlns="http://www.w3.org/2000/svg"
   xmlns:xlink="http://www.w3.org/1999/xlink"
   xmlns:sodipodi="http://sodipodi.sourceforge.net/DTD/sodipodi-0.dtd"
   xmlns:inkscape="http://www.inkscape.org/namespaces/inkscape"
   id="svg2"
   version="1.1"
   inkscape:version="0.91 r"
   width="2481"
   height="3503"
   sodipodi:docname="Pepper-and-Carrot_by-David-Revoy_E08P05.svg">
  <metadata
     id="metadata8">
    <rdf:RDF>
      <cc:Work
         rdf:about="">
        <dc:format>image/svg+xml</dc:format>
        <dc:type
           rdf:resource="http://purl.org/dc/dcmitype/StillImage" />
        <dc:title />
      </cc:Work>
    </rdf:RDF>
  </metadata>
  <defs
     id="defs6">
    <filter
       color-interpolation-filters="sRGB"
       id="filter4375-4-1-1-15-1-3"
       inkscape:label="deevad outline effect">
      <feFlood
         id="feFlood4377-7-9-0-4-4-4"
         flood-opacity="0.90476190476190477"
         flood-color="rgb(250,62,62)"
         result="flood" />
      <feComposite
         id="feComposite4379-3-8-8-6-0-7"
         in2="SourceGraphic"
         in="flood"
         operator="in"
         result="composite1" />
      <feMorphology
         id="feMorphology4393-1-0-49-8-2-7"
         operator="dilate"
         radius="0.59999999999999998"
         result="result3" />
      <feComposite
         id="feComposite4385-9-5-7-2-1-2"
         in2="result3"
         in="SourceGraphic"
         operator="over"
         result="composite2" />
    </filter>
    <filter
       color-interpolation-filters="sRGB"
       id="filter4005"
       inkscape:label="deevad outline effect">
      <feFlood
         id="feFlood4007"
         flood-opacity="1"
         flood-color="rgb(0,0,0)"
         result="flood" />
      <feComposite
         id="feComposite4009"
         in2="SourceGraphic"
         in="flood"
         operator="in"
         result="composite1" />
      <feMorphology
         id="feMorphology4011"
         operator="dilate"
         radius="0.59999999999999998"
         result="result3" />
      <feComposite
         id="feComposite4013"
         in2="result3"
         in="SourceGraphic"
         operator="over"
         result="composite2" />
    </filter>
    <filter
       color-interpolation-filters="sRGB"
       id="filter4015"
       inkscape:label="deevad outline effect">
      <feFlood
         id="feFlood4017"
         flood-opacity="1"
         flood-color="rgb(0,0,0)"
         result="flood" />
      <feComposite
         id="feComposite4019"
         in2="SourceGraphic"
         in="flood"
         operator="in"
         result="composite1" />
      <feMorphology
         id="feMorphology4021"
         operator="dilate"
         radius="0.59999999999999998"
         result="result3" />
      <feComposite
         id="feComposite4023"
         in2="result3"
         in="SourceGraphic"
         operator="over"
         result="composite2" />
    </filter>
    <filter
       color-interpolation-filters="sRGB"
       id="filter4025"
       inkscape:label="deevad outline effect">
      <feFlood
         id="feFlood4027"
         flood-opacity="1"
         flood-color="rgb(0,0,0)"
         result="flood" />
      <feComposite
         id="feComposite4029"
         in2="SourceGraphic"
         in="flood"
         operator="in"
         result="composite1" />
      <feMorphology
         id="feMorphology4031"
         operator="dilate"
         radius="0.59999999999999998"
         result="result3" />
      <feComposite
         id="feComposite4033"
         in2="result3"
         in="SourceGraphic"
         operator="over"
         result="composite2" />
    </filter>
    <filter
       color-interpolation-filters="sRGB"
       id="filter4035"
       inkscape:label="deevad outline effect">
      <feFlood
         id="feFlood4037"
         flood-opacity="1"
         flood-color="rgb(0,0,0)"
         result="flood" />
      <feComposite
         id="feComposite4039"
         in2="SourceGraphic"
         in="flood"
         operator="in"
         result="composite1" />
      <feMorphology
         id="feMorphology4041"
         operator="dilate"
         radius="0.59999999999999998"
         result="result3" />
      <feComposite
         id="feComposite4043"
         in2="result3"
         in="SourceGraphic"
         operator="over"
         result="composite2" />
    </filter>
    <filter
       color-interpolation-filters="sRGB"
       id="filter4045"
       inkscape:label="deevad outline effect">
      <feFlood
         id="feFlood4047"
         flood-opacity="1"
         flood-color="rgb(0,0,0)"
         result="flood" />
      <feComposite
         id="feComposite4049"
         in2="SourceGraphic"
         in="flood"
         operator="in"
         result="composite1" />
      <feMorphology
         id="feMorphology4051"
         operator="dilate"
         radius="0.59999999999999998"
         result="result3" />
      <feComposite
         id="feComposite4053"
         in2="result3"
         in="SourceGraphic"
         operator="over"
         result="composite2" />
    </filter>
    <filter
       color-interpolation-filters="sRGB"
       id="filter4055"
       inkscape:label="deevad outline effect">
      <feFlood
         id="feFlood4057"
         flood-opacity="1"
         flood-color="rgb(0,0,0)"
         result="flood" />
      <feComposite
         id="feComposite4059"
         in2="SourceGraphic"
         in="flood"
         operator="in"
         result="composite1" />
      <feMorphology
         id="feMorphology4061"
         operator="dilate"
         radius="0.59999999999999998"
         result="result3" />
      <feComposite
         id="feComposite4063"
         in2="result3"
         in="SourceGraphic"
         operator="over"
         result="composite2" />
    </filter>
    <filter
       color-interpolation-filters="sRGB"
       id="filter4065"
       inkscape:label="deevad outline effect">
      <feFlood
         id="feFlood4067"
         flood-opacity="1"
         flood-color="rgb(0,0,0)"
         result="flood" />
      <feComposite
         id="feComposite4069"
         in2="SourceGraphic"
         in="flood"
         operator="in"
         result="composite1" />
      <feMorphology
         id="feMorphology4071"
         operator="dilate"
         radius="0.59999999999999998"
         result="result3" />
      <feComposite
         id="feComposite4073"
         in2="result3"
         in="SourceGraphic"
         operator="over"
         result="composite2" />
    </filter>
    <filter
       id="filter3071"
       inkscape:label="Diffuse light"
       inkscape:menu="ABCs"
       inkscape:menu-tooltip="Basic diffuse bevel to use for building textures"
       color-interpolation-filters="sRGB">
      <feGaussianBlur
         id="feGaussianBlur3073"
         stdDeviation="6"
         in="SourceGraphic"
         result="result0" />
      <feDiffuseLighting
         id="feDiffuseLighting3075"
         diffuseConstant="1"
         surfaceScale="10"
         result="result5">
        <feDistantLight
           id="feDistantLight3077"
           elevation="25"
           azimuth="235" />
      </feDiffuseLighting>
      <feComposite
         id="feComposite3079"
         in2="SourceGraphic"
         k1="1"
         in="result5"
         result="result4"
         operator="arithmetic"
         k2="0"
         k3="0.6" />
    </filter>
  </defs>
  <sodipodi:namedview
     pagecolor="#ffffff"
     bordercolor="#666666"
     borderopacity="1"
     objecttolerance="10"
     gridtolerance="10"
     guidetolerance="10"
     inkscape:pageopacity="0"
     inkscape:pageshadow="2"
     inkscape:window-width="1366"
     inkscape:window-height="711"
     id="namedview4"
     showgrid="false"
     inkscape:zoom="0.26125321"
     inkscape:cx="2019.8323"
     inkscape:cy="2436.3749"
     inkscape:window-x="0"
     inkscape:window-y="30"
     inkscape:window-maximized="1"
     inkscape:current-layer="layer3"
     showguides="true"
     inkscape:guide-bbox="true">
    <sodipodi:guide
       orientation="1,0"
       position="102.49375,3567.4437"
       id="guide3066" />
    <sodipodi:guide
       orientation="0,1"
       position="438.07811,3402.1312"
       id="guide3068" />
  </sodipodi:namedview>
  <g
     inkscape:groupmode="layer"
     id="layer2"
     inkscape:label="artwork"
     sodipodi:insensitive="true">
    <image
       sodipodi:absref="/home/nightmare/Projects/peppercarrot_ep08_translation/uk/../gfx_Pepper-and-Carrot_by-David-Revoy_E08P05.png"
       xlink:href="../gfx_Pepper-and-Carrot_by-David-Revoy_E08P05.png"
       width="2481"
       height="3503"
       id="image10"
       x="0"
       y="0" />
  </g>
  <g
     inkscape:groupmode="layer"
     id="layer3"
     inkscape:label="speechbubbles">
    <path
       style="color:#000000;fill:#ffffff;fill-opacity:1;fill-rule:nonzero;stroke:none;stroke-width:1px;marker:none;visibility:visible;display:inline;overflow:visible;enable-background:accumulate"
       d="m 1889.0397,1689.3949 c -18.4523,28.3798 -51.1226,88.4968 -53.6964,103.6923 24.9455,9.8716 63.3606,38.7994 61.4454,43.4826 -1.9154,4.6832 -64.3114,57.1793 -62.1183,64.6368 2.1932,7.4574 17.4097,29.1871 26.1857,34.615 -23.9099,-18.6352 -40.7903,-34.5159 -40.9424,-46.0736 -0.5159,-7.819 48.671,-48.3166 52.2072,-50.9091 -18.4319,-14.9363 -59.2654,-41.5126 -63.9461,-49.6536 1.5251,-11.9193 7.4437,-57.7273 34.6061,-108.1162 27.1625,-50.3889 46.2588,8.3258 46.2588,8.3258 z"
       id="path5901"
       inkscape:connector-curvature="0"
       sodipodi:nodetypes="ccccccccsc" />
    <path
       style="color:#000000;fill:#ffffff;fill-opacity:1;fill-rule:nonzero;stroke:none;stroke-width:1px;marker:none;visibility:visible;display:inline;overflow:visible;enable-background:accumulate"
       d="M 750.05428,530.36217 C 700.59655,469.80917 642.22347,418.26218 603.12416,347.24545 l -2.35887,68.85263 c -23.8951,-45.67033 -14.97277,-22.74002 -32.13583,-60.6902 l -20.2888,59.56502 C 532.31217,313.18701 518.95517,255.35532 511.7478,185.45489 L 393.99614,336.25283 c 53.91831,42.85658 113.68895,74.20676 161.02432,130.00583 l 18.17046,-37.70422 c 18.79567,16.32487 28.17649,24.0466 43.83446,45.69113 l 10.41812,-50.72454 z"
       id="path4032"
       inkscape:connector-curvature="0"
       sodipodi:nodetypes="cccccccccccc" />
    <path
       style="color:#000000;fill:#ffffff;fill-opacity:1;fill-rule:nonzero;stroke:none;stroke-width:1px;marker:none;visibility:visible;display:inline;overflow:visible;enable-background:accumulate"
       d="m 116.87621,81.268649 -16.16782,-2.618442 3.80421,24.438733 C 78.930439,104.41503 65.601602,96.744774 47.450199,92.615219 l 28.531141,31.421031 -4.755168,8.72813 c 4.632152,5.10336 11.621637,8.58408 13.314546,15.71059 -12.923181,4.44102 -22.214674,4.43807 -32.902146,6.14331 10.056188,5.902 18.428489,12.73108 24.342768,20.91372 l -34.23739,13.96486 31.382186,12.21739 c -23.604703,20.09013 -53.272771,32.76061 -80.8363082,48.0065 l 97.9571492,-6.98257 -15.216585,15.71057 c 9.790738,8.17692 8.925507,4.12945 13.314546,6.10973 2.137391,5.88455 -33.674897,30.35178 -30.433312,27.92988 3.80422,-0.87286 36.139571,-4.36415 36.139571,-4.36415 0,0 -28.531284,24.43872 -24.727064,24.43872 3.804078,0 35.188467,-6.1097 35.188467,-6.1097 l -10.461403,23.56587 -20.450279,9.61607 -28.105925,26.57679 c 10.639766,-1.7238 15.673384,1.30775 11.890677,11.49648 -25.59967,36.27938 9.328864,67.8904 15.608153,80.24169 60.438267,-67.82824 60.669997,-73.37239 81.999247,-88.34837 20.10336,15.16219 20.85822,14.17501 35.11323,38.09725 10.29109,-15.49522 22.17445,-21.7038 38.04161,-30.54831 4.95231,9.14413 4.98548,11.26291 6.65735,20.94743 5.17405,-7.29412 7.46852,-13.636 28.53113,-26.18429 0.73962,11.45703 0.65112,11.04814 0,27.05716 21.57399,-19.38145 21.28204,-19.30883 37.09067,-31.42118 4.15657,49.82709 7.2487,68.56497 8.2879,113.20231 18.23218,-30.04935 29.36353,-53.36001 56.3828,-97.49172 5.42211,15.09443 5.94804,18.5336 3.71704,36.86599 8.36318,-14.89719 8.92118,-19.21894 18.15703,-34.24756 6.19715,8.26907 5.84779,17.83705 2.85313,27.92988 5.83602,-13.01294 10.1501,-26.27754 26.6291,-37.53074 16.77146,8.83803 17.40227,21.67917 19.9719,34.03946 -0.81301,-15.79604 5.06721,-26.61202 19.02079,-31.42103 31.69436,24.90864 73.10415,26.54674 88.58786,59.23456 -6.00565,-34.38705 -34.45587,-38.97049 -22.96605,-69.70828 10.77845,-2.76747 21.5569,2.76785 32.33536,10.47372 l -0.77489,-35.07239 39.94378,14.88867 -23.00123,-24.32959 c 16.59728,-2.5946 41.29282,4.87851 62.76882,8.72814 l -11.41251,-23.56586 c 9.68271,0.88082 26.18443,10.11991 41.84582,18.32901 -19.24411,-22.5426 -35.43209,-37.43738 -34.23753,-58.47819 l 43.74788,4.36402 c -17.14333,-15.6887 -38.68205,-27.34353 -50.67593,-47.75793 l 38.31245,-1.99212 -36.13957,-26.1843 28.53114,-14.83772 -22.82487,-3.49129 38.0416,-31.42103 -50.40521,-2.61842 60.86663,-56.732607 -65.51328,-4.533267 0.84244,-24.269334 -38.99257,29.675456 38.99257,-102.9913631 C 581.8155,33.445424 557.54124,62.946636 514.82295,89.493796 l -13.73281,-10.342503 -15.21006,5.356122 3.80407,-29.422947 -56.11132,35.785041 5.70624,-16.583299 -17.11875,15.710578 3.80408,-21.820285 -29.48223,26.184292 2.71443,-22.814314 -14.12694,14.95902 -4.35007,-14.334731 -16.57278,9.097879 c -4.98663,-37.821695 3.58177,-75.6433889 9.51033,-113.465081 -19.4575,43.296937 -44.16779,82.461895 -77.0343,115.210781 L 286.1614,66.436909 273.11758,81.765792 259.9417,61.95147 240.10419,85.628836 c -15.68741,-18.038068 -24.824,-29.089731 -30.9771,-47.127791 3.03454,16.905432 5.24085,28.261927 0.8145,46.879092 C 152.03126,56.876764 153.76494,54.33495 132.0928,38.501045 126.15425,58.852839 120.23635,65.629086 116.87621,81.268649 z"
       id="path4024"
       inkscape:connector-curvature="0"
       sodipodi:nodetypes="cccccccccccccccccsccccccccccccccccccccccccccccccccccccccccccccccccccccccccccccccccccc" />
    <flowRoot
       xml:space="preserve"
       id="flowRoot2987-4-9-3"
       style="font-style:normal;font-variant:normal;font-weight:normal;font-stretch:normal;font-size:12px;line-height:125%;font-family:Lavi;-inkscape-font-specification:Lavi;text-align:center;letter-spacing:0px;word-spacing:0px;text-anchor:middle;fill:#000000;fill-opacity:1;stroke:none"
       transform="translate(-53.025188,-112.88729)"><flowRegion
         id="flowRegion2989-5-4-5"><rect
           id="rect2991-7-9-6"
           width="602.40173"
           height="310.73996"
           x="120.55251"
           y="265.53046"
           style="font-style:normal;font-variant:normal;font-weight:normal;font-stretch:normal;font-family:Lavi;-inkscape-font-specification:Lavi;text-align:center;text-anchor:middle" /></flowRegion><flowPara
         style="font-style:normal;font-variant:normal;font-weight:normal;font-stretch:normal;font-size:48px;font-family:Neucha;-inkscape-font-specification:Neucha;text-align:center;text-anchor:middle"
         id="flowPara3362">Як вони могли так</flowPara><flowPara
         style="font-style:normal;font-variant:normal;font-weight:normal;font-stretch:normal;font-size:48px;font-family:Neucha;-inkscape-font-specification:Neucha;text-align:center;text-anchor:middle"
         id="flowPara3440">вчинити зі мною?!!</flowPara><flowPara
         style="font-style:normal;font-variant:normal;font-weight:normal;font-stretch:normal;font-size:48px;font-family:Neucha;-inkscape-font-specification:Neucha;text-align:center;text-anchor:middle"
         id="flowPara3011">Зі          !!!</flowPara></flowRoot>    <flowRoot
       xml:space="preserve"
       id="flowRoot2987-4-9-3-0"
       style="font-style:normal;font-variant:normal;font-weight:normal;font-stretch:normal;font-size:14.57744312px;line-height:125%;font-family:Lavi;-inkscape-font-specification:Lavi;text-align:center;letter-spacing:0px;word-spacing:0px;text-anchor:middle;fill:#000000;fill-opacity:1;stroke:none"
       transform="translate(-9.9750743,-1.6625124)"><flowRegion
         id="flowRegion2989-5-4-5-1"><rect
           id="rect2991-7-9-6-4"
           width="731.78973"
           height="377.48282"
           x="24.761236"
           y="265.16165"
           style="font-style:normal;font-variant:normal;font-weight:normal;font-stretch:normal;font-family:Lavi;-inkscape-font-specification:Lavi;text-align:center;text-anchor:middle" /></flowRegion><flowPara
         style="font-style:normal;font-variant:normal;font-weight:normal;font-stretch:normal;font-size:58.30977249px;font-family:Neucha;-inkscape-font-specification:Neucha;text-align:center;letter-spacing:1.82218039px;text-anchor:middle;stroke:#000000;stroke-width:3.83599997;stroke-miterlimit:4;stroke-dasharray:none;stroke-opacity:1"
         id="flowPara3030-8-7">мною</flowPara></flowRoot>    <flowRoot
       xml:space="preserve"
       id="flowRoot3805"
       style="font-size:12px;font-style:normal;font-variant:normal;font-weight:normal;font-stretch:normal;line-height:125%;letter-spacing:0px;word-spacing:0px;fill:#000000;fill-opacity:1;stroke:none;font-family:Arial;-inkscape-font-specification:Arial"><flowRegion
         id="flowRegion3807"><rect
           id="rect3809"
           width="371.73911"
           height="402.17389"
           x="1565.2173"
           y="587.78271" /></flowRegion><flowPara
         id="flowPara3811" /></flowRoot>    <flowRoot
       xml:space="preserve"
       id="flowRoot2987-4-9-3-8"
       style="font-style:normal;font-variant:normal;font-weight:normal;font-stretch:normal;font-size:12px;line-height:125%;font-family:Lavi;-inkscape-font-specification:Lavi;text-align:center;letter-spacing:0px;word-spacing:0px;text-anchor:middle;opacity:0.78604653;fill:#c8936e;fill-opacity:1;stroke:none;filter:url(#filter3071)"
       transform="matrix(0.62313308,-0.19456202,0.22857434,0.54968122,1494.2846,113.1591)"><flowRegion
         id="flowRegion2989-5-4-5-4"><rect
           id="rect2991-7-9-6-3"
           width="671.54761"
           height="911.65485"
           x="120.55251"
           y="265.53046"
           style="font-style:normal;font-variant:normal;font-weight:normal;font-stretch:normal;font-family:Lavi;-inkscape-font-specification:Lavi;text-align:center;text-anchor:middle;fill:#c8936e;fill-opacity:1" /></flowRegion><flowPara
         style="font-style:normal;font-variant:normal;font-weight:normal;font-stretch:normal;font-size:57.55983353px;font-family:'Ruslan Display';-inkscape-font-specification:'Ruslan Display';text-align:center;text-anchor:middle;fill:#c8936e;fill-opacity:1"
         id="flowPara3429">Закляття</flowPara><flowPara
         style="font-style:normal;font-variant:normal;font-weight:normal;font-stretch:normal;font-size:57.55983353px;font-family:'Ruslan Display';-inkscape-font-specification:'Ruslan Display';text-align:center;text-anchor:middle;fill:#c8936e;fill-opacity:1"
         id="flowPara3451">Демонів</flowPara><flowPara
         style="font-style:normal;font-variant:normal;font-weight:normal;font-stretch:normal;font-size:57.55983353px;font-family:'Ruslan Display';-inkscape-font-specification:'Ruslan Display';text-align:center;text-anchor:middle;fill:#c8936e;fill-opacity:1"
         id="flowPara3433">Хаосу</flowPara><flowPara
         style="font-style:normal;font-variant:normal;font-weight:normal;font-stretch:normal;font-size:46.04786682px;font-family:'Ruslan Display';-inkscape-font-specification:'Ruslan Display';text-align:center;text-anchor:middle;fill:#c8936e;fill-opacity:1"
         id="flowPara3459">Том I</flowPara></flowRoot>    <path
       style="fill:#ffffff;fill-opacity:1;stroke:none"
       d="m 1536.7297,1610.7049 c 30.6724,6.9191 42.469,13.344 36.9638,17.2979 12.5834,1.9769 17.3023,53.3761 5.5052,62.7663 -0.7864,0.9887 -6.2917,3.9539 -3.9323,4.4482 2.3593,0.4941 16.5157,-0.9884 18.8752,0.9884 2.3593,1.9769 -21.2346,30.1477 -18.0888,31.1361 3.1459,0.9884 75.5005,-17.7921 85.7245,-13.344 10.2242,4.448 4.7189,15.8151 7.8647,16.3094 3.1457,0.4942 32.2451,-2.4711 36.1775,-1.977 3.9321,0.4944 14.0942,11.8488 14.9424,15.8152 3.4608,-2.689 22.0212,-6.4248 25.167,-5.9306 3.1459,0.4942 5.3177,10.4627 5.5053,13.3439 3.0513,-2.7608 21.2344,-10.3785 23.594,-9.8845 2.3591,0.4943 12.5525,20.2145 14.9426,26.6881 3.7122,-4.1594 29.0991,-27.1821 31.4586,-27.6764 2.3595,-0.4943 17.3021,33.6071 20.4481,34.1015 3.1458,0.4942 18.875,-23.2287 21.2345,-22.7345 2.3593,0.4943 17.3023,14.3327 20.4479,15.321 3.146,0.9884 23.5941,-30.6418 26.7397,-30.6418 3.1461,0 29.8858,13.344 32.2453,15.8151 2.3595,2.4711 4.7185,-12.8499 7.8645,-12.8499 3.1459,0 39.3231,8.8961 40.1096,8.4019 0.7864,-0.4942 -5.5051,-9.8844 -3.1458,-9.8844 39.9189,5.4927 89.4881,13.1488 126.6206,20.2631 -15.3889,-12.4203 -35.3909,-40.5263 -31.4589,-43.4916 3.9325,-2.9655 18.089,0.4942 18.8756,-0.9885 0.7863,-1.4826 -8.6512,-7.9075 -6.292,-9.8845 2.3596,-1.9768 31.4586,-12.3555 31.4586,-12.3555 0,0 -11.7969,-8.8962 -8.6512,-10.3789 3.1461,-1.4827 33.5125,-11.8917 50.334,-13.344 -6.5024,-2.2164 -23.5939,-14.3323 -20.4483,-17.792 3.146,-3.4595 4.7514,-4.4328 11.0105,-7.4134 -2.9731,-1.4523 -15.7293,-5.4364 -14.9427,-7.9075 0.7866,-2.4712 8.6511,-14.8268 11.0105,-16.8036 2.3594,-1.9769 -16.5158,-0.9885 -16.5158,-2.9654 0,-1.9769 -3.525,-18.7925 62.7214,-49.0761 -88.2681,15.5729 -118.5573,3.5234 -144.5102,-0.4303 -25.9537,-3.9538 -10.6173,-15.7659 -3.9355,-28.0867 -15.1455,7.0951 -33.8674,10.2796 -36.964,4.9422 -3.9322,-3.4595 -4.1239,-2.1572 -8.6511,-9.8845 -15.8254,10.5184 -21.2347,13.8382 -25.1667,13.3441 -3.9325,-0.4942 -34.1904,-7.8869 -46.4014,-22.7344 -15.5636,10.344 -26.7397,8.4019 -31.4586,8.8961 -4.7189,0.4942 -7.5336,-3.6595 -12.5834,-10.8729 -3.9324,0.9884 -29.0991,9.8845 -33.0314,8.8959 -3.9323,-0.9883 -3.7254,0.9164 -10.2241,-3.9536 -3.1458,0.9884 -17.3021,4.9422 -17.3021,4.9422 0,0 -8.9564,2.1288 -14.9428,-2.9654 -13.1695,11.5176 -32.9496,14.9804 -40.896,17.2979 -7.3127,-3.2201 -37.7503,-37.5611 -35.3908,-40.5265 2.3594,-2.9653 -35.3912,41.0207 -40.8962,42.5034 -5.5053,1.4826 -16.433,1.7214 -23.5939,-1.4827 -1.5732,1.4827 -6.2918,9.3901 -11.0107,9.8845 -4.7187,0.4941 -15.7292,2.4709 -15.7292,2.4709 l 1.5729,2.9655 c 0,0 -33.0314,-7.9076 -36.9638,-10.8729 -3.9323,-2.9653 2.3595,12.8497 4.7189,16.8035 -14.1562,-3.9538 -55.8389,-12.3556 -58.9844,-14.8267 -3.1462,-2.4711 5.5048,8.8961 10.2236,12.3556 -6.2915,-1.4827 -11.7969,-1.9768 -11.7969,-1.9768 l 18.0887,11.8613 -5.5052,0.9886 c 0,0 11.7969,5.4364 11.7969,7.9075 0,2.4712 -30.6721,5.4364 -30.6721,5.4364 0,0 12.5835,4.448 9.4376,6.9192 -3.1459,2.4711 -11.0104,3.9537 -11.0104,3.9537 l -1.573,6.425 z"
       id="path5888"
       inkscape:connector-curvature="0"
       sodipodi:nodetypes="ccccccscccscccccscscsccccscccccccsscscccccccccccccccccccccccccsccccc" />
    <flowRoot
       xml:space="preserve"
       id="flowRoot2987-4-9-3-7"
       style="font-style:normal;font-variant:normal;font-weight:normal;font-stretch:normal;font-size:50px;line-height:125%;font-family:Lavi;-inkscape-font-specification:Lavi;text-align:center;letter-spacing:0px;word-spacing:0px;text-anchor:middle;fill:#000000;fill-opacity:1;stroke:none"
       transform="translate(1438.7362,1306.9683)"><flowRegion
         id="flowRegion2989-5-4-5-6"><rect
           id="rect2991-7-9-6-7"
           width="602.40173"
           height="310.73996"
           x="120.55251"
           y="265.53046"
           style="font-style:normal;font-variant:normal;font-weight:normal;font-stretch:normal;font-size:50px;font-family:Lavi;-inkscape-font-specification:Lavi;text-align:center;text-anchor:middle" /></flowRegion><flowPara
         style="font-style:normal;font-variant:normal;font-weight:normal;font-stretch:normal;font-size:50px;font-family:Neucha;-inkscape-font-specification:Neucha;text-align:center;text-anchor:middle"
         id="flowPara3366">... Якщо на них</flowPara><flowPara
         style="font-style:normal;font-variant:normal;font-weight:normal;font-stretch:normal;font-size:50px;font-family:Neucha;-inkscape-font-specification:Neucha;text-align:center;text-anchor:middle"
         id="flowPara3441">не можна розраховувати ...</flowPara></flowRoot>    <flowRoot
       xml:space="preserve"
       id="flowRoot4133-6-9-4-8-5"
       style="font-size:12px;font-style:normal;font-variant:normal;font-weight:normal;font-stretch:normal;line-height:125%;letter-spacing:0.00204969px;word-spacing:0px;color:#000000;fill:#ffffff;fill-opacity:1;fill-rule:nonzero;stroke:#ffffff;stroke-width:0.0836072;stroke-linecap:butt;stroke-linejoin:miter;stroke-miterlimit:4;stroke-opacity:1;stroke-dasharray:none;stroke-dashoffset:0;marker:none;visibility:visible;display:inline;overflow:visible;filter:url(#filter4375-4-1-1-15-1-3);enable-background:accumulate;font-family:Arial;-inkscape-font-specification:Arial"
       transform="matrix(10.283923,-1.1779802,-12.443827,20.606946,2168.326,-18000.295)"><flowRegion
         id="flowRegion4135-2-9-3-5-2"
         style="stroke-width:0.86646658"><rect
           id="rect4137-1-7-1-2-1"
           width="92.489304"
           height="30.687002"
           x="1125.3193"
           y="1078.5308"
           style="letter-spacing:0.00204969px;color:#000000;fill:#ffffff;fill-opacity:1;fill-rule:nonzero;stroke:#ffffff;stroke-width:0.0836072;stroke-linecap:butt;stroke-linejoin:miter;stroke-miterlimit:4;stroke-opacity:1;stroke-dasharray:none;stroke-dashoffset:0;marker:none;visibility:visible;display:inline;overflow:visible;filter:url(#filter4375-4-1-1-15-1-3);enable-background:accumulate" /></flowRegion><flowPara
         id="flowPara4139-2-8-6-8-6"
         style="font-style:normal;font-variant:normal;font-weight:normal;font-stretch:normal;line-height:125%;letter-spacing:0.00204969px;word-spacing:0.00204969px;color:#000000;fill:#ffffff;fill-opacity:1;fill-rule:nonzero;stroke:#ffffff;stroke-width:0.0836072;stroke-linecap:butt;stroke-linejoin:miter;stroke-miterlimit:4;stroke-opacity:1;stroke-dasharray:none;stroke-dashoffset:0;marker:none;visibility:visible;display:inline;overflow:visible;filter:url(#filter4375-4-1-1-15-1-3);enable-background:accumulate;font-family:Lavi;-inkscape-font-specification:Lavi"><flowSpan
   id="flowSpan4821"
   style="font-size:7.13246202px;color:#000000;fill:#ffffff;fill-opacity:1;fill-rule:nonzero;stroke:#ffffff;stroke-width:0.0836072;stroke-linecap:butt;stroke-linejoin:miter;stroke-miterlimit:4;stroke-opacity:1;stroke-dasharray:none;stroke-dashoffset:0;marker:none;visibility:visible;display:inline;overflow:visible;filter:url(#filter4375-4-1-1-15-1-3);enable-background:accumulate">D</flowSpan><flowSpan
   id="flowSpan4823"
   style="font-size:8.55645752px;color:#000000;fill:#ffffff;fill-opacity:1;fill-rule:nonzero;stroke:#ffffff;stroke-width:0.0836072;stroke-linecap:butt;stroke-linejoin:miter;stroke-miterlimit:4;stroke-opacity:1;stroke-dasharray:none;stroke-dashoffset:0;marker:none;visibility:visible;display:inline;overflow:visible;filter:url(#filter4375-4-1-1-15-1-3);enable-background:accumulate">Z</flowSpan><flowSpan
   style="font-size:9.90925312px;color:#000000;fill:#ffffff;fill-opacity:1;fill-rule:nonzero;stroke:#ffffff;stroke-width:0.0836072;stroke-linecap:butt;stroke-linejoin:miter;stroke-miterlimit:4;stroke-opacity:1;stroke-dasharray:none;stroke-dashoffset:0;marker:none;visibility:visible;display:inline;overflow:visible;filter:url(#filter4375-4-1-1-15-1-3);enable-background:accumulate"
   id="flowSpan4271-5">Z</flowSpan>ZO<flowSpan
   id="flowSpan4277-2"
   style="font-size:17.85409164px;color:#000000;fill:#ffffff;fill-opacity:1;fill-rule:nonzero;stroke:#ffffff;stroke-width:0.0836072;stroke-linecap:butt;stroke-linejoin:miter;stroke-miterlimit:4;stroke-opacity:1;stroke-dasharray:none;stroke-dashoffset:0;marker:none;visibility:visible;display:inline;overflow:visible;filter:url(#filter4375-4-1-1-15-1-3);enable-background:accumulate">O<flowSpan
   style="font-size:20.70208168px"
   id="flowSpan4005">O</flowSpan></flowSpan></flowPara></flowRoot>    <text
       xml:space="preserve"
       style="font-size:40px;font-style:normal;font-weight:normal;line-height:125%;letter-spacing:0px;word-spacing:0px;fill:#000000;fill-opacity:1;stroke:none;font-family:Sans"
       x="472.33951"
       y="266.25055"
       id="text3358"
       sodipodi:linespacing="125%"><tspan
         sodipodi:role="line"
         id="tspan3360"
         x="472.33951"
         y="266.25055" /></text>
  </g>
  <g
     inkscape:groupmode="layer"
     id="layer1"
     inkscape:label="txt" />
</svg>
