<?xml version="1.0" encoding="UTF-8" standalone="no"?>
<!-- Created with Inkscape (http://www.inkscape.org/) -->

<svg
   xmlns:dc="http://purl.org/dc/elements/1.1/"
   xmlns:cc="http://creativecommons.org/ns#"
   xmlns:rdf="http://www.w3.org/1999/02/22-rdf-syntax-ns#"
   xmlns:svg="http://www.w3.org/2000/svg"
   xmlns="http://www.w3.org/2000/svg"
   xmlns:xlink="http://www.w3.org/1999/xlink"
   xmlns:sodipodi="http://sodipodi.sourceforge.net/DTD/sodipodi-0.dtd"
   xmlns:inkscape="http://www.inkscape.org/namespaces/inkscape"
   id="svg2"
   version="1.1"
   inkscape:version="0.91 r13725"
   width="2481"
   height="3503"
   sodipodi:docname="Pepper-and-Carrot_by-David-Revoy_E08P04.svg"
   inkscape:export-filename="D:\Peter\PepperAndCarot\Pepper-and-Carrot_by-David-Revoy_E08P04.png"
   inkscape:export-xdpi="90"
   inkscape:export-ydpi="90">
  <metadata
     id="metadata8">
    <rdf:RDF>
      <cc:Work
         rdf:about="">
        <dc:format>image/svg+xml</dc:format>
        <dc:type
           rdf:resource="http://purl.org/dc/dcmitype/StillImage" />
        <dc:title />
      </cc:Work>
    </rdf:RDF>
  </metadata>
  <defs
     id="defs6" />
  <sodipodi:namedview
     pagecolor="#ffffff"
     bordercolor="#666666"
     borderopacity="1"
     objecttolerance="10"
     gridtolerance="10"
     guidetolerance="10"
     inkscape:pageopacity="0"
     inkscape:pageshadow="2"
     inkscape:window-width="1600"
     inkscape:window-height="832"
     id="namedview4"
     showgrid="false"
     inkscape:zoom="0.16171625"
     inkscape:cx="1119.6503"
     inkscape:cy="2140.9172"
     inkscape:window-x="1276"
     inkscape:window-y="0"
     inkscape:window-maximized="1"
     inkscape:current-layer="layer3" />
  <g
     inkscape:groupmode="layer"
     id="layer2"
     inkscape:label="artwork"
     sodipodi:insensitive="true">
    <image
       sodipodi:absref="/home/willem/Git/peppercarrot_ep08_translation/nl/../gfx_Pepper-and-Carrot_by-David-Revoy_E08P04.png"
       xlink:href="../gfx_Pepper-and-Carrot_by-David-Revoy_E08P04.png"
       width="2481"
       height="3503"
       id="image10"
       x="0"
       y="0" />
  </g>
  <g
     inkscape:groupmode="layer"
     id="layer3"
     inkscape:label="speechbubbles">
    <path
       style="color:#000000;display:inline;overflow:visible;visibility:visible;fill:#ffffff;fill-opacity:1;fill-rule:nonzero;stroke:none;stroke-width:1px;marker:none;enable-background:accumulate"
       d="m 880.18848,423.06505 c 0.14826,-42.79939 53.89838,-83.09966 208.39422,-76.8906 82.7564,3.32586 203.2195,23.79989 203.791,76.64318 1.1378,105.21651 -151.4556,79.10237 -191.9218,82.04592 -40.5583,2.95025 -122.68118,2.06236 -168.30151,-19.21481 -28.41668,-13.25343 -53.22346,-23.94671 -51.96191,-62.58369 z"
       id="path4546-0-5"
       inkscape:connector-curvature="0"
       sodipodi:nodetypes="cssssc" />
    <path
       style="color:#000000;display:inline;overflow:visible;visibility:visible;fill:#ffffff;fill-opacity:1;fill-rule:nonzero;stroke:none;stroke-width:1px;marker:none;enable-background:accumulate"
       d="m 1056.4709,523.92815 c 0.1645,-17.27065 59.8006,-71.79757 231.2146,-66.43297 91.8187,2.87352 218.5419,20.56829 219.4318,66.2192 1.2626,64.76101 -180.1956,62.80856 -210.9831,64.72848 -30.7875,1.91999 -130.256,2.18597 -182.0113,-14.13801 -44.1158,-13.91435 -57.4784,-26.84847 -57.652,-50.3767 z"
       id="path4546"
       inkscape:connector-curvature="0"
       sodipodi:nodetypes="cssssc" />
    <flowRoot
       xml:space="preserve"
       id="flowRoot2987-4-9-3"
       style="font-style:normal;font-variant:normal;font-weight:normal;font-stretch:normal;font-size:12px;line-height:125%;font-family:Lavi;-inkscape-font-specification:Lavi;text-align:center;letter-spacing:0px;word-spacing:0px;text-anchor:middle;fill:#000000;fill-opacity:1;stroke:none"
       transform="translate(868.51012,226.367)"><flowRegion
         id="flowRegion2989-5-4-5"><rect
           id="rect2991-7-9-6"
           width="602.40173"
           height="310.73996"
           x="120.55251"
           y="265.53046"
           style="font-style:normal;font-variant:normal;font-weight:normal;font-stretch:normal;font-family:Lavi;-inkscape-font-specification:Lavi;text-align:center;text-anchor:middle" /></flowRegion><flowPara
         style="font-size:48px;text-align:center;text-anchor:middle"
         id="flowPara3013">... ze komen wel...</flowPara></flowRoot>    <path
       style="color:#000000;display:inline;overflow:visible;visibility:visible;fill:#ffffff;fill-opacity:1;fill-rule:nonzero;stroke:none;stroke-width:1px;marker:none;enable-background:accumulate"
       d="m 823.13827,346.74451 c 0.18505,-46.38474 67.26472,-90.06103 260.07423,-83.33182 103.2791,3.60448 253.616,25.79363 254.3292,83.06368 1.42,114.03063 -189.0152,85.72889 -239.5167,88.91902 -50.6165,3.19739 -153.10492,2.23512 -210.0387,-20.82447 -35.46377,-14.3637 -66.42242,-25.95275 -64.84803,-67.82641 z"
       id="path4546-0"
       inkscape:connector-curvature="0"
       sodipodi:nodetypes="cssssc" />
    <flowRoot
       xml:space="preserve"
       id="flowRoot2987-4-9-3-3"
       style="font-style:normal;font-variant:normal;font-weight:normal;font-stretch:normal;font-size:12px;line-height:125%;font-family:Lavi;-inkscape-font-specification:Lavi;text-align:center;letter-spacing:0px;word-spacing:0px;text-anchor:middle;fill:#000000;fill-opacity:1;stroke:none"
       transform="translate(664.64181,37.895429)"><flowRegion
         id="flowRegion2989-5-4-5-3"><rect
           id="rect2991-7-9-6-8"
           width="602.40173"
           height="310.73996"
           x="120.55251"
           y="265.53046"
           style="font-style:normal;font-variant:normal;font-weight:normal;font-stretch:normal;font-family:Lavi;-inkscape-font-specification:Lavi;text-align:center;text-anchor:middle" /></flowRegion><flowPara
         style="font-size:48px;text-align:center;text-anchor:middle"
         id="flowPara3372">Maar ik weet zeker...</flowPara><flowPara
         style="font-size:48px;text-align:center;text-anchor:middle"
         id="flowPara5473">Ik weet het heel</flowPara><flowPara
         style="font-size:48px;text-align:center;text-anchor:middle"
         id="flowPara5477">zeker...</flowPara></flowRoot>    <path
       style="color:#000000;fill:#ffffff;fill-opacity:1;fill-rule:nonzero;stroke:none;stroke-width:1px;marker:none;visibility:visible;display:inline;overflow:visible;enable-background:accumulate"
       d="m 1390.4444,579.0932 c 18.7289,5.11471 39.3681,13.94076 42.3389,17.10636 2.9707,3.16561 3.5403,29.0288 9.435,31.36015 5.8946,2.33123 19.9529,-4.23421 23.181,-1.87166 3.2281,2.36253 6.9164,21.25493 11.735,22.7987 4.8187,1.54378 31.4537,-1.43509 33.8787,0.67009 2.425,2.10524 15.6258,13.41875 31.9608,19.09482 -24.538,-22.91551 -24.3587,-30.38519 -30.2534,-32.71645 -5.8946,-2.33133 -22.6507,1.59871 -27.2277,-2.08151 -4.577,-3.68014 -8.5227,-21.76961 -14.9476,-23.8279 -6.4248,-2.05835 -17.3175,1.53629 -17.3175,1.53629 1.5283,-6.15207 4.6076,-39.25886 -25.7157,-55.17241 -30.3235,-15.91365 -37.0675,23.10352 -37.0675,23.10352 z"
       id="path5050"
       inkscape:connector-curvature="0" />
  </g>
  <g
     inkscape:groupmode="layer"
     id="layer1"
     inkscape:label="txt" />
</svg>
