<?xml version="1.0" encoding="UTF-8" standalone="no"?>
<!-- Created with Inkscape (http://www.inkscape.org/) -->

<svg
   xmlns:dc="http://purl.org/dc/elements/1.1/"
   xmlns:cc="http://creativecommons.org/ns#"
   xmlns:rdf="http://www.w3.org/1999/02/22-rdf-syntax-ns#"
   xmlns:svg="http://www.w3.org/2000/svg"
   xmlns="http://www.w3.org/2000/svg"
   xmlns:xlink="http://www.w3.org/1999/xlink"
   xmlns:sodipodi="http://sodipodi.sourceforge.net/DTD/sodipodi-0.dtd"
   xmlns:inkscape="http://www.inkscape.org/namespaces/inkscape"
   id="svg2"
   version="1.1"
   inkscape:version="0.92.2 (5c3e80d, 2017-08-06)"
   width="2481"
   height="3503"
   sodipodi:docname="Pepper-and-Carrot_by-David-Revoy_E08P04.svg">
  <metadata
     id="metadata8">
    <rdf:RDF>
      <cc:Work
         rdf:about="">
        <dc:format>image/svg+xml</dc:format>
        <dc:type
           rdf:resource="http://purl.org/dc/dcmitype/StillImage" />
        <dc:title />
      </cc:Work>
    </rdf:RDF>
  </metadata>
  <defs
     id="defs6" />
  <sodipodi:namedview
     pagecolor="#ffffff"
     bordercolor="#666666"
     borderopacity="1"
     objecttolerance="10"
     gridtolerance="10"
     guidetolerance="10"
     inkscape:pageopacity="0"
     inkscape:pageshadow="2"
     inkscape:window-width="1366"
     inkscape:window-height="705"
     id="namedview4"
     showgrid="false"
     inkscape:zoom="0.16171625"
     inkscape:cx="603.70057"
     inkscape:cy="1405.5437"
     inkscape:window-x="-8"
     inkscape:window-y="-8"
     inkscape:window-maximized="1"
     inkscape:current-layer="layer3" />
  <g
     inkscape:groupmode="layer"
     id="layer2"
     inkscape:label="artwork"
     sodipodi:insensitive="true">
    <image
       sodipodi:absref="E:\Users\jamesmichael\Downloads\Compressed\peppercarrot_ep08_translation-master\peppercarrot_ep08_translation-master\ph\../gfx_Pepper-and-Carrot_by-David-Revoy_E08P04.png"
       xlink:href="../gfx_Pepper-and-Carrot_by-David-Revoy_E08P04.png"
       y="0"
       x="0"
       id="image10"
       height="3503"
       width="2481" />
  </g>
  <g
     inkscape:groupmode="layer"
     id="layer3"
     inkscape:label="speechbubbles">
    <path
       style="color:#000000;display:inline;overflow:visible;visibility:visible;fill:#ffffff;fill-opacity:1;fill-rule:nonzero;stroke:none;stroke-width:1px;marker:none;enable-background:accumulate"
       d="m 1262.0217,662.39804 c 18.9936,-4.02172 41.384,-5.61748 45.4741,-4.16202 4.0899,1.45552 16.4304,24.19188 22.7385,23.56768 6.3081,-0.62425 -4.615,-29.76992 -0.6636,-29.14624 3.9514,0.62366 15.8753,15.73475 20.8663,14.90263 4.9911,-0.83215 36.9435,-19.75533 40.063,-18.99304 -5.241,28.46871 43.0363,31.28416 67.0737,23.70377 -43.2226,-4.71074 -24.7956,-34.89129 -57.7752,-35.54973 -2.0083,-9.27382 -40.8922,-3.52794 -47.7807,-2.09382 -21.2279,5.91552 -18.5663,0.28387 -25.221,1.39347 -6.6546,1.10949 5.7238,26.16513 5.7238,26.16513 -1.456,-6.16958 -13.8663,-37.01638 -48.1105,-37.29161 -34.2445,-0.27523 -22.3884,37.50378 -22.3884,37.50378 z"
       id="path5050"
       inkscape:connector-curvature="0"
       sodipodi:nodetypes="cccccccccccsc" />
    <path
       style="color:#000000;display:inline;overflow:visible;visibility:visible;fill:#ffffff;fill-opacity:1;fill-rule:nonzero;stroke:none;stroke-width:1.17438078px;marker:none;enable-background:accumulate"
       d="m 1167.97,548.46889 c 0.094,-43.11529 34.2708,-179.23891 132.5056,-165.84646 52.6198,7.17359 125.243,51.34766 125.7529,165.31281 0.7236,161.6725 -103.2673,156.7983 -120.9111,161.59127 -17.6439,4.79316 -74.6477,5.45716 -104.3079,-35.29478 -25.2821,-34.73647 -32.94,-67.02582 -33.0395,-125.76284 z"
       id="path4546"
       inkscape:connector-curvature="0"
       sodipodi:nodetypes="cssssc" />
    <flowRoot
       xml:space="preserve"
       id="flowRoot2987-4-9-3"
       style="font-style:normal;font-variant:normal;font-weight:normal;font-stretch:normal;line-height:0.01%;font-family:Lavi;-inkscape-font-specification:Lavi;text-align:center;letter-spacing:0px;word-spacing:0px;text-anchor:middle;fill:#424f55;fill-opacity:1;stroke:none;"
       transform="translate(875.0689,182.64184)"><flowRegion
         id="flowRegion2989-5-4-5"
         style="fill:#424f55;fill-opacity:1;"><rect
           id="rect2991-7-9-6"
           width="602.40173"
           height="310.73996"
           x="120.55251"
           y="265.53046"
           style="font-style:normal;font-variant:normal;font-weight:normal;font-stretch:normal;font-family:Lavi;-inkscape-font-specification:Lavi;text-align:center;text-anchor:middle;fill:#424f55;fill-opacity:1;" /></flowRegion><flowPara
         style="font-size:48px;line-height:1.25;text-align:center;text-anchor:middle;fill:#424f55;fill-opacity:1;"
         id="flowPara3013">...       </flowPara><flowPara
         style="font-size:48px;line-height:1.25;text-align:center;text-anchor:middle;fill:#424f55;fill-opacity:1;"
         id="flowPara833">pupunta </flowPara><flowPara
         style="font-size:48px;line-height:1.25;text-align:center;text-anchor:middle;fill:#424f55;fill-opacity:1;"
         id="flowPara829">sila ...</flowPara></flowRoot>    <path
       style="color:#000000;display:inline;overflow:visible;visibility:visible;fill:#ffffff;fill-opacity:1;fill-rule:nonzero;stroke:none;stroke-width:0.885369px;marker:none;enable-background:accumulate"
       d="m 995.81838,388.7075 c 0.075,-73.77538 27.24652,-143.24294 105.34682,-132.54005 41.8346,5.73296 103.7593,41.02757 103.0196,132.11356 -1.0645,131.08289 -69.458,150.01675 -93.1936,150.1716 -21.1238,0.13781 -65.8433,-5.19004 -88.9052,-41.86655 -14.3651,-22.8456 -26.90535,-41.27809 -26.26762,-107.87856 z"
       id="path4546-0"
       inkscape:connector-curvature="0"
       sodipodi:nodetypes="cssssc" />
    <flowRoot
       xml:space="preserve"
       id="flowRoot2987-4-9-3-3"
       style="font-style:normal;font-variant:normal;font-weight:normal;font-stretch:normal;line-height:0.01%;font-family:Lavi;-inkscape-font-specification:Lavi;text-align:center;letter-spacing:0px;word-spacing:0px;text-anchor:middle;fill:#424f55;fill-opacity:1;stroke:none;"
       transform="translate(870.15004,81.620586)"><flowRegion
         id="flowRegion2989-5-4-5-3"
         style="fill:#424f55;fill-opacity:1;"><rect
           id="rect2991-7-9-6-8"
           width="226.36539"
           height="343.53378"
           x="120.55251"
           y="265.53046"
           style="font-style:normal;font-variant:normal;font-weight:normal;font-stretch:normal;font-family:Lavi;-inkscape-font-specification:Lavi;text-align:center;text-anchor:middle;fill:#424f55;fill-opacity:1;" /></flowRegion><flowPara
         style="font-size:48px;line-height:1.25;text-align:center;text-anchor:middle;fill:#424f55;fill-opacity:1;"
         id="flowPara3372">sigurado ako ...</flowPara></flowRoot>    <path
       style="fill:#aa0044;fill-opacity:1;stroke:none;stroke-width:1px;stroke-linecap:butt;stroke-linejoin:miter;stroke-opacity:1"
       d="m 2222.6283,2593.1833 c 0,0 2.1863,-21.8626 -43.7251,4.3725 -45.9114,26.2351 -87.4503,-2.1863 -100.5679,-54.6565 -13.1175,-52.4702 -37.1664,-26.2351 -37.1664,-26.2351 h -13.1175 c 0,0 17.4901,85.2641 59.0289,126.803 41.5389,41.5389 124.6167,-10.9313 124.6167,-10.9313 0,0 43.7252,-15.3038 19.6764,-37.1664 -24.0489,-21.8626 -6.025,0.9498 -6.025,0.9498"
       id="path835"
       inkscape:connector-curvature="0" />
    <path
       inkscape:connector-curvature="0"
       id="path837"
       d="m 1976.772,2544.389 c 0,0 -39.5075,12.8883 3.3858,43.8125 74.808,53.9333 27.8554,92.1806 -56.9094,99.3104 -52.7525,11.9315 -27.0661,36.5656 -27.0661,36.5656 l -0.2957,13.1142 c 0,0 85.6367,-15.5638 128.1013,-56.1558 42.4646,-40.592 -8.1197,-124.8314 -8.1197,-124.8314 0,0 -14.3143,-44.059 -36.7134,-20.5091 -22.3991,23.55 0.8137,6.0448 0.8137,6.0448"
       style="fill:#aa0044;fill-opacity:1;stroke:none;stroke-width:1px;stroke-linecap:butt;stroke-linejoin:miter;stroke-opacity:1"
       sodipodi:nodetypes="cscccsccc" />
    <path
       inkscape:connector-curvature="0"
       id="path839"
       d="m 1936.2065,2795.639 c 0,0 9.8593,23.4356 51.4307,-9.2442 49.6134,-39.0016 86.3101,-31.0932 100.8588,54.1178 13.3979,52.3993 29.5766,30.6738 29.5766,30.6738 l 5.7387,-0.8898 c 17.7629,11.2187 -10.5673,-84.3495 -52.3277,-125.6656 -41.7605,-41.3162 -124.5565,11.5977 -124.5565,11.5977 0,0 -43.6427,15.5374 -19.4773,37.2711 24.1655,21.7336 6.0198,-0.982 6.0198,-0.982"
       style="fill:#aa0044;fill-opacity:1;stroke:none;stroke-width:1px;stroke-linecap:butt;stroke-linejoin:miter;stroke-opacity:1"
       sodipodi:nodetypes="cscccsccc" />
    <path
       style="fill:#aa0044;fill-opacity:1;stroke:none;stroke-width:1px;stroke-linecap:butt;stroke-linejoin:miter;stroke-opacity:1"
       d="m 2188.8904,2836.9338 c 0,0 15.2517,8.7456 -10.1903,-37.61 -25.4419,-46.3557 3.6894,-87.3998 56.3774,-99.6134 52.688,-12.2135 26.8702,-36.7099 26.8702,-36.7099 l 0.2255,-13.1156 c 0,0 -85.5522,16.0217 -127.7991,56.8402 -42.2469,40.8186 30.0437,151.4533 30.0437,151.4533 7.2835,-4.3665 16.6742,-12.6701 13.54,-18.7689"
       id="path841"
       inkscape:connector-curvature="0"
       sodipodi:nodetypes="cccccccc" />
    <path
       style="fill:#aa0044;fill-opacity:1;stroke:none;stroke-width:0.52751619px;stroke-linecap:butt;stroke-linejoin:miter;stroke-opacity:1"
       d="m 1990.9814,2860.6654 c -1.1957,-0.017 -1.6612,0.1102 -1.6718,0.3164 -2.8877,0.2427 -7.4654,3.6396 -13.8243,17.0938 -11.9194,25.2194 -38.4674,25.4875 -59.998,6.7676 -21.5306,-18.72 -23.9981,-0.1094 -23.9981,-0.1094 l -5.6718,3.9648 c 0,0 36.6129,44.6945 67.127,50.098 30.5141,5.4035 50.5723,-42.3926 50.5723,-42.3926 0,0 10.9993,-32.9499 -6.006,-35.1331 -3.1885,-0.4093 -5.2634,-0.5875 -6.5293,-0.6055 z m 1.9414,2.0938 c 1.214,0.4209 2.2696,0.7441 2.2696,0.7441 l -2.125,-0.5332 c 0,0 -0.092,-0.1314 -0.1446,-0.2109 z m 37.6603,25.889 c 0,0 -32.1451,32.7845 -38.0723,63.2011 -5.9273,30.4168 58.7657,56.3985 58.7657,56.3985 1.8292,-4.0892 21.4166,-13.7971 8.9266,-13.3002 l 3.9785,-4.375 c 0,0 4.3183,-7.9339 -20.6924,-20.2851 -25.0107,-12.3514 -19.3561,-31.7963 -0.2688,-53.002 19.0874,-21.2055 0.5215,-23.9922 0.5215,-23.9922 -2.426,-3.7886 -1.2418,-11.7033 -13.1588,-4.6451 z m -148.7637,28.0195 c -3.8046,-0.1046 -19.7181,6.1718 -20.6803,12.5287 -0.9517,6.2874 -0.8978,8.2313 -0.4532,8.1953 -2.15,5.1627 -2.8872,13.9161 16.7559,14.2012 48.6439,0.7063 39.9059,31.4336 5.414,60.1367 -19.2005,21.1032 11.9207,19.6178 11.9207,19.6178 l 3.8359,5.7578 c 0,0 32.3204,-32.6114 38.4101,-62.9961 6.09,-30.3845 -41.2421,-51.5156 -41.2421,-51.5156 0,0 -7.62,-5.7514 -13.961,-5.9258 z m -18.5026,14.8959 -0.582,2.1114 c 0,0 -0.1935,0.2849 -0.3672,0.5429 0.5209,-1.3641 0.9492,-2.6543 0.9492,-2.6543 z m 106.5062,43.8098 c -28.1323,-0.4577 -43.3903,54.5365 -43.3903,54.5365 0,0 -14.1711,19.9079 2.8457,22 17.0167,2.0921 2.3047,-2.2442 2.3047,-2.2442 l 2.127,0.5235 c 0,0 11.3463,7.151 19.4414,-19.543 9.6614,-31.8577 27.9174,-39.5303 59.9628,-7.0879 21.6303,18.6045 22.0586,4.3223 22.0586,4.3223 l 2.211,-2.1192 c 11.0704,-0.5186 -32.7957,-44.7514 -63.3383,-49.9915 -1.4317,-0.2457 -2.8391,-0.374 -4.2226,-0.3965 z"
       id="path851"
       inkscape:connector-curvature="0"
       sodipodi:nodetypes="ccccccsccccccccccccccccccccccccccccccccscccccccc" />
    <path
       sodipodi:nodetypes="cscccsccc"
       style="fill:#aa0044;fill-opacity:1;stroke:none;stroke-width:1px;stroke-linecap:butt;stroke-linejoin:miter;stroke-opacity:1"
       d="m 209.80936,2910.8327 c 0,0 19.75193,16.0093 40.98126,-32.4208 25.33622,-57.7987 61.42179,-68.1438 114.46057,0.1165 36.53999,39.875 40.55139,13.0859 40.55139,13.0859 l 4.6396,-3.4926 c 20.95482,1.5084 -49.12204,-69.3796 -105.43745,-86.0987 -56.31554,-16.719 -104.34172,69.0046 -104.34172,69.0046 0,0 -31.14517,34.294 0.41653,42.0515 31.56174,7.7574 4.84392,-3.7066 4.84392,-3.7066"
       id="path860"
       inkscape:connector-curvature="0" />
    <path
       inkscape:connector-curvature="0"
       id="path862"
       d="m 557.05884,2829.2762 c 0,0 -11.03203,-11.8712 -28.76457,16.7918 -21.16292,34.2078 -44.86185,37.5063 -72.22345,-10.3191 -19.49037,-28.4352 -24.41984,-11.8882 -24.41984,-11.8882 l -3.2406,1.7888 c -13.08917,-2.8276 24.78962,48.1812 58.83262,63.7733 34.0431,15.5919 72.02486,-34.2076 72.02486,-34.2076 0,0 22.72487,-18.8544 3.50128,-26.5752 -19.22362,-7.7207 -3.38869,1.9056 -3.38869,1.9056"
       style="fill:#aa0044;fill-opacity:1;stroke:none;stroke-width:0.63739753px;stroke-linecap:butt;stroke-linejoin:miter;stroke-opacity:1"
       sodipodi:nodetypes="cscccsccc" />
    <path
       sodipodi:nodetypes="cscccsccc"
       style="fill:#aa0044;fill-opacity:1;stroke:none;stroke-width:0.63739753px;stroke-linecap:butt;stroke-linejoin:miter;stroke-opacity:1"
       d="m 606.17426,2894.6486 c 0,0 13.11272,9.523 24.98998,-22.0197 14.17495,-37.6445 36.7942,-45.4477 72.85836,-3.7907 24.60421,24.1468 26.25292,6.96 26.25292,6.96 l 2.83519,-2.3797 c 13.38873,0.2525 -33.60894,-42.5017 -70.01837,-51.2419 -36.40949,-8.7401 -64.0838,47.4447 -64.0838,47.4447 0,0 -18.66602,22.8799 1.68502,26.7519 20.35105,3.8719 2.958,-2.5229 2.958,-2.5229"
       id="path864"
       inkscape:connector-curvature="0" />
    <path
       inkscape:connector-curvature="0"
       id="path866"
       d="m 782.01602,2890.119 c -4.14515,-16.0188 -0.49483,-14.4543 -4.69171,-19.2981 -34.87628,-13.6267 -28.01055,13.0111 -28.01055,13.0111 0,0 -1.85417,16.503 18.49687,20.375 10.90089,-0.2919 14.07791,-6.1008 14.20539,-14.088 z"
       style="fill:#aa0044;fill-opacity:1;stroke:none;stroke-width:0.63739753px;stroke-linecap:butt;stroke-linejoin:miter;stroke-opacity:1"
       sodipodi:nodetypes="ccccc" />
    <path
       sodipodi:nodetypes="ccccc"
       style="fill:#aa0044;fill-opacity:1;stroke:none;stroke-width:0.63739753px;stroke-linecap:butt;stroke-linejoin:miter;stroke-opacity:1"
       d="m 845.96406,2889.0259 c -4.14515,-16.0188 -0.49483,-14.4543 -4.69171,-19.2981 -34.87628,-13.6267 -28.01055,13.0111 -28.01055,13.0111 0,0 -1.85417,16.503 18.49687,20.375 10.90089,-0.2919 14.07791,-6.1008 14.20539,-14.088 z"
       id="path868"
       inkscape:connector-curvature="0" />
    <path
       inkscape:connector-curvature="0"
       id="path870"
       d="m 909.36553,2887.9328 c -4.14515,-16.0188 -0.49483,-14.4543 -4.69171,-19.2981 -34.87628,-13.6267 -28.01055,13.0111 -28.01055,13.0111 0,0 -1.85417,16.503 18.49687,20.375 10.90089,-0.2919 14.07791,-6.1008 14.20539,-14.088 z"
       style="fill:#aa0044;fill-opacity:1;stroke:none;stroke-width:0.63739753px;stroke-linecap:butt;stroke-linejoin:miter;stroke-opacity:1"
       sodipodi:nodetypes="ccccc" />
  </g>
  <g
     inkscape:groupmode="layer"
     id="layer1"
     inkscape:label="txt" />
</svg>
