<?xml version="1.0" encoding="UTF-8" standalone="no"?>
<!-- Created with Inkscape (http://www.inkscape.org/) -->

<svg
   xmlns:dc="http://purl.org/dc/elements/1.1/"
   xmlns:cc="http://creativecommons.org/ns#"
   xmlns:rdf="http://www.w3.org/1999/02/22-rdf-syntax-ns#"
   xmlns:svg="http://www.w3.org/2000/svg"
   xmlns="http://www.w3.org/2000/svg"
   xmlns:xlink="http://www.w3.org/1999/xlink"
   xmlns:sodipodi="http://sodipodi.sourceforge.net/DTD/sodipodi-0.dtd"
   xmlns:inkscape="http://www.inkscape.org/namespaces/inkscape"
   id="svg2"
   version="1.1"
   inkscape:version="0.92.2 (5c3e80d, 2017-08-06)"
   width="2481"
   height="3503"
   sodipodi:docname="Pepper-and-Carrot_by-David-Revoy_E08P03.svg">
  <metadata
     id="metadata8">
    <rdf:RDF>
      <cc:Work
         rdf:about="">
        <dc:format>image/svg+xml</dc:format>
        <dc:type
           rdf:resource="http://purl.org/dc/dcmitype/StillImage" />
        <dc:title></dc:title>
      </cc:Work>
    </rdf:RDF>
  </metadata>
  <defs
     id="defs6">
    <filter
       style="color-interpolation-filters:sRGB;"
       inkscape:label="Blur"
       id="filter1251">
      <feGaussianBlur
         stdDeviation="0.8 0.8"
         result="blur"
         id="feGaussianBlur1249" />
    </filter>
    <filter
       inkscape:collect="always"
       style="color-interpolation-filters:sRGB"
       id="filter1463"
       x="-0.019286215"
       width="1.0385724"
       y="-0.0087095752"
       height="1.0174192">
      <feGaussianBlur
         inkscape:collect="always"
         stdDeviation="2.6906198"
         id="feGaussianBlur1465" />
    </filter>
    <filter
       inkscape:collect="always"
       style="color-interpolation-filters:sRGB"
       id="filter1545"
       x="-0.002313244"
       width="1.0046265"
       y="-0.002493517"
       height="1.004987">
      <feGaussianBlur
         inkscape:collect="always"
         stdDeviation="0.83403552"
         id="feGaussianBlur1547" />
    </filter>
    <clipPath
       clipPathUnits="userSpaceOnUse"
       id="clipPath1549">
      <path
         style="fill:#ffffff;stroke:none;stroke-width:1.25698388;filter:url(#filter1463)"
         d="m 878.69049,1357.1576 c 125.16201,-1.902 165.45661,56.8632 160.51401,384.953 -4.3743,290.3558 -39.47371,357.3661 -159.51701,356.4171 -160.494,-1.2692 -175.2812,-113.5292 -174.9013,-347.919 0.3797,-234.39 -0.6584,-389.3983 173.9043,-393.4511 z"
         id="path1551"
         inkscape:connector-curvature="0"
         sodipodi:nodetypes="csssc"
         clip-path="none" />
    </clipPath>
  </defs>
  <sodipodi:namedview
     pagecolor="#ffffff"
     bordercolor="#666666"
     borderopacity="1"
     objecttolerance="10"
     gridtolerance="10"
     guidetolerance="10"
     inkscape:pageopacity="0"
     inkscape:pageshadow="2"
     inkscape:window-width="1366"
     inkscape:window-height="705"
     id="namedview4"
     showgrid="false"
     inkscape:zoom="0.12228071"
     inkscape:cx="606.68473"
     inkscape:cy="853.07593"
     inkscape:window-x="-8"
     inkscape:window-y="-8"
     inkscape:window-maximized="1"
     inkscape:current-layer="g873" />
  <g
     inkscape:groupmode="layer"
     id="layer2"
     inkscape:label="artwork"
     sodipodi:insensitive="true">
    <image
       sodipodi:absref="E:\Users\jamesmichael\Downloads\Compressed\peppercarrot_ep08_translation-master\peppercarrot_ep08_translation-master\ph\../gfx_Pepper-and-Carrot_by-David-Revoy_E08P03.png"
       xlink:href="../gfx_Pepper-and-Carrot_by-David-Revoy_E08P03.png"
       width="2481"
       height="3503"
       id="image10"
       x="0"
       y="0" />
  </g>
  <g
     inkscape:groupmode="layer"
     id="layer3"
     inkscape:label="speechbubbles">
    <path
       style="color:#000000;display:inline;overflow:visible;visibility:visible;fill:#ffffff;fill-opacity:1;fill-rule:nonzero;stroke:none;stroke-width:0.45034984px;marker:none;enable-background:accumulate"
       d="m 1480.8397,1700.3491 c -36.3318,27.4406 -86.5862,44.8882 -94.4067,-4.5815 -3.8375,-24.2745 -16.4233,0.8443 -16.6968,-3.9315 5.5639,-6.8685 -15.8472,-26.0124 -13.1145,-26.7945 -4.6223,-4.7974 9.1258,-9.9962 12.4679,-28.9445 3.3422,-18.9482 25.8873,-34.8481 25.8873,-34.8481 0,0 -33.1666,47.2915 -18.4088,62.4843 -7.3068,3.1463 5.9205,24.4532 4.5683,28.9557 -1.3521,4.5022 17.5211,-12.6379 26.4226,-8.4485 10.2152,4.8079 28.3974,39.9116 73.2807,16.1086 z"
       id="path3923"
       inkscape:connector-curvature="0"
       sodipodi:nodetypes="csccscccsc" />
    <path
       style="color:#000000;display:inline;overflow:visible;visibility:visible;fill:#ffffff;fill-opacity:1;fill-rule:nonzero;stroke:none;stroke-width:0.97502881px;marker:none;enable-background:accumulate"
       d="m 1143.0822,544.74362 c -3.8981,-115.39981 42.1378,-159.99912 97.3829,-156.79719 55.2448,3.20193 106.3438,42.14082 104.6477,143.68871 -1.6961,101.54785 -51.4493,140.54188 -99.3475,135.92192 -47.8986,-4.61998 -98.7849,-7.41366 -102.6831,-122.81344 z"
       id="path3565"
       inkscape:connector-curvature="0"
       sodipodi:nodetypes="zszsz" />
    <path
       style="color:#000000;display:inline;overflow:visible;visibility:visible;fill:#ffffff;fill-opacity:1;fill-rule:nonzero;stroke:none;stroke-width:1px;marker:none;enable-background:accumulate"
       d="m 1240.5974,555.14032 c 5.7117,86.91786 68.8277,109.43702 88.3216,119.33143 -44.6303,-5.79913 -74.2922,-11.16768 -120.7776,-82.41875 -31.0276,-47.55784 32.456,-36.91268 32.456,-36.91268 z"
       id="path4480"
       inkscape:connector-curvature="0"
       sodipodi:nodetypes="ccsc"
       inkscape:transform-center-x="21.975756"
       inkscape:transform-center-y="53.063166" />
    <flowRoot
       xml:space="preserve"
       id="flowRoot2987-4-9-3"
       style="font-style:normal;font-variant:normal;font-weight:normal;font-stretch:normal;line-height:0.01%;font-family:Lavi;-inkscape-font-specification:Lavi;text-align:center;letter-spacing:0px;word-spacing:0px;text-anchor:middle;fill:#000000;fill-opacity:1;stroke:none"
       transform="translate(1035.356,177.03021)"><flowRegion
         id="flowRegion2989-5-4-5"><rect
           id="rect2991-7-9-6"
           width="171.01724"
           height="365.9408"
           x="120.55251"
           y="265.53046"
           style="font-style:normal;font-variant:normal;font-weight:normal;font-stretch:normal;font-family:Lavi;-inkscape-font-specification:Lavi;text-align:center;text-anchor:middle" /></flowRegion><flowPara
         style="font-size:48px;line-height:1.25;text-align:center;text-anchor:middle"
         id="flowPara3030-8">Yan! tapos na!</flowPara></flowRoot>    <g
       id="g859"
       transform="translate(-20.444761,-214.66999)">
      <g
         id="g873"
         transform="translate(396.62837,28.622666)">
        <path
           inkscape:connector-curvature="0"
           id="path1062"
           d="m 543.3203,1270.9438 8.6875,385.8945 -10.73243,225.1485 c 9.82902,-2.8056 26.77883,-4.9939 38.01758,-6.4805 10.12311,-14.7106 12.51494,-31.9979 30.46485,-44.0996 21.84939,12.4613 20.47879,35.7683 19.87889,56.7051 0,0 32.1651,22.0473 35.7793,36.1425 3.6142,14.0952 4.6988,-8.6738 6.5059,7.2285 1.807,15.9023 7.9843,15.3791 6.8164,30.7872 -1.2732,16.7976 -8.7848,19.0794 -12.9746,27.539 -4.2314,5.2953 -20.1041,15.1643 -26.0371,26.5117 0,0 -8.7068,12.0572 -14.1719,14.1016 -4.40078,1.6463 -11.4311,0.6944 -13.53713,0.1777 4.60139,10.9121 17.91223,31.9855 26.02153,37.5879 8.1092,5.6024 5.6612,3.7104 8.4023,5.5117 l 30.1797,-18.6132 50.959,-0.3614 c 0,0 22.4074,-28.1903 49.875,-16.625 l -1.084,-1.0839 c 0,0 7.2281,-4.6986 0.7226,-31.4434 -6.5055,-26.7448 -30.2265,-42.541 -30.2265,-42.541 -0.61,0.3051 -25.5128,-8.9629 -8.6563,-15.584 12.3452,-2.2844 26.0209,-1.447 28.5508,5.4199 2.889,6.7037 25.6348,15.4399 30.0859,58.0137 2.6857,25.6837 10.0837,16.6227 18.918,36.7617 -6.6748,-14.734 2.7174,-49.3734 29.2754,-61.2246 0.075,-27.8883 2.549,-25.8842 -9.7598,-51.6836 -4.7458,1.017 -21.1615,-7.5714 -1.0839,-13.3711 2.8822,-0.9908 4.6609,-1.5549 5.7129,-1.8437 1.1799,-3.4672 4.4789,-18.3679 21.0312,-26.2481 -0.5314,-1.52 -1.4438,-14.1316 12.9219,-14.2851 11.1915,-0.6306 14.7683,4.4081 14.4843,15.5683 10e-5,0 0.01,0 0.01,0 -0.01,-2e-4 0,10e-5 -0.01,0 v 0 h -0.01 v 0.088 c 0,-0.01 0.1414,-0.02 0.2539,-0.029 1.3189,0.2875 17.9803,4.2306 20.4355,22.7676 0.3333,2.516 0.099,0.7736 0.2832,2.1699 12.4372,-0.7403 24.1617,14.0682 -3.3515,18.5293 v 0.1289 c -7.9099,4.2536 -1.2539,44.1854 7.3691,56.4883 1.8168,-2.196 30.7579,-36.3628 53.5098,-10.8106 l 8.6738,10.1211 c 0,0 18.0711,-12.6493 23.1309,-8.6738 0.2689,0.2113 0.7786,0.3923 1.42971,0.5547 -0.01,-0.435 -0.18111,-1.4625 -0.12311,-2.0195 -0.3188,-1.656 0.22771,-8.1915 -1.4297,-16.6543 -0.4071,-2.0787 1.0035,-3.9746 3.38671,-4.1192 l -0.1914,-1.209 0.5411,-3.75 c 0.4358,-3.0148 1.6205,-2.1352 2.4921,-2.0839 0.9375,0.055 2.2255,-0.6416 1.2129,2.6269 l -0.9941,3.207 -0.064,1.1954 c 1.9384,-0.4454 4.7692,-0.4081 5.2266,3.7421 -0.9395,7.0972 0.8031,13.9544 0.7852,19.959 1.8979,2.3826 3.7931,2.9965 5.4375,0.057 -0.01,-0.2652 -0.01,-0.5304 -0.033,-0.795 -0.1032,-1.7178 0.031,-3.1459 0.3183,-4.666 0.01,-0.029 0.086,0.033 0.09,0 0.034,-0.2966 0.01,-0.5979 0.012,-0.8965 -0.3916,-5.6982 0.6247,-10.7853 0.8359,-16.3984 -0.6348,-7.6269 1.1792,-9.1782 5.959,-7.6445 0,-1.8515 -0.127,-4.8535 -0.127,-6.7051 -0.6969,-3.3524 0.3222,-3.4435 1.3555,-3.0488 0.8832,0.3374 2.2447,-1.3644 1.9863,2.0547 0,1.9811 -0.09,4.9564 -0.09,6.9375 v 0.5293 c 3.3569,1.1327 5.3102,2.6114 5.0508,5.7714 -1.8799,7.9205 -4.2919,15.4797 -4.5059,22.9258 3.579,-1.7307 6.1566,-1.0817 8.6602,-0.2422 -0.01,-1.8818 -0.025,-1.9561 -0.053,-3.8379 -1.2868,-8.5551 -1.1024,-19.4203 -2.0156,-26.5468 -1.0233,-3.7769 -1.5556,-5.4427 3.25,-5.502 l -0.9941,-5.5469 c -0.284,-1.5848 0.8118,-2.416 1.625,-2.416 0.8132,0 1.3509,0.8298 1.6269,2.416 l 0.9043,5.1914 c 1.4342,0.6417 3.1287,0.106 5.3203,1.2891 1.4597,2.4017 0.1406,5.6971 0.098,8.5176 -0.1767,7.648 1.7416,12.9658 1.1152,19.5781 -0.087,1.5228 -0.07,1.6055 -0.086,3.1465 0.03,1.6999 0.046,1.5932 0.055,3.293 1.0081,-0.043 1.9011,-0.092 2.8945,-0.1368 v -0.7871 c 0.9669,-7.0037 1.6131,-12.2902 0.7852,-17.25 0.3344,-3.7877 -0.045,-3.6429 2.9004,-3.8261 0.4123,-0.019 1.4699,-0.2309 1.8847,-0.1328 -0.036,-0.3467 -0.025,-5.9306 -0.1172,-6.2754 -0.464,-1.7509 1.0468,-1.2511 1.9883,-1.209 0.7324,0.033 0.8446,-0.7921 1.2031,0.5703 0.3472,1.3191 0.1097,5.7859 0.045,7.123 0.8106,1.1355 1.6223,-0.457 1.8964,1.5215 0.1903,1.3735 0.3743,2.7524 0.3458,4.1426 -0.018,0.85 -0.1035,1.6934 -0.1153,2.5449 0.012,3.3537 0.035,6.7069 0.027,10.0606 -0.01,1.5113 0,1.2152 0,2.7265 v 0.2696 c 3.1876,-0.1658 5.3431,-0.2953 7.9531,-0.4434 0,-1.2851 -0.01,-0.7638 0,-2.0488 0.011,-2.208 -0.045,-4.4134 -0.043,-6.6211 0.031,-0.455 0.083,-1.5286 0.1914,-2.0293 0.017,-0.078 0.014,0.1593 0.024,0.2383 0.021,0 0.057,0.03 0.064,0.01 0.032,-0.09 0.052,-0.1895 0.033,-0.2832 -0.055,-0.2693 -0.1679,-0.5253 -0.2519,-0.7871 -0.1856,-10.4534 5.2743,1.8775 4.1328,-11.4062 0,-1.61 0.8138,-1.2657 1.6269,-1.2657 0.8132,0 1.627,-0.3443 1.627,1.2657 v 3.1914 c -0.6723,3.4654 0.2073,4.9161 2.6797,4.1894 0.64,1.6157 0.9813,3.3445 0.9297,5.086 -0.024,0.81 -0.2114,1.6006 -0.2344,2.4101 0.049,2.0185 0.069,4.0376 0.059,6.0567 -0.01,1.0556 0,2.1108 0,3.166 0.1478,-0.01 1.0742,-0.066 1.0742,-0.066 0,0 65.0539,17.7102 59.9941,36.8652 -5.0598,19.155 -3.9746,17.3477 -3.9746,17.3477 l -0.3613,13.373 33.9727,-2.168 c 0.2189,1.1492 18.1072,-29.2632 1.4453,-83.4882 -11.4439,-31.4566 13.2829,-44.4946 11.6093,-50.711 0.9256,-7.1199 -0.1,-8.3892 -0.4062,-11.8144 0,0 -12.2881,7.2297 -24.5762,2.1699 -12.2881,-5.0597 -1.8066,-1.084 -1.8066,-1.084 0,0 17.3475,-3.2531 26.0215,-14.457 8.6739,-11.2039 1.0859,-2.1699 1.0859,-2.1699 l -6.1445,-25.6602 -15.9024,-11.9258 -1.4453,-13.7344 -17.7344,-13.9902 1.1094,-15.2851 c 0,0 -18.83,-16.0886 -27.1426,-37.0508 -8.3125,-20.9621 -15.5058,-14.2696 -15.5058,-14.2696 0,0 -19.814,-6.6382 -21.6211,-8.4453 -1.8071,-1.8071 0.6588,-17.5763 -9.8223,-25.166 -9.1911,-8.9787 -2.8285,-19.7183 3.4473,-23.791 l 5.2715,-2.7793 c 0,0 -2.2133,-24.7502 -24.6211,-56.1934 -0.4598,-0.6453 -0.634,-0.8975 -1.0567,-1.4922 -7.7271,-1.9777 -33.0949,1.5746 -36.1679,-0.6777 -12.8238,-4.9453 -34.25661,-25.3758 -34.33601,-25.1172 1.3895,-1.2327 1.5913,-4.5055 7.5899,-3.4336 0,0 -8.5339,-9.4784 -9.7578,-13.1914 -1.2239,-3.7129 -1.625,-5.2422 -1.625,-5.2422 2.9315,-1.0457 8.6355,-3.1064 13.0117,1.627 -3.1336,-4.7743 -7.3626,-9.9589 -6.8692,-13.3731 0.4089,-2.2488 10.848,-3.9994 14.8203,2.5313 2.79211,4.5903 -2.7415,-5.3435 -0.7226,-6.1426 6.81751,-0.8466 9.16301,-1.1176 16.08201,14.6348 6.3699,5.5502 24.1942,4.0699 26.7813,5.9961 -1.6648,-2.6016 -12.3222,-20.2572 -4.7364,-20.0899 5.1424,-6.5983 16.6055,7.2574 20.0606,15.5391 2.5384,6.0845 14.0322,5.4696 19.9414,17.3535 9.1748,18.4515 24.6913,40.836 24.6914,40.8359 0,0 0.085,-8.8228 2.7109,-13.914 2.6263,-5.0912 13.9141,-14.6387 13.9141,-14.6387 0,0 8.6738,10e-5 8.6738,7.9512 0,5.8568 3.177,-13.9465 27.9414,-29.4473 7.8849,-4.9355 19.9954,-5.6094 33.1387,-5.6094 h 1.084 l 16.6269,19.6973 c -0.9737,-3.1161 -4.9743,-40.7451 26.7442,-21.1426 14.05,5.6272 22.2273,3.0213 27.3203,3.4297 11.6904,0.9375 19.5391,6.7344 19.5391,6.7344 l 1.5957,-7.1856 c 0,0 -45.7666,-11.2457 -45.9082,-37.8613 -0.1513,-28.445 37.169,-2.7483 44.0742,-4.873 0,0 -10e-5,-17.7104 19.8789,-12.2891 0.036,0.01 0.049,0.014 0.084,0.023 l -0.4395,0.3321 c 0,0 20.1348,5.0327 0.4492,-0.3379 l 17.2539,-13.0274 c 0,0 9.3959,-7.9519 20.2383,11.5645 10.8425,19.5165 33.9746,42.2852 33.9746,42.2852 l 36.7832,-298.5704 z m 497.6348,324.9961 c 0.1105,0.1728 0.3021,0.4813 0.3242,0.5097 -0.01,-0.1945 -0.1242,-0.3608 -0.3242,-0.5097 z m -127.62701,398.7578 c -0.059,0.071 -0.3398,0.3945 -0.3398,0.3945 l 0.3613,-0.3613 c -0.01,-0.01 -0.014,-0.023 -0.022,-0.033 z m -73.4179,-75.1777 c -0.1425,0.3693 -0.2911,0.7578 -0.2911,0.7578 0,0 3.459,-1.6279 0.2911,-0.7578 z m 104.3164,73.6269 c -13.6276,-0.5503 -20.3213,18.6273 -13.7344,21.7305 8.0934,6.0476 10.0256,21.0664 8.4336,33.9883 23.1946,-5.6521 32.5756,-42.3362 13.5449,-53.1563 -2.9589,-1.6823 -5.7205,-2.4606 -8.2441,-2.5625 z"
           style="fill:#ffffff;stroke:none;stroke-width:1px;stroke-linecap:butt;stroke-linejoin:miter;stroke-opacity:1;fill-opacity:1;filter:url(#filter1545)"
           clip-path="url(#clipPath1549)" />
        <path
           sodipodi:nodetypes="csssc"
           inkscape:connector-curvature="0"
           id="path901"
           d="m 871.93252,1373.5415 c 120.29825,-1.8155 159.02708,54.276 154.27648,367.4381 -4.2043,277.145 -31.90521,34.4021 -147.28384,33.4961 -154.2573,-1.2113 -174.50439,198.3407 -174.1393,-25.3847 0.365,-223.7255 -0.63276,-371.6811 167.14666,-375.5495 z"
           style="fill:#ffffff;stroke:none;stroke-width:1.20395839;opacity:0" />
        <flowRoot
           xml:space="preserve"
           id="flowRoot2987-4-9-3-1"
           style="font-style:normal;font-variant:normal;font-weight:normal;font-stretch:normal;line-height:0.01%;font-family:Lavi;-inkscape-font-specification:Lavi;text-align:center;letter-spacing:0px;word-spacing:0px;text-anchor:middle;fill:#000000;fill-opacity:1;stroke:none"
           transform="translate(596.19518,1125.0916)"><flowRegion
             id="flowRegion2989-5-4-5-6"><rect
               id="rect2991-7-9-6-4"
               width="307.99713"
               height="572.43286"
               x="120.55251"
               y="265.53046"
               style="font-style:normal;font-variant:normal;font-weight:normal;font-stretch:normal;font-family:Lavi;-inkscape-font-specification:Lavi;text-align:center;text-anchor:middle" /></flowRegion><flowPara
             style="font-size:48px;line-height:1.25;text-align:center;text-anchor:middle"
             id="flowPara3030-8-1">... </flowPara><flowPara
             style="font-size:48px;line-height:1.25;text-align:center;text-anchor:middle"
             id="flowPara839">tapos </flowPara><flowPara
             style="font-size:48px;line-height:1.25;text-align:center;text-anchor:middle"
             id="flowPara835">na lahat! </flowPara><flowPara
             style="font-size:48px;line-height:1.25;text-align:center;text-anchor:middle"
             id="flowPara837">^ ^</flowPara><flowPara
             style="font-size:48px;line-height:1.25;text-align:center;text-anchor:middle"
             id="flowPara3065">Hihintayin </flowPara><flowPara
             style="font-size:48px;line-height:1.25;text-align:center;text-anchor:middle"
             id="flowPara841">na lang natin silang lahat </flowPara><flowPara
             style="font-size:48px;line-height:1.25;text-align:center;text-anchor:middle"
             id="flowPara845">na dumating</flowPara><flowPara
             style="font-size:48px;line-height:1.25;text-align:center;text-anchor:middle"
             id="flowPara843">          !!!</flowPara></flowRoot>        <flowRoot
           transform="translate(497.76973,2717.9722)"
           style="font-style:normal;font-variant:normal;font-weight:normal;font-stretch:normal;font-size:85.33333588px;line-height:0.01%;font-family:Lavi;-inkscape-font-specification:Lavi;text-align:center;letter-spacing:0px;word-spacing:0px;text-anchor:middle;fill:#ffffff;fill-opacity:1;stroke:none"
           id="flowRoot1573"
           xml:space="preserve"><flowRegion
             id="flowRegion1555"
             style="font-size:85.33333588px;fill:#ffffff"><rect
               style="font-style:normal;font-variant:normal;font-weight:normal;font-stretch:normal;font-size:85.33333588px;font-family:Lavi;-inkscape-font-specification:Lavi;text-align:center;text-anchor:middle;fill:#ffffff"
               y="265.53046"
               x="120.55251"
               height="572.43286"
               width="307.99713"
               id="rect1553" /></flowRegion><flowPara
             id="flowPara1557"
             style="font-size:85.33333588px;line-height:1.25;text-align:center;text-anchor:middle;fill:#ffffff">... </flowPara><flowPara
             id="flowPara1571"
             style="font-size:85.33333588px;line-height:1.25;text-align:center;text-anchor:middle;fill:#ffffff" /></flowRoot>      </g>
    </g>
  </g>
  <g
     inkscape:groupmode="layer"
     id="layer1"
     inkscape:label="txt" />
</svg>
