<?xml version="1.0" encoding="UTF-8" standalone="no"?>
<!-- Created with Inkscape (http://www.inkscape.org/) -->

<svg
   xmlns:dc="http://purl.org/dc/elements/1.1/"
   xmlns:cc="http://creativecommons.org/ns#"
   xmlns:rdf="http://www.w3.org/1999/02/22-rdf-syntax-ns#"
   xmlns:svg="http://www.w3.org/2000/svg"
   xmlns="http://www.w3.org/2000/svg"
   xmlns:xlink="http://www.w3.org/1999/xlink"
   xmlns:sodipodi="http://sodipodi.sourceforge.net/DTD/sodipodi-0.dtd"
   xmlns:inkscape="http://www.inkscape.org/namespaces/inkscape"
   id="svg2"
   version="1.1"
   inkscape:version="0.91pre3 r13670"
   width="2481"
   height="3503"
   sodipodi:docname="Pepper-and-Carrot_by-David-Revoy_E08P02.svg">
  <metadata
     id="metadata8">
    <rdf:RDF>
      <cc:Work
         rdf:about="">
        <dc:format>image/svg+xml</dc:format>
        <dc:type
           rdf:resource="http://purl.org/dc/dcmitype/StillImage" />
        <dc:title />
      </cc:Work>
    </rdf:RDF>
  </metadata>
  <defs
     id="defs6" />
  <sodipodi:namedview
     pagecolor="#ffffff"
     bordercolor="#666666"
     borderopacity="1"
     objecttolerance="10"
     gridtolerance="10"
     guidetolerance="10"
     inkscape:pageopacity="0"
     inkscape:pageshadow="2"
     inkscape:window-width="1920"
     inkscape:window-height="1017"
     id="namedview4"
     showgrid="false"
     inkscape:zoom="0.40000002"
     inkscape:cx="1267.7024"
     inkscape:cy="946.08267"
     inkscape:window-x="-8"
     inkscape:window-y="-8"
     inkscape:window-maximized="1"
     inkscape:current-layer="layer3" />
  <g
     inkscape:groupmode="layer"
     id="layer2"
     inkscape:label="artwork"
     sodipodi:insensitive="true">
    <image
       sodipodi:absref="C:\Users\Frederico\Documents\GitHub\peppercarrot_ep08_translation\pt\..\gfx_Pepper-and-Carrot_by-David-Revoy_E08P02.png"
       xlink:href="../gfx_Pepper-and-Carrot_by-David-Revoy_E08P02.png"
       y="0"
       x="0"
       id="image10"
       height="3503"
       width="2481" />
  </g>
  <g
     inkscape:groupmode="layer"
     id="layer3"
     inkscape:label="speechbubbles">
    <path
       style="color:#000000;fill:#ffffff;fill-opacity:1;fill-rule:nonzero;stroke:none;stroke-width:1px;marker:none;visibility:visible;display:inline;overflow:visible;enable-background:accumulate"
       d="m 1133.0615,763.03908 c 0.6932,-28.94964 16.8546,-53.9889 43.5715,-66.51377 29.4496,-13.8059 86.7932,-11.58288 97.2605,-9.3193 10.4671,2.26373 99.8478,-1.09395 121.8004,1.86859 19.6691,2.65439 76.1254,32.82325 73.2708,86.01948 -2.8548,53.19623 -45.6753,69.43702 -89.4474,72.83254 -43.7721,3.39552 -131.264,1.88493 -154.0245,-0.77469 -25.1285,-2.93633 -91.1744,-31.54779 -91.3505,-91.67873 z"
       id="path5034"
       inkscape:connector-curvature="0"
       sodipodi:nodetypes="cscsssscc" />
    <path
       style="color:#000000;fill:#ffffff;fill-opacity:1;fill-rule:nonzero;stroke:none;stroke-width:1px;marker:none;visibility:visible;display:inline;overflow:visible;enable-background:accumulate"
       d="m 551.8556,440.24406 c -14.99282,8.51877 -30.50245,17.596 -48.20233,19.15973 -5.04552,0.33636 -10.30406,0.32712 -15.2446,-1.05894 -4.86848,-2.59081 -7.06818,-8.34689 -6.80048,-13.57773 -0.13652,-7.60327 2.83481,-15.5196 -0.42661,-22.92866 -2.50068,-5.34029 -8.54581,-6.71656 -13.53059,-8.32027 -12.7747,-3.83775 -26.06596,-5.96289 -38.25461,-11.82504 -14.10981,-5.7119 -28.58953,-12.74432 -38.49661,-25.00056 -3.84253,-4.91287 -7.20634,-10.5695 -7.73723,-16.85089 -2.08041,-16.08132 4.86444,-33.23077 18.53249,-41.38227 9.23972,-4.33938 22.34102,-0.10332 26.50121,10.03796 2.27374,5.32319 0.69789,11.19744 -2.14399,15.71711 -3.65198,9.36301 -1.61582,20.54408 4.34291,28.87961 4.80991,6.95622 11.66301,12.39705 19.26574,15.81243 9.24091,7.3656 21.26086,7.23582 32.10448,9.41758 4.94239,1.07107 10.14187,2.54736 14.14388,5.88447 4.64552,6.09016 3.30429,14.09121 1.39348,20.69485 -1.79545,6.8694 -4.65229,14.59983 -1.05717,21.61186 1.86215,5.18008 8.05309,4.14738 12.31492,4.97642 13.99277,0.86542 27.89374,-2.70596 40.08493,-8.99763 1.11361,-0.68924 2.16189,-1.46702 3.21016,-2.25007 z"
       id="path4496"
       inkscape:connector-curvature="0" />
    <path
       style="color:#000000;fill:#ffffff;fill-opacity:1;fill-rule:nonzero;stroke:none;stroke-width:1px;marker:none;visibility:visible;display:inline;overflow:visible;enable-background:accumulate"
       d="M 85.795229,285.55167 C 46.755559,243.14424 50.938316,160.4498 62.092584,141.36648 73.246745,122.28318 88.583663,93.658224 141.56614,93.658224 c 52.98237,0 421.07043,-20.143531 475.44713,24.384256 54.37658,44.52778 52.98237,121.92119 5.57718,173.87024 -47.4054,51.94904 -301.16309,41.34721 -301.16309,41.34721 0,0 -175.67836,6.36113 -235.632131,-47.70826 z"
       id="path3992"
       inkscape:connector-curvature="0" />
    <flowRoot
       xml:space="preserve"
       id="flowRoot2987-4-9-3"
       style="font-size:12px;font-style:normal;font-variant:normal;font-weight:normal;font-stretch:normal;text-align:center;line-height:125%;letter-spacing:0px;word-spacing:0px;text-anchor:middle;fill:#000000;fill-opacity:1;stroke:none;font-family:Lavi;-inkscape-font-specification:Lavi"
       transform="translate(-47.165431,-147.84187)"><flowRegion
         id="flowRegion2989-5-4-5"><rect
           id="rect2991-7-9-6"
           width="602.40173"
           height="310.73996"
           x="120.55251"
           y="265.53046"
           style="font-style:normal;font-variant:normal;font-weight:normal;font-stretch:normal;text-align:center;text-anchor:middle;font-family:Lavi;-inkscape-font-specification:Lavi" /></flowRegion><flowPara
         style="font-size:48px;text-align:center;text-anchor:middle"
         id="flowPara3385">Oh, convidar as outras bruxas que conhecemos </flowPara><flowPara
         style="font-size:48px;text-align:center;text-anchor:middle"
         id="flowPara4569">no Torneio de Poções? *</flowPara></flowRoot>    <path
       style="color:#000000;fill:#ffffff;fill-opacity:1;fill-rule:nonzero;stroke:none;stroke-width:1px;marker:none;visibility:visible;display:inline;overflow:visible;enable-background:accumulate"
       d="m 1231.9477,620.44708 c 31.91,16.91037 42.2081,25.03965 37.6619,73.10616 -4.5463,48.06651 11.3934,47.51048 11.3934,47.51048 l 18.2935,-27.6155 c 0,0 3.3401,-102.44406 -67.3488,-93.00114 z"
       id="path3072"
       inkscape:connector-curvature="0" />
    <flowRoot
       xml:space="preserve"
       id="flowRoot2987-4-9-3-1"
       style="font-style:normal;font-variant:normal;font-weight:normal;font-stretch:normal;font-size:12px;line-height:125%;font-family:Lavi;-inkscape-font-specification:Lavi;text-align:center;letter-spacing:0px;word-spacing:0px;text-anchor:middle;fill:#000000;fill-opacity:1;stroke:none"
       transform="translate(878.68424,442.69913)"><flowRegion
         id="flowRegion2989-5-4-5-1"><rect
           id="rect2991-7-9-6-6"
           width="602.40173"
           height="310.73996"
           x="120.55251"
           y="265.53046"
           style="font-style:normal;font-variant:normal;font-weight:normal;font-stretch:normal;font-family:Lavi;-inkscape-font-specification:Lavi;text-align:center;text-anchor:middle" /></flowRegion><flowPara
         style="font-size:48px;text-align:center;text-anchor:middle"
         id="flowPara3030-8">Ótima ideia</flowPara><flowPara
         style="font-size:48px;text-align:center;text-anchor:middle"
         id="flowPara3138">Carrot!</flowPara></flowRoot>    <flowRoot
       xml:space="preserve"
       id="flowRoot3121"
       style="fill:black;stroke:none;stroke-opacity:1;stroke-width:1px;stroke-linejoin:miter;stroke-linecap:butt;fill-opacity:1;font-family:Arial;font-style:normal;font-weight:normal;font-size:12px;line-height:125%;letter-spacing:0px;word-spacing:0px;-inkscape-font-specification:Arial;font-stretch:normal;font-variant:normal"><flowRegion
         id="flowRegion3123"><rect
           id="rect3125"
           width="34.026463"
           height="13.232513"
           x="1521.739"
           y="831.92261" /></flowRegion><flowPara
         id="flowPara3127" /></flowRoot>    <flowRoot
       xml:space="preserve"
       id="flowRoot2987-4-9-3-1-2"
       style="font-size:12px;font-style:normal;font-variant:normal;font-weight:normal;font-stretch:normal;text-align:center;line-height:125%;letter-spacing:0px;word-spacing:0px;text-anchor:middle;opacity:0.51627903;fill:#000000;fill-opacity:1;stroke:none;font-family:Lavi;-inkscape-font-specification:Lavi"
       transform="matrix(0.91238015,0.20660818,-0.54839204,0.97185115,893.39439,1219.1371)"><flowRegion
         id="flowRegion2989-5-4-5-1-3"><rect
           id="rect2991-7-9-6-6-2"
           width="248.1633"
           height="63.394516"
           x="120.55251"
           y="265.53046"
           style="font-style:normal;font-variant:normal;font-weight:normal;font-stretch:normal;text-align:center;text-anchor:middle;font-family:Lavi;-inkscape-font-specification:Lavi" /></flowRegion><flowPara
         style="font-size:48px;font-style:normal;font-variant:normal;font-weight:normal;font-stretch:normal;text-align:center;text-anchor:middle;font-family:Fondamento;-inkscape-font-specification:Fondamento"
         id="flowPara3138-0">Convite</flowPara></flowRoot>    <flowRoot
       xml:space="preserve"
       id="flowRoot2987-4-9-9-9"
       style="font-size:12px;font-style:normal;font-variant:normal;font-weight:normal;font-stretch:normal;text-align:center;line-height:125%;letter-spacing:0px;word-spacing:0px;text-anchor:middle;fill:#000000;fill-opacity:1;stroke:none;display:inline;font-family:Lavi;-inkscape-font-specification:Lavi"
       transform="matrix(0.66530597,0,0,0.68592152,1789.9349,773.25335)"><flowRegion
         id="flowRegion2989-5-4-7-7"><rect
           id="rect2991-7-9-4-3"
           width="896.69958"
           height="94.747894"
           x="59.439823"
           y="265.53046"
           style="font-style:normal;font-variant:normal;font-weight:normal;font-stretch:normal;text-align:center;text-anchor:middle;font-family:Lavi;-inkscape-font-specification:Lavi" /></flowRegion><flowPara
         style="font-size:48px;text-align:start;text-anchor:start;fill:#a0a0a0;fill-opacity:1"
         id="flowPara3080-9-7">* Ver episódio 6: O Torneio de Poções</flowPara><flowPara
         style="font-size:48px;text-align:start;text-anchor:start;fill:#a0a0a0;fill-opacity:1"
         id="flowPara4571" /></flowRoot>  </g>
  <g
     inkscape:groupmode="layer"
     id="layer1"
     inkscape:label="txt" />
</svg>
