<?xml version="1.0" encoding="UTF-8" standalone="no"?>
<!-- Created with Inkscape (http://www.inkscape.org/) -->

<svg
   xmlns:dc="http://purl.org/dc/elements/1.1/"
   xmlns:cc="http://creativecommons.org/ns#"
   xmlns:rdf="http://www.w3.org/1999/02/22-rdf-syntax-ns#"
   xmlns:svg="http://www.w3.org/2000/svg"
   xmlns="http://www.w3.org/2000/svg"
   xmlns:xlink="http://www.w3.org/1999/xlink"
   xmlns:sodipodi="http://sodipodi.sourceforge.net/DTD/sodipodi-0.dtd"
   xmlns:inkscape="http://www.inkscape.org/namespaces/inkscape"
   id="svg2"
   version="1.1"
   inkscape:version="0.48.4 r9939"
   width="2481"
   height="3503"
   sodipodi:docname="Pepper-and-Carrot_by-David-Revoy_E08P02.svg">
  <metadata
     id="metadata8">
    <rdf:RDF>
      <cc:Work
         rdf:about="">
        <dc:format>image/svg+xml</dc:format>
        <dc:type
           rdf:resource="http://purl.org/dc/dcmitype/StillImage" />
        <dc:title />
      </cc:Work>
    </rdf:RDF>
  </metadata>
  <defs
     id="defs6" />
  <sodipodi:namedview
     pagecolor="#ffffff"
     bordercolor="#666666"
     borderopacity="1"
     objecttolerance="10"
     gridtolerance="10"
     guidetolerance="10"
     inkscape:pageopacity="0"
     inkscape:pageshadow="2"
     inkscape:window-width="1680"
     inkscape:window-height="1033"
     id="namedview4"
     showgrid="false"
     inkscape:zoom="0.52900003"
     inkscape:cx="1295.0304"
     inkscape:cy="2724.1956"
     inkscape:window-x="1920"
     inkscape:window-y="0"
     inkscape:window-maximized="1"
     inkscape:current-layer="layer3" />
  <g
     inkscape:groupmode="layer"
     id="layer2"
     inkscape:label="artwork"
     sodipodi:insensitive="true">
    <image
       sodipodi:absref="/home/deevad/Production/Webcomics/New/lang/ja/../gfx_Pepper-and-Carrot_by-David-Revoy_E08P02.png"
       xlink:href="../gfx_Pepper-and-Carrot_by-David-Revoy_E08P02.png"
       y="0"
       x="0"
       id="image10"
       height="3503"
       width="2481" />
  </g>
  <g
     inkscape:groupmode="layer"
     id="layer3"
     inkscape:label="speechbubbles">
    <path
       style="color:#000000;fill:#ffffff;fill-opacity:1;fill-rule:nonzero;stroke:none;stroke-width:1px;marker:none;visibility:visible;display:inline;overflow:visible;enable-background:accumulate"
       d="m 1104.2193,759.9353 c 0.8289,-30.61436 20.1548,-57.09347 52.1032,-70.33857 35.2162,-14.59979 103.7884,-12.24894 116.3052,-9.85519 12.5167,2.3939 119.399,-1.15686 145.6503,1.97604 23.5205,2.80703 91.0315,34.71071 87.6181,90.96593 -3.4139,56.25521 -54.6191,73.42991 -106.9623,77.02068 -52.3432,3.59078 -156.9669,1.99332 -184.1842,-0.81923 -30.0488,-3.10518 -109.0272,-33.36191 -109.2378,-96.95061 z"
       id="path5034"
       inkscape:connector-curvature="0"
       sodipodi:nodetypes="cscsssscc" />
    <path
       style="color:#000000;fill:#ffffff;fill-opacity:1;fill-rule:nonzero;stroke:none;stroke-width:1px;marker:none;visibility:visible;display:inline;overflow:visible;enable-background:accumulate"
       d="m 551.8556,440.24406 c -14.99282,8.51877 -30.50245,17.596 -48.20233,19.15973 -5.04552,0.33636 -10.30406,0.32712 -15.2446,-1.05894 -4.86848,-2.59081 -7.06818,-8.34689 -6.80048,-13.57773 -0.13652,-7.60327 2.83481,-15.5196 -0.42661,-22.92866 -2.50068,-5.34029 -8.54581,-6.71656 -13.53059,-8.32027 -12.7747,-3.83775 -26.06596,-5.96289 -38.25461,-11.82504 -14.10981,-5.7119 -28.58953,-12.74432 -38.49661,-25.00056 -3.84253,-4.91287 -7.20634,-10.5695 -7.73723,-16.85089 -2.08041,-16.08132 4.86444,-33.23077 18.53249,-41.38227 9.23972,-4.33938 22.34102,-0.10332 26.50121,10.03796 2.27374,5.32319 0.69789,11.19744 -2.14399,15.71711 -3.65198,9.36301 -1.61582,20.54408 4.34291,28.87961 4.80991,6.95622 11.66301,12.39705 19.26574,15.81243 9.24091,7.3656 21.26086,7.23582 32.10448,9.41758 4.94239,1.07107 10.14187,2.54736 14.14388,5.88447 4.64552,6.09016 3.30429,14.09121 1.39348,20.69485 -1.79545,6.8694 -4.65229,14.59983 -1.05717,21.61186 1.86215,5.18008 8.05309,4.14738 12.31492,4.97642 13.99277,0.86542 27.89374,-2.70596 40.08493,-8.99763 1.11361,-0.68924 2.16189,-1.46702 3.21016,-2.25007 z"
       id="path4496"
       inkscape:connector-curvature="0" />
    <path
       style="color:#000000;fill:#ffffff;fill-opacity:1;fill-rule:nonzero;stroke:none;stroke-width:1px;marker:none;visibility:visible;display:inline;overflow:visible;enable-background:accumulate"
       d="m 83.843043,291.56417 c -36.6143,-43.70542 -32.6914,-128.93093 -22.2301,-148.59835 10.4612,-19.6674 24.8453,-49.168488 74.536197,-49.168488 49.6908,0 394.9111,-20.760076 445.9096,25.130598 50.9984,45.89066 49.6908,125.6529 5.2307,179.19198 -44.4603,53.53908 -282.4531,42.61276 -282.4531,42.61276 0,0 -164.7642,6.55582 -220.993297,-49.1685 z"
       id="path3992"
       inkscape:connector-curvature="0" />
    <flowRoot
       xml:space="preserve"
       id="flowRoot2987-4-9-3"
       style="font-size:48.00000191px;font-style:normal;font-variant:normal;font-weight:normal;font-stretch:normal;text-align:center;line-height:125%;letter-spacing:0px;word-spacing:0px;text-anchor:middle;fill:#000000;fill-opacity:1;stroke:none;font-family:'Rounded M+ 1c';-inkscape-font-specification:'Rounded M+ 1c, Normal';writing-mode:lr;"
       transform="translate(-69.842431,-147.84187)"><flowRegion
         id="flowRegion2989-5-4-5"><rect
           id="rect2991-7-9-6"
           width="602.40173"
           height="310.73996"
           x="120.55251"
           y="265.53046"
           style="font-style:normal;font-variant:normal;font-weight:normal;font-stretch:normal;text-align:center;text-anchor:middle;font-family:'Rounded M+ 1c';-inkscape-font-specification:'Rounded M+ 1c, Normal';font-size:48.00000191px;writing-mode:lr;line-height:125%;" /></flowRegion><flowPara
         id="flowPara4170">魔法薬コンテストで</flowPara><flowPara
         id="flowPara4172">会った他の魔女を</flowPara><flowPara
         id="flowPara4174">招待する？*</flowPara></flowRoot>    <path
       style="color:#000000;fill:#ffffff;fill-opacity:1;fill-rule:nonzero;stroke:none;stroke-width:1px;marker:none;visibility:visible;display:inline;overflow:visible;enable-background:accumulate"
       d="m 1231.9477,620.44708 c 31.91,16.91037 42.2081,25.03965 37.6619,73.10616 -4.5463,48.06651 11.3934,47.51048 11.3934,47.51048 l 18.2935,-27.6155 c 0,0 3.3401,-102.44406 -67.3488,-93.00114 z"
       id="path3072"
       inkscape:connector-curvature="0" />
    <flowRoot
       xml:space="preserve"
       id="flowRoot2987-4-9-3-1"
       style="font-size:48.00000191px;font-style:normal;font-variant:normal;font-weight:normal;font-stretch:normal;text-align:center;line-height:125%;letter-spacing:0px;word-spacing:0px;text-anchor:middle;fill:#000000;fill-opacity:1;stroke:none;font-family:'Rounded M+ 1c';-inkscape-font-specification:'Rounded M+ 1c, Normal';writing-mode:lr;"
       transform="translate(878.68424,442.69913)"><flowRegion
         id="flowRegion2989-5-4-5-1"><rect
           id="rect2991-7-9-6-6"
           width="602.40173"
           height="310.73996"
           x="120.55251"
           y="265.53046"
           style="font-style:normal;font-variant:normal;font-weight:normal;font-stretch:normal;text-align:center;text-anchor:middle;font-family:'Rounded M+ 1c';-inkscape-font-specification:'Rounded M+ 1c, Normal';font-size:48.00000191px;writing-mode:lr;line-height:125%;" /></flowRegion><flowPara
         id="flowPara4176">いいアイデアね</flowPara><flowPara
         id="flowPara4178">キャロット!</flowPara></flowRoot>    <flowRoot
       xml:space="preserve"
       id="flowRoot3121"
       style="fill:black;stroke:none;stroke-opacity:1;stroke-width:1px;stroke-linejoin:miter;stroke-linecap:butt;fill-opacity:1;font-family:Arial;font-style:normal;font-weight:normal;font-size:12px;line-height:125%;letter-spacing:0px;word-spacing:0px;-inkscape-font-specification:Arial;font-stretch:normal;font-variant:normal"><flowRegion
         id="flowRegion3123"><rect
           id="rect3125"
           width="34.026463"
           height="13.232513"
           x="1521.739"
           y="831.92261" /></flowRegion><flowPara
         id="flowPara3127" /></flowRoot>    <flowRoot
       xml:space="preserve"
       id="flowRoot2987-4-9-3-1-2"
       style="font-size:48.00000241px;font-style:normal;font-variant:normal;font-weight:normal;font-stretch:normal;text-align:center;line-height:125%;letter-spacing:0px;word-spacing:0px;text-anchor:middle;fill:#000000;fill-opacity:1;stroke:none;font-family:'Rounded M+ 1c';-inkscape-font-specification:'Rounded M+ 1c, Normal';opacity:0.51627907;writing-mode:lr;"
       transform="matrix(0.91238015,0.20660818,-0.54839204,0.97185115,893.39439,1219.1371)"><flowRegion
         id="flowRegion2989-5-4-5-1-3"><rect
           id="rect2991-7-9-6-6-2"
           width="248.1633"
           height="63.394516"
           x="120.55251"
           y="265.53046"
           style="font-style:normal;font-variant:normal;font-weight:normal;font-stretch:normal;text-align:center;text-anchor:middle;font-family:'Rounded M+ 1c';-inkscape-font-specification:'Rounded M+ 1c, Normal';font-size:48.00000241px;writing-mode:lr;line-height:125%;" /></flowRegion><flowPara
         id="flowPara3362">招待状</flowPara></flowRoot>    <flowRoot
       xml:space="preserve"
       id="flowRoot2987-4-9-9-9"
       style="font-style:normal;font-variant:normal;font-weight:normal;font-stretch:normal;font-size:48.00083542px;line-height:125%;font-family:'Rounded M+ 1c';-inkscape-font-specification:'Rounded M+ 1c, Normal';text-align:start;letter-spacing:0px;word-spacing:0px;writing-mode:lr-tb;text-anchor:start;display:inline;fill:#a0a0a0;fill-opacity:1;stroke:none"
       transform="matrix(0.66530597,0,0,0.68592152,1778.6119,773.25335)"><flowRegion
         id="flowRegion2989-5-4-7-7"><rect
           id="rect2991-7-9-4-3"
           width="859.12286"
           height="58.300579"
           x="59.439823"
           y="265.53046"
           style="font-style:normal;font-variant:normal;font-weight:normal;font-stretch:normal;font-size:48.00083542px;line-height:125%;font-family:'Rounded M+ 1c';-inkscape-font-specification:'Rounded M+ 1c, Normal';text-align:start;writing-mode:lr-tb;text-anchor:start;fill:#a0a0a0;fill-opacity:1" /></flowRegion><flowPara
         id="flowPara3364">* エピソード 6 : 魔法薬コンテスト参照</flowPara></flowRoot>  </g>
  <g
     inkscape:groupmode="layer"
     id="layer1"
     inkscape:label="txt" />
</svg>
