<?xml version="1.0" encoding="UTF-8" standalone="no"?>
<!-- Created with Inkscape (http://www.inkscape.org/) -->

<svg
   xmlns:dc="http://purl.org/dc/elements/1.1/"
   xmlns:cc="http://creativecommons.org/ns#"
   xmlns:rdf="http://www.w3.org/1999/02/22-rdf-syntax-ns#"
   xmlns:svg="http://www.w3.org/2000/svg"
   xmlns="http://www.w3.org/2000/svg"
   xmlns:xlink="http://www.w3.org/1999/xlink"
   xmlns:sodipodi="http://sodipodi.sourceforge.net/DTD/sodipodi-0.dtd"
   xmlns:inkscape="http://www.inkscape.org/namespaces/inkscape"
   id="svg2"
   version="1.1"
   inkscape:version="0.91 r13725"
   width="2481"
   height="3503"
   sodipodi:docname="Pepper-and-Carrot_by-David-Revoy_E08P05.svg">
  <metadata
     id="metadata8">
    <rdf:RDF>
      <cc:Work
         rdf:about="">
        <dc:format>image/svg+xml</dc:format>
        <dc:type
           rdf:resource="http://purl.org/dc/dcmitype/StillImage" />
        <dc:title />
      </cc:Work>
    </rdf:RDF>
  </metadata>
  <defs
     id="defs6">
    <filter
       color-interpolation-filters="sRGB"
       id="filter4375-4-1-1-15-1-3"
       inkscape:label="deevad outline effect">
      <feFlood
         id="feFlood4377-7-9-0-4-4-4"
         flood-opacity="0.90476190476190477"
         flood-color="rgb(250,62,62)"
         result="flood" />
      <feComposite
         id="feComposite4379-3-8-8-6-0-7"
         in2="SourceGraphic"
         in="flood"
         operator="in"
         result="composite1" />
      <feMorphology
         id="feMorphology4393-1-0-49-8-2-7"
         operator="dilate"
         radius="0.59999999999999998"
         result="result3" />
      <feComposite
         id="feComposite4385-9-5-7-2-1-2"
         in2="result3"
         in="SourceGraphic"
         operator="over"
         result="composite2" />
    </filter>
    <filter
       color-interpolation-filters="sRGB"
       id="filter4005"
       inkscape:label="deevad outline effect">
      <feFlood
         id="feFlood4007"
         flood-opacity="1"
         flood-color="rgb(0,0,0)"
         result="flood" />
      <feComposite
         id="feComposite4009"
         in2="SourceGraphic"
         in="flood"
         operator="in"
         result="composite1" />
      <feMorphology
         id="feMorphology4011"
         operator="dilate"
         radius="0.59999999999999998"
         result="result3" />
      <feComposite
         id="feComposite4013"
         in2="result3"
         in="SourceGraphic"
         operator="over"
         result="composite2" />
    </filter>
    <filter
       color-interpolation-filters="sRGB"
       id="filter4015"
       inkscape:label="deevad outline effect">
      <feFlood
         id="feFlood4017"
         flood-opacity="1"
         flood-color="rgb(0,0,0)"
         result="flood" />
      <feComposite
         id="feComposite4019"
         in2="SourceGraphic"
         in="flood"
         operator="in"
         result="composite1" />
      <feMorphology
         id="feMorphology4021"
         operator="dilate"
         radius="0.59999999999999998"
         result="result3" />
      <feComposite
         id="feComposite4023"
         in2="result3"
         in="SourceGraphic"
         operator="over"
         result="composite2" />
    </filter>
    <filter
       color-interpolation-filters="sRGB"
       id="filter4025"
       inkscape:label="deevad outline effect">
      <feFlood
         id="feFlood4027"
         flood-opacity="1"
         flood-color="rgb(0,0,0)"
         result="flood" />
      <feComposite
         id="feComposite4029"
         in2="SourceGraphic"
         in="flood"
         operator="in"
         result="composite1" />
      <feMorphology
         id="feMorphology4031"
         operator="dilate"
         radius="0.59999999999999998"
         result="result3" />
      <feComposite
         id="feComposite4033"
         in2="result3"
         in="SourceGraphic"
         operator="over"
         result="composite2" />
    </filter>
    <filter
       color-interpolation-filters="sRGB"
       id="filter4035"
       inkscape:label="deevad outline effect">
      <feFlood
         id="feFlood4037"
         flood-opacity="1"
         flood-color="rgb(0,0,0)"
         result="flood" />
      <feComposite
         id="feComposite4039"
         in2="SourceGraphic"
         in="flood"
         operator="in"
         result="composite1" />
      <feMorphology
         id="feMorphology4041"
         operator="dilate"
         radius="0.59999999999999998"
         result="result3" />
      <feComposite
         id="feComposite4043"
         in2="result3"
         in="SourceGraphic"
         operator="over"
         result="composite2" />
    </filter>
    <filter
       color-interpolation-filters="sRGB"
       id="filter4045"
       inkscape:label="deevad outline effect">
      <feFlood
         id="feFlood4047"
         flood-opacity="1"
         flood-color="rgb(0,0,0)"
         result="flood" />
      <feComposite
         id="feComposite4049"
         in2="SourceGraphic"
         in="flood"
         operator="in"
         result="composite1" />
      <feMorphology
         id="feMorphology4051"
         operator="dilate"
         radius="0.59999999999999998"
         result="result3" />
      <feComposite
         id="feComposite4053"
         in2="result3"
         in="SourceGraphic"
         operator="over"
         result="composite2" />
    </filter>
    <filter
       color-interpolation-filters="sRGB"
       id="filter4055"
       inkscape:label="deevad outline effect">
      <feFlood
         id="feFlood4057"
         flood-opacity="1"
         flood-color="rgb(0,0,0)"
         result="flood" />
      <feComposite
         id="feComposite4059"
         in2="SourceGraphic"
         in="flood"
         operator="in"
         result="composite1" />
      <feMorphology
         id="feMorphology4061"
         operator="dilate"
         radius="0.59999999999999998"
         result="result3" />
      <feComposite
         id="feComposite4063"
         in2="result3"
         in="SourceGraphic"
         operator="over"
         result="composite2" />
    </filter>
    <filter
       color-interpolation-filters="sRGB"
       id="filter4065"
       inkscape:label="deevad outline effect">
      <feFlood
         id="feFlood4067"
         flood-opacity="1"
         flood-color="rgb(0,0,0)"
         result="flood" />
      <feComposite
         id="feComposite4069"
         in2="SourceGraphic"
         in="flood"
         operator="in"
         result="composite1" />
      <feMorphology
         id="feMorphology4071"
         operator="dilate"
         radius="0.59999999999999998"
         result="result3" />
      <feComposite
         id="feComposite4073"
         in2="result3"
         in="SourceGraphic"
         operator="over"
         result="composite2" />
    </filter>
    <filter
       id="filter3066"
       inkscape:label="Diffuse light"
       inkscape:menu="ABCs"
       inkscape:menu-tooltip="Basic diffuse bevel to use for building textures"
       color-interpolation-filters="sRGB">
      <feGaussianBlur
         id="feGaussianBlur3068"
         stdDeviation="6"
         in="SourceGraphic"
         result="result0" />
      <feDiffuseLighting
         id="feDiffuseLighting3070"
         diffuseConstant="1"
         surfaceScale="10"
         result="result5">
        <feDistantLight
           id="feDistantLight3072"
           elevation="25"
           azimuth="235" />
      </feDiffuseLighting>
      <feComposite
         id="feComposite3074"
         in2="SourceGraphic"
         k1="1"
         in="result5"
         result="result4"
         operator="arithmetic"
         k2="0"
         k3="0.6" />
    </filter>
  </defs>
  <sodipodi:namedview
     pagecolor="#ffffff"
     bordercolor="#666666"
     borderopacity="1"
     objecttolerance="10"
     gridtolerance="10"
     guidetolerance="10"
     inkscape:pageopacity="0"
     inkscape:pageshadow="2"
     inkscape:window-width="1280"
     inkscape:window-height="973"
     id="namedview4"
     showgrid="false"
     inkscape:zoom="0.30417501"
     inkscape:cx="1521.2371"
     inkscape:cy="2133.4728"
     inkscape:window-x="1918"
     inkscape:window-y="24"
     inkscape:window-maximized="1"
     inkscape:current-layer="layer3"
     showguides="true"
     inkscape:guide-bbox="true">
    <sodipodi:guide
       orientation="1,0"
       position="102.17391,3299.9999"
       id="guide3078" />
    <sodipodi:guide
       orientation="0,1"
       position="708.69563,3399.9999"
       id="guide3080" />
  </sodipodi:namedview>
  <g
     inkscape:groupmode="layer"
     id="layer2"
     inkscape:label="artwork"
     sodipodi:insensitive="true">
    <image
       sodipodi:absref="/home/Kdes/Arts_Crafts/2015/Translation P&amp;C/GIT/peppercarrot_ep08_translation/mx/../gfx_Pepper-and-Carrot_by-David-Revoy_E08P05.png"
       xlink:href="../gfx_Pepper-and-Carrot_by-David-Revoy_E08P05.png"
       y="0"
       x="0"
       id="image10"
       height="3503"
       width="2481" />
  </g>
  <g
     inkscape:groupmode="layer"
     id="layer3"
     inkscape:label="speechbubbles">
    <path
       style="color:#000000;display:inline;overflow:visible;visibility:visible;fill:#ffffff;fill-opacity:1;fill-rule:nonzero;stroke:none;stroke-width:1px;marker:none;enable-background:accumulate"
       d="M 107.12697,80.891866 89.92216,78.104652 93.970363,104.1186 C 66.747397,105.53016 52.56366,97.365522 33.248051,92.969788 l 30.361095,33.446302 -5.060162,9.29071 c 4.929251,5.4323 12.367039,9.13737 14.16853,16.72323 -13.752058,4.72727 -23.639503,4.72413 -35.012455,6.53928 10.701182,6.28242 19.610472,13.55167 25.904087,22.26173 l -36.433337,14.86497 33.394997,13.00488 c -25.118679,21.38505 -56.6896239,34.87222 -86.021047,51.10079 l 104.240008,-7.43264 -16.192565,16.72321 c 10.418707,8.70397 9.497982,4.39562 14.16853,6.50354 2.27448,6.26384 -35.834768,32.30813 -32.385278,29.73012 4.048219,-0.92912 38.45753,-4.64544 38.45753,-4.64544 0,0 -30.361253,26.01393 -26.313035,26.01393 4.048069,0 37.445414,-6.5035 37.445414,-6.5035 l -11.132379,25.08482 -21.761936,10.23589 -29.908612,28.28981 c 11.322193,-1.83491 16.678664,1.39205 12.653335,12.2375 -27.241603,38.61779 9.927202,72.26633 16.609239,85.41373 64.31471,-72.20016 64.56131,-78.10167 87.25859,-94.04293 21.39277,16.13948 22.19604,15.08867 37.36535,40.55283 10.95115,-16.49397 23.59669,-23.10273 40.48155,-32.51732 5.26995,9.73352 5.30524,11.98887 7.08435,22.29761 5.5059,-7.76427 7.94754,-14.51492 30.36108,-27.87202 0.78707,12.1955 0.69288,11.76026 0,28.80115 22.95771,-20.63069 22.64705,-20.55339 39.46962,-33.44645 4.42318,53.03873 7.71363,72.98437 8.81948,120.49885 19.40156,-31.98621 31.24687,-56.79937 59.99913,-103.77563 5.76987,16.06736 6.32954,19.7282 3.95545,39.24222 8.89958,-15.8574 9.49338,-20.45771 19.3216,-36.45501 6.59463,8.80206 6.22285,18.98675 3.03612,29.73012 6.21034,-13.8517 10.80112,-27.97128 28.33707,-39.94981 17.84715,9.40769 18.51843,23.07651 21.25286,36.2335 -0.86516,-16.81419 5.39222,-28.32732 20.24077,-33.4463 33.7272,26.51415 77.79296,28.25783 94.26978,63.05257 -6.39084,-36.6035 -36.66583,-41.48236 -24.43906,-74.20138 11.46976,-2.94585 22.93953,2.94625 34.40931,11.14881 l -0.82459,-37.33301 42.50572,15.84833 -24.4765,-25.89777 c 17.66181,-2.76184 43.9413,5.19296 66.79475,9.29072 l -12.14451,-25.08482 c 10.30375,0.9376 27.86387,10.7722 44.52974,19.51042 -20.47838,-23.9956 -37.70464,-39.85043 -36.43346,-62.24744 l 46.55384,4.6453 c -18.24295,-16.69993 -41.16309,-29.10598 -53.92624,-50.8362 l 40.76976,-2.12053 -38.45752,-27.87203 30.3611,-15.79409 -24.28883,-3.71633 40.48154,-33.44629 -53.63814,-2.7872 64.77052,-60.389344 -69.7152,-4.825465 L 635.4115,68.814072 593.91799,100.40229 635.4115,-9.2274616 C 601.88692,29.986163 576.05574,61.388897 530.59755,89.647175 l -14.61362,-11.009145 -16.18561,5.701364 4.04806,-31.31943 -59.71024,38.091593 6.07224,-17.65219 -18.21673,16.723218 4.04807,-23.226734 -31.37319,27.87203 2.88852,-24.284835 -15.03301,15.923215 -4.62908,-15.258686 -17.63574,9.684291 C 364.95075,40.63235 374.06871,0.37282291 380.37752,-39.886694 359.67205,6.2009844 333.37687,47.890352 298.40234,82.750087 L 287.26991,65.104135 273.38948,81.42105 259.3685,60.329582 238.25865,85.533096 C 221.56506,66.332368 211.84246,54.568364 205.29471,35.367647 208.52388,53.36273 210.8717,65.451222 206.16145,85.268365 144.53682,54.927788 146.3817,52.222133 123.31953,35.367647 117.00008,57.031228 110.70262,64.244246 107.12697,80.891866 Z"
       id="path4024"
       inkscape:connector-curvature="0"
       sodipodi:nodetypes="cccccccccccccccccsccccccccccccccccccccccccccccccccccccccccccccccccccccccccccccccccccc" />
    <path
       style="fill:#ffffff;fill-opacity:1;stroke:none"
       d="m 1588.3709,1599.2421 c 25.0732,5.9388 34.8342,12.2058 30.4966,16.6381 10.2594,1.5245 15.6916,55.703 6.4252,66.1717 -0.6064,1.0816 -4.975,4.4678 -3.0475,4.8845 1.9274,0.4165 13.3535,-1.7907 15.3273,0.1949 1.9738,1.9856 -16.2653,32.86 -13.6848,33.7641 2.5803,0.9041 60.6289,-22.2322 69.0533,-17.9861 8.425,4.2459 4.319,16.5229 6.8839,16.9042 2.5647,0.381 26.0541,-4.069 29.2564,-3.7234 3.202,0.3458 11.7926,11.903 12.6041,16.0619 2.7204,-3.0015 17.6447,-7.7917 20.2097,-7.4104 2.5648,0.3811 4.6369,10.8318 4.8789,13.8723 2.3864,-3.0592 16.8836,-11.9401 18.8113,-11.5237 1.9273,0.4167 10.8051,20.8251 12.9445,27.5678 2.8782,-4.5688 22.7313,-30.0765 24.6281,-30.706 1.8966,-0.6294 15.0731,34.7833 17.6381,35.1647 2.5648,0.3811 14.5693,-25.432 16.4969,-25.0154 1.9276,0.4166 14.4703,14.3868 17.0504,15.2908 2.5805,0.904 18.1619,-33.4893 20.7111,-33.6312 2.5496,-0.1419 24.6369,12.7732 26.6264,15.2817 1.9893,2.5086 3.4218,-13.8107 5.9714,-13.9525 2.5492,-0.1418 32.1457,7.6408 32.7677,7.0824 0.6217,-0.5584 -4.7708,-10.2115 -2.8586,-10.3179 32.5218,4.0124 72.9322,9.8792 103.2469,15.7332 -12.8597,-12.4494 -29.9486,-41.2896 -26.8549,-44.6048 3.0941,-3.3153 14.6747,-0.2927 15.2656,-1.8971 0.591,-1.6044 -7.2581,-7.9778 -5.4082,-10.1763 1.8504,-2.1982 25.1074,-14.4932 25.1074,-14.4932 0,0 -9.8383,-8.8821 -7.3355,-10.5929 2.503,-1.7109 26.7862,-14.0951 40.373,-16.3903 -5.3389,-2.0523 -19.5688,-14.1029 -17.128,-17.9057 2.4413,-3.8028 3.712,-4.9052 8.6909,-8.3414 -2.4548,-1.4028 -12.9171,-5.0436 -12.3568,-7.6941 0.5601,-2.6505 6.5467,-16.08 8.3971,-18.2783 1.8501,-2.1983 -13.4154,-0.3013 -13.4773,-2.3933 -0.062,-2.0919 -3.4446,-19.7273 49.2938,-54.761 -71.0451,20.4595 -95.9682,9.0744 -117.1242,6.0608 -21.1566,-3.0137 -9.0975,-16.205 -4.0681,-29.5443 -12.0519,8.1911 -27.1244,12.405 -29.8009,6.8967 -3.2948,-3.4836 -3.4095,-2.097 -7.3202,-10.0698 -12.4957,11.8443 -16.7756,15.6012 -19.9774,15.2557 -3.2025,-0.3457 -27.9547,-6.8043 -38.315,-21.9655 -12.2891,11.6479 -21.4069,10.0967 -25.2157,10.8323 -3.8086,0.7359 -6.2196,-3.5328 -10.5377,-10.9383 -3.156,1.2231 -23.2726,11.7719 -26.4902,10.9031 -3.2177,-0.8686 -2.9904,1.1377 -8.4094,-3.7226 -2.5183,1.1876 -13.867,6.01 -13.867,6.01 0,0 -7.1917,2.6565 -12.2022,-2.4643 -10.3123,12.7819 -26.2337,17.3381 -32.601,20.1489 -6.0269,-3.0778 -31.7678,-38.0455 -29.9486,-41.2898 1.8192,-3.2444 -27.3974,45.0043 -31.8124,46.8215 -4.4151,1.8172 -13.2634,2.5627 -19.1667,-0.5051 -1.2285,1.6399 -4.805,10.2205 -8.6139,10.9563 -3.8085,0.7357 -12.6694,3.3241 -12.6694,3.3241 l 1.3674,3.0672 c 0,0 -27.0161,-6.8785 -30.2957,-9.8392 -3.2795,-2.9606 2.3142,13.4914 4.3499,17.569 -11.5958,-3.5457 -45.6382,-10.557 -48.2648,-13.0302 -2.6268,-2.4731 4.7394,9.1658 8.6719,12.6139 -5.1451,-1.2853 -9.6221,-1.56 -9.6221,-1.56 l 15.03,11.7361 -4.4303,1.2944 c 0,0 9.7303,5.2209 9.8077,7.836 0.077,2.615 -24.6866,7.1358 -24.6866,7.1358 0,0 10.3368,4.1395 7.8648,6.8963 -2.4723,2.7569 -8.7992,4.6804 -8.7992,4.6804 l -1.0737,6.87 z"
       id="path5888"
       inkscape:connector-curvature="0"
       sodipodi:nodetypes="ccccccscccscccccscscsccccscccccccsscscccccccccccccccccccccccccsccccc" />
    <path
       style="color:#000000;fill:#ffffff;fill-opacity:1;fill-rule:nonzero;stroke:none;stroke-width:1px;marker:none;visibility:visible;display:inline;overflow:visible;enable-background:accumulate"
       d="M 807.29732,561.67147 C 755.58328,503.03368 695.30114,453.73285 653.54208,384.24679 l 0.24868,68.89257 C 628.1843,408.40611 637.96807,430.98231 619.38102,393.70889 l -18.01992,60.2902 C 581.49182,352.89275 565.95564,295.60802 556.10793,226.03045 L 444.14786,381.17687 c 55.50166,40.78524 116.41598,69.85083 165.82926,123.81844 l 16.73046,-38.36491 c 19.40004,15.60182 29.06638,22.96298 45.53232,43.9994 l 8.49089,-51.08249 z"
       id="path4032"
       inkscape:connector-curvature="0"
       sodipodi:nodetypes="cccccccccccc" />
    <flowRoot
       xml:space="preserve"
       id="flowRoot2987-4-9-3"
       style="font-style:normal;font-variant:normal;font-weight:normal;font-stretch:normal;font-size:12px;line-height:125%;font-family:Lavi;-inkscape-font-specification:Lavi;text-align:center;letter-spacing:0px;word-spacing:0px;text-anchor:middle;fill:#000000;fill-opacity:1;stroke:none"
       transform="translate(-29.715816,-94.27479)"><flowRegion
         id="flowRegion2989-5-4-5"><rect
           id="rect2991-7-9-6"
           width="602.40173"
           height="310.73996"
           x="120.55251"
           y="265.53046"
           style="font-style:normal;font-variant:normal;font-weight:normal;font-stretch:normal;font-family:Lavi;-inkscape-font-specification:Lavi;text-align:center;text-anchor:middle" /></flowRegion><flowPara
         style="font-size:48px;text-align:center;text-anchor:middle"
         id="flowPara3009">¡¡¿ Cómo pudieron</flowPara><flowPara
         style="font-size:48px;text-align:center;text-anchor:middle"
         id="flowPara3424">hacerme esto... </flowPara><flowPara
         style="font-size:48px;text-align:center;text-anchor:middle"
         id="flowPara3011">a        ?!!</flowPara></flowRoot>    <flowRoot
       xml:space="preserve"
       id="flowRoot2987-4-9-3-0"
       style="font-style:normal;font-variant:normal;font-weight:normal;font-stretch:normal;font-size:12px;line-height:125%;font-family:Lavi;-inkscape-font-specification:Lavi;text-align:center;letter-spacing:0px;word-spacing:0px;text-anchor:middle;fill:#000000;fill-opacity:1;stroke:none"
       transform="matrix(1.2147869,0,0,1.2147869,-139.78768,-40.854418)"><flowRegion
         id="flowRegion2989-5-4-5-1"><rect
           id="rect2991-7-9-6-4"
           width="602.40173"
           height="310.73996"
           x="120.55251"
           y="265.53046"
           style="font-style:normal;font-variant:normal;font-weight:normal;font-stretch:normal;font-family:Lavi;-inkscape-font-specification:Lavi;text-align:center;text-anchor:middle" /></flowRegion><flowPara
         style="font-style:italic;font-weight:bold;font-size:48px;-inkscape-font-specification:'Lavi Bold Italic';text-align:center;letter-spacing:1.5px;text-anchor:middle;stroke:#000000;stroke-width:3.15775537;stroke-miterlimit:4;stroke-dasharray:none;stroke-opacity:1"
         id="flowPara3030-8-7"> mí</flowPara></flowRoot>    <flowRoot
       xml:space="preserve"
       id="flowRoot3805"
       style="font-size:12px;font-style:normal;font-variant:normal;font-weight:normal;font-stretch:normal;line-height:125%;letter-spacing:0px;word-spacing:0px;fill:#000000;fill-opacity:1;stroke:none;font-family:Arial;-inkscape-font-specification:Arial"><flowRegion
         id="flowRegion3807"><rect
           id="rect3809"
           width="371.73911"
           height="402.17389"
           x="1565.2173"
           y="587.78271" /></flowRegion><flowPara
         id="flowPara3811" /></flowRoot>    <flowRoot
       xml:space="preserve"
       id="flowRoot2987-4-9-3-8"
       style="font-style:normal;font-variant:normal;font-weight:normal;font-stretch:normal;font-size:12px;line-height:125%;font-family:Lavi;-inkscape-font-specification:Lavi;text-align:center;letter-spacing:0px;word-spacing:0px;text-anchor:middle;opacity:0.75348834;fill:#c5a18a;fill-opacity:1;stroke:none;filter:url(#filter3066)"
       transform="matrix(0.75657286,-0.2150653,0.23488287,0.7872367,1451.7447,15.727537)"><flowRegion
         id="flowRegion2989-5-4-5-4"><rect
           id="rect2991-7-9-6-3"
           width="602.40173"
           height="310.73996"
           x="120.55251"
           y="265.53046"
           style="font-style:normal;font-variant:normal;font-weight:normal;font-stretch:normal;font-family:Lavi;-inkscape-font-specification:Lavi;text-align:center;text-anchor:middle;fill:#c5a18a;fill-opacity:1" /></flowRegion><flowPara
         style="font-style:normal;font-variant:normal;font-weight:normal;font-stretch:normal;font-size:48px;font-family:Fondamento;-inkscape-font-specification:Fondamento;text-align:center;text-anchor:middle;fill:#c5a18a;fill-opacity:1"
         id="flowPara3826">Conjuros de</flowPara><flowPara
         style="font-style:normal;font-variant:normal;font-weight:normal;font-stretch:normal;font-size:48px;font-family:Fondamento;-inkscape-font-specification:Fondamento;text-align:center;text-anchor:middle;fill:#c5a18a;fill-opacity:1"
         id="flowPara3432">Demonios</flowPara><flowPara
         style="font-style:normal;font-variant:normal;font-weight:normal;font-stretch:normal;font-size:48px;font-family:Fondamento;-inkscape-font-specification:Fondamento;text-align:center;text-anchor:middle;fill:#c5a18a;fill-opacity:1"
         id="flowPara3828">CHAOSAH</flowPara><flowPara
         style="font-style:normal;font-variant:normal;font-weight:normal;font-stretch:normal;font-size:48px;font-family:Fondamento;-inkscape-font-specification:Fondamento;text-align:center;text-anchor:middle;fill:#c5a18a;fill-opacity:1"
         id="flowPara3830">Vol .1</flowPara></flowRoot>    <flowRoot
       xml:space="preserve"
       id="flowRoot2987-4-9-3-7"
       style="font-style:normal;font-variant:normal;font-weight:normal;font-stretch:normal;font-size:12px;line-height:125%;font-family:Lavi;-inkscape-font-specification:Lavi;text-align:center;letter-spacing:0px;word-spacing:0px;text-anchor:middle;fill:#000000;fill-opacity:1;stroke:none"
       transform="translate(1437.4887,1288.2943)"><flowRegion
         id="flowRegion2989-5-4-5-6"><rect
           id="rect2991-7-9-6-7"
           width="602.40173"
           height="310.73996"
           x="120.55251"
           y="265.53046"
           style="font-style:normal;font-variant:normal;font-weight:normal;font-stretch:normal;font-family:Lavi;-inkscape-font-specification:Lavi;text-align:center;text-anchor:middle" /></flowRegion><flowPara
         style="font-size:48px;text-align:center;text-anchor:middle"
         id="flowPara3891">... ¡ya que no puedo</flowPara><flowPara
         style="font-size:48px;text-align:center;text-anchor:middle"
         id="flowPara3425">contar con ellas!</flowPara></flowRoot>    <path
       style="color:#000000;fill:#ffffff;fill-opacity:1;fill-rule:nonzero;stroke:none;stroke-width:1px;marker:none;visibility:visible;display:inline;overflow:visible;enable-background:accumulate"
       d="m 1889.0397,1689.3949 c -18.4523,28.3798 -51.1226,88.4968 -53.6964,103.6923 24.9455,9.8716 63.3606,38.7994 61.4454,43.4826 -1.9154,4.6832 -64.3114,57.1793 -62.1183,64.6368 2.1932,7.4574 17.4097,29.1871 26.1857,34.615 -23.9099,-18.6352 -40.7903,-34.5159 -40.9424,-46.0736 -0.5159,-7.819 48.671,-48.3166 52.2072,-50.9091 -18.4319,-14.9363 -59.2654,-41.5126 -63.9461,-49.6536 1.5251,-11.9193 7.4437,-57.7273 34.6061,-108.1162 27.1625,-50.3889 46.2588,8.3258 46.2588,8.3258 z"
       id="path5901"
       inkscape:connector-curvature="0"
       sodipodi:nodetypes="ccccccccsc" />
    <flowRoot
       xml:space="preserve"
       id="flowRoot4133-6-9-4-8-5"
       style="color:#000000;font-style:normal;font-variant:normal;font-weight:normal;font-stretch:normal;font-size:12px;line-height:125%;font-family:Arial;-inkscape-font-specification:Arial;letter-spacing:0.00204969px;word-spacing:0px;display:inline;overflow:visible;visibility:visible;fill:#ffffff;fill-opacity:1;fill-rule:nonzero;stroke:#ffffff;stroke-width:0.0836072;stroke-linecap:butt;stroke-linejoin:miter;stroke-miterlimit:4;stroke-dasharray:none;stroke-dashoffset:0;stroke-opacity:1;marker:none;enable-background:accumulate;filter:url(#filter4375-4-1-1-15-1-3)"
       transform="matrix(10.283923,-1.1779802,-12.443827,20.606946,2230.79,-17941.119)"><flowRegion
         id="flowRegion4135-2-9-3-5-2"
         style="stroke-width:0.86646658"><rect
           id="rect4137-1-7-1-2-1"
           width="115.42822"
           height="31.679224"
           x="1125.3193"
           y="1078.5308"
           style="color:#000000;letter-spacing:0.00204969px;display:inline;overflow:visible;visibility:visible;fill:#ffffff;fill-opacity:1;fill-rule:nonzero;stroke:#ffffff;stroke-width:0.0836072;stroke-linecap:butt;stroke-linejoin:miter;stroke-miterlimit:4;stroke-dasharray:none;stroke-dashoffset:0;stroke-opacity:1;marker:none;enable-background:accumulate" /></flowRegion><flowPara
         id="flowPara4139-2-8-6-8-6"
         style="color:#000000;font-style:normal;font-variant:normal;font-weight:normal;font-stretch:normal;line-height:125%;font-family:Lavi;-inkscape-font-specification:Lavi;letter-spacing:0.00204969px;word-spacing:0.00204969px;display:inline;overflow:visible;visibility:visible;fill:#ffffff;fill-opacity:1;fill-rule:nonzero;stroke:#ffffff;stroke-width:0.0836072;stroke-linecap:butt;stroke-linejoin:miter;stroke-miterlimit:4;stroke-dasharray:none;stroke-dashoffset:0;stroke-opacity:1;marker:none;enable-background:accumulate"><flowSpan
   id="flowSpan4823"
   style="color:#000000;font-size:8.55645752px;display:inline;overflow:visible;visibility:visible;fill:#ffffff;fill-opacity:1;fill-rule:nonzero;stroke:#ffffff;stroke-width:0.0836072;stroke-linecap:butt;stroke-linejoin:miter;stroke-miterlimit:4;stroke-dasharray:none;stroke-dashoffset:0;stroke-opacity:1;marker:none;enable-background:accumulate">Z</flowSpan><flowSpan
   style="color:#000000;font-size:9.90925312px;display:inline;overflow:visible;visibility:visible;fill:#ffffff;fill-opacity:1;fill-rule:nonzero;stroke:#ffffff;stroke-width:0.0836072;stroke-linecap:butt;stroke-linejoin:miter;stroke-miterlimit:4;stroke-dasharray:none;stroke-dashoffset:0;stroke-opacity:1;marker:none;enable-background:accumulate"
   id="flowSpan4271-5">Z</flowSpan>ZO<flowSpan
   id="flowSpan4277-2"
   style="color:#000000;font-size:17.85409164px;display:inline;overflow:visible;visibility:visible;fill:#ffffff;fill-opacity:1;fill-rule:nonzero;stroke:#ffffff;stroke-width:0.0836072;stroke-linecap:butt;stroke-linejoin:miter;stroke-miterlimit:4;stroke-dasharray:none;stroke-dashoffset:0;stroke-opacity:1;marker:none;enable-background:accumulate">O<flowSpan
   style="font-size:20.70208168px"
   id="flowSpan4005">OMM</flowSpan></flowSpan></flowPara></flowRoot>  </g>
  <g
     inkscape:groupmode="layer"
     id="layer1"
     inkscape:label="txt" />
</svg>
