<?xml version="1.0" encoding="UTF-8" standalone="no"?>
<!-- Created with Inkscape (http://www.inkscape.org/) -->

<svg
   xmlns:dc="http://purl.org/dc/elements/1.1/"
   xmlns:cc="http://creativecommons.org/ns#"
   xmlns:rdf="http://www.w3.org/1999/02/22-rdf-syntax-ns#"
   xmlns:svg="http://www.w3.org/2000/svg"
   xmlns="http://www.w3.org/2000/svg"
   xmlns:xlink="http://www.w3.org/1999/xlink"
   xmlns:sodipodi="http://sodipodi.sourceforge.net/DTD/sodipodi-0.dtd"
   xmlns:inkscape="http://www.inkscape.org/namespaces/inkscape"
   id="svg2"
   version="1.1"
   inkscape:version="0.91 r13725"
   width="2481"
   height="3503"
   sodipodi:docname="Pepper-and-Carrot_by-David-Revoy_E08P05.svg">
  <metadata
     id="metadata8">
    <rdf:RDF>
      <cc:Work
         rdf:about="">
        <dc:format>image/svg+xml</dc:format>
        <dc:type
           rdf:resource="http://purl.org/dc/dcmitype/StillImage" />
        <dc:title />
      </cc:Work>
    </rdf:RDF>
  </metadata>
  <defs
     id="defs6">
    <filter
       color-interpolation-filters="sRGB"
       id="filter4375-4-1-1-15-1-3"
       inkscape:label="deevad outline effect">
      <feFlood
         id="feFlood4377-7-9-0-4-4-4"
         flood-opacity="0.90476190476190477"
         flood-color="rgb(250,62,62)"
         result="flood" />
      <feComposite
         id="feComposite4379-3-8-8-6-0-7"
         in2="SourceGraphic"
         in="flood"
         operator="in"
         result="composite1" />
      <feMorphology
         id="feMorphology4393-1-0-49-8-2-7"
         operator="dilate"
         radius="0.59999999999999998"
         result="result3" />
      <feComposite
         id="feComposite4385-9-5-7-2-1-2"
         in2="result3"
         in="SourceGraphic"
         operator="over"
         result="composite2" />
    </filter>
    <filter
       color-interpolation-filters="sRGB"
       id="filter4005"
       inkscape:label="deevad outline effect">
      <feFlood
         id="feFlood4007"
         flood-opacity="1"
         flood-color="rgb(0,0,0)"
         result="flood" />
      <feComposite
         id="feComposite4009"
         in2="SourceGraphic"
         in="flood"
         operator="in"
         result="composite1" />
      <feMorphology
         id="feMorphology4011"
         operator="dilate"
         radius="0.59999999999999998"
         result="result3" />
      <feComposite
         id="feComposite4013"
         in2="result3"
         in="SourceGraphic"
         operator="over"
         result="composite2" />
    </filter>
    <filter
       color-interpolation-filters="sRGB"
       id="filter4015"
       inkscape:label="deevad outline effect">
      <feFlood
         id="feFlood4017"
         flood-opacity="1"
         flood-color="rgb(0,0,0)"
         result="flood" />
      <feComposite
         id="feComposite4019"
         in2="SourceGraphic"
         in="flood"
         operator="in"
         result="composite1" />
      <feMorphology
         id="feMorphology4021"
         operator="dilate"
         radius="0.59999999999999998"
         result="result3" />
      <feComposite
         id="feComposite4023"
         in2="result3"
         in="SourceGraphic"
         operator="over"
         result="composite2" />
    </filter>
    <filter
       color-interpolation-filters="sRGB"
       id="filter4025"
       inkscape:label="deevad outline effect">
      <feFlood
         id="feFlood4027"
         flood-opacity="1"
         flood-color="rgb(0,0,0)"
         result="flood" />
      <feComposite
         id="feComposite4029"
         in2="SourceGraphic"
         in="flood"
         operator="in"
         result="composite1" />
      <feMorphology
         id="feMorphology4031"
         operator="dilate"
         radius="0.59999999999999998"
         result="result3" />
      <feComposite
         id="feComposite4033"
         in2="result3"
         in="SourceGraphic"
         operator="over"
         result="composite2" />
    </filter>
    <filter
       color-interpolation-filters="sRGB"
       id="filter4035"
       inkscape:label="deevad outline effect">
      <feFlood
         id="feFlood4037"
         flood-opacity="1"
         flood-color="rgb(0,0,0)"
         result="flood" />
      <feComposite
         id="feComposite4039"
         in2="SourceGraphic"
         in="flood"
         operator="in"
         result="composite1" />
      <feMorphology
         id="feMorphology4041"
         operator="dilate"
         radius="0.59999999999999998"
         result="result3" />
      <feComposite
         id="feComposite4043"
         in2="result3"
         in="SourceGraphic"
         operator="over"
         result="composite2" />
    </filter>
    <filter
       color-interpolation-filters="sRGB"
       id="filter4045"
       inkscape:label="deevad outline effect">
      <feFlood
         id="feFlood4047"
         flood-opacity="1"
         flood-color="rgb(0,0,0)"
         result="flood" />
      <feComposite
         id="feComposite4049"
         in2="SourceGraphic"
         in="flood"
         operator="in"
         result="composite1" />
      <feMorphology
         id="feMorphology4051"
         operator="dilate"
         radius="0.59999999999999998"
         result="result3" />
      <feComposite
         id="feComposite4053"
         in2="result3"
         in="SourceGraphic"
         operator="over"
         result="composite2" />
    </filter>
    <filter
       color-interpolation-filters="sRGB"
       id="filter4055"
       inkscape:label="deevad outline effect">
      <feFlood
         id="feFlood4057"
         flood-opacity="1"
         flood-color="rgb(0,0,0)"
         result="flood" />
      <feComposite
         id="feComposite4059"
         in2="SourceGraphic"
         in="flood"
         operator="in"
         result="composite1" />
      <feMorphology
         id="feMorphology4061"
         operator="dilate"
         radius="0.59999999999999998"
         result="result3" />
      <feComposite
         id="feComposite4063"
         in2="result3"
         in="SourceGraphic"
         operator="over"
         result="composite2" />
    </filter>
    <filter
       color-interpolation-filters="sRGB"
       id="filter4065"
       inkscape:label="deevad outline effect">
      <feFlood
         id="feFlood4067"
         flood-opacity="1"
         flood-color="rgb(0,0,0)"
         result="flood" />
      <feComposite
         id="feComposite4069"
         in2="SourceGraphic"
         in="flood"
         operator="in"
         result="composite1" />
      <feMorphology
         id="feMorphology4071"
         operator="dilate"
         radius="0.59999999999999998"
         result="result3" />
      <feComposite
         id="feComposite4073"
         in2="result3"
         in="SourceGraphic"
         operator="over"
         result="composite2" />
    </filter>
    <filter
       id="filter3066"
       inkscape:label="Diffuse light"
       inkscape:menu="ABCs"
       inkscape:menu-tooltip="Basic diffuse bevel to use for building textures"
       color-interpolation-filters="sRGB">
      <feGaussianBlur
         id="feGaussianBlur3068"
         stdDeviation="6"
         in="SourceGraphic"
         result="result0" />
      <feDiffuseLighting
         id="feDiffuseLighting3070"
         diffuseConstant="1"
         surfaceScale="10"
         result="result5">
        <feDistantLight
           id="feDistantLight3072"
           elevation="25"
           azimuth="235" />
      </feDiffuseLighting>
      <feComposite
         id="feComposite3074"
         in2="SourceGraphic"
         k1="1"
         in="result5"
         result="result4"
         operator="arithmetic"
         k2="0"
         k3="0.6" />
    </filter>
  </defs>
  <sodipodi:namedview
     pagecolor="#ffffff"
     bordercolor="#666666"
     borderopacity="1"
     objecttolerance="10"
     gridtolerance="10"
     guidetolerance="10"
     inkscape:pageopacity="0"
     inkscape:pageshadow="2"
     inkscape:window-width="1920"
     inkscape:window-height="1056"
     id="namedview4"
     showgrid="false"
     inkscape:zoom="0.60835002"
     inkscape:cx="1522.1023"
     inkscape:cy="1544.9958"
     inkscape:window-x="-2"
     inkscape:window-y="-3"
     inkscape:window-maximized="1"
     inkscape:current-layer="layer3"
     showguides="true"
     inkscape:guide-bbox="true">
    <sodipodi:guide
       orientation="1,0"
       position="102.17391,3299.9999"
       id="guide3078" />
    <sodipodi:guide
       orientation="0,1"
       position="708.69563,3399.9999"
       id="guide3080" />
  </sodipodi:namedview>
  <g
     inkscape:groupmode="layer"
     id="layer2"
     inkscape:label="artwork"
     sodipodi:insensitive="true">
    <image
       sodipodi:absref="/home/Kdes/Arts_Crafts/2015/Translation P&amp;C/GIT/peppercarrot_ep08_translation/mx/../gfx_Pepper-and-Carrot_by-David-Revoy_E08P05.png"
       xlink:href="../gfx_Pepper-and-Carrot_by-David-Revoy_E08P05.png"
       width="2481"
       height="3503"
       id="image10"
       x="0"
       y="0" />
  </g>
  <g
     inkscape:groupmode="layer"
     id="layer3"
     inkscape:label="speechbubbles">
    <path
       style="color:#000000;fill:#ffffff;fill-opacity:1;fill-rule:nonzero;stroke:none;stroke-width:1px;marker:none;visibility:visible;display:inline;overflow:visible;enable-background:accumulate"
       d="M 116.08688,80.891866 97.719329,78.104652 102.04112,104.1186 C 72.978355,105.53016 57.836044,97.365522 37.215035,92.969788 l 32.412977,33.446302 -5.402141,9.29071 c 5.262383,5.4323 13.202836,9.13737 15.126077,16.72323 -14.681458,4.72727 -25.237123,4.72413 -37.378689,6.53928 11.424396,6.28242 20.935799,13.55167 27.654753,22.26173 l -38.895597,14.86497 35.651918,13.00488 c -26.816265,21.38505 -60.5208566,34.87222 -91.834574,51.10079 l 111.28482,-7.43264 -17.2869,16.72321 c 11.12283,8.70397 10.13988,4.39562 15.126076,6.50354 2.428195,6.26384 -38.256576,32.30813 -34.57396,29.73012 4.321808,-0.92912 41.056591,-4.64544 41.056591,-4.64544 0,0 -32.413146,26.01393 -28.091339,26.01393 4.321648,0 39.976073,-6.5035 39.976073,-6.5035 l -11.884734,25.08482 -23.232665,10.23589 -31.929914,28.28981 c 12.087376,-1.83491 17.805851,1.39205 13.50848,12.2375 -29.082662,38.61779 10.598108,72.26633 17.731735,85.41373 68.661268,-72.20016 68.924528,-78.10167 93.155758,-94.04293 22.83854,16.13948 23.6961,15.08867 39.89059,40.55283 11.69126,-16.49397 25.19142,-23.10273 43.2174,-32.51732 5.62611,9.73352 5.66379,11.98887 7.56313,22.29761 5.87801,-7.76427 8.48466,-14.51492 32.41296,-27.87202 0.84026,12.1955 0.73971,11.76026 0,28.80115 24.50926,-20.63069 24.1776,-20.55339 42.13708,-33.44645 4.72211,53.03873 8.23494,72.98437 9.41553,120.49885 20.71277,-31.98621 33.35861,-56.79937 64.05402,-103.77563 6.15982,16.06736 6.75731,19.7282 4.22277,39.24222 9.50104,-15.8574 10.13497,-20.45771 20.62741,-36.45501 7.04031,8.80206 6.64341,18.98675 3.24131,29.73012 6.63005,-13.8517 11.53109,-27.97128 30.25216,-39.94981 19.05331,9.40769 19.76995,23.07651 22.68919,36.2335 -0.92363,-16.81419 5.75664,-28.32732 21.60869,-33.4463 36.00657,26.51415 83.05041,28.25783 100.64078,63.05257 -6.82275,-36.6035 -39.14381,-41.48236 -26.09072,-74.20138 12.24492,-2.94585 24.48984,2.94625 36.73478,11.14881 l -0.88032,-37.33301 45.37837,15.84833 -26.13068,-25.89777 c 18.85544,-2.76184 46.91096,5.19296 71.30891,9.29072 l -12.96527,-25.08482 c 11.00011,0.9376 29.74699,10.7722 47.53918,19.51042 -21.86236,-23.9956 -40.25282,-39.85043 -38.89573,-62.24744 l 49.70007,4.6453 c -19.47586,-16.69993 -43.945,-29.10598 -57.57072,-50.8362 l 43.52509,-2.12053 -41.05658,-27.87203 32.41298,-15.79409 -25.93033,-3.71633 43.21739,-33.44629 -57.26315,-2.7872 69.14789,-60.389344 -74.42674,-4.825465 0.95705,-25.833639 -44.29775,31.588218 44.29775,-109.6297516 C 644.28401,29.986163 616.70709,61.388897 568.17671,89.647175 l -15.60124,-11.009145 -17.27948,5.701364 4.32164,-31.31943 -63.74561,38.091593 6.48261,-17.65219 -19.44786,16.723218 4.32165,-23.226734 -33.49347,27.87203 3.08373,-24.284835 -16.04898,15.923215 -4.94193,-15.258686 -18.82761,9.684291 C 391.33507,40.63235 401.06925,0.37282291 407.80442,-39.886694 385.69962,6.2009844 357.62734,47.890352 320.28914,82.750087 L 308.40436,65.104135 293.58585,81.42105 278.6173,60.329582 256.08079,85.533096 C 238.259,66.332368 227.87932,54.568364 220.88906,35.367647 c 3.4474,17.995083 5.95389,30.083575 0.92531,49.900718 -65.78938,-30.340577 -63.81982,-33.046232 -88.44059,-49.900718 -6.74653,21.663581 -13.46959,28.876599 -17.2869,45.524219 z"
       id="path4024"
       inkscape:connector-curvature="0"
       sodipodi:nodetypes="cccccccccccccccccsccccccccccccccccccccccccccccccccccccccccccccccccccccccccccccccccccc" />
    <path
       style="fill:#ffffff;fill-opacity:1;stroke:none"
       d="m 1539.0572,1599.2421 c 29.3712,5.9388 40.8055,12.2058 35.7242,16.6381 12.018,1.5245 18.3815,55.703 7.5266,66.1717 -0.7103,1.0816 -5.8278,4.4678 -3.5699,4.8845 2.2578,0.4165 15.6426,-1.7907 17.9547,0.1949 2.3122,1.9856 -19.0534,32.86 -16.0306,33.7641 3.0226,0.9041 71.0217,-22.2322 80.8903,-17.9861 9.8691,4.2459 5.0594,16.5229 8.0639,16.9042 3.0044,0.381 30.5203,-4.069 34.2715,-3.7234 3.7508,0.3458 13.8141,11.903 14.7646,16.0619 3.1867,-3.0015 20.6694,-7.7917 23.6741,-7.4104 3.0044,0.3811 5.4317,10.8318 5.7152,13.8723 2.7955,-3.0592 19.7778,-11.9401 22.0359,-11.5237 2.2577,0.4167 12.6572,20.8251 15.1634,27.5678 3.3716,-4.5688 26.6279,-30.0765 28.8498,-30.706 2.2217,-0.6294 17.6569,34.7833 20.6616,35.1647 3.0045,0.3811 17.0668,-25.432 19.3248,-25.0154 2.258,0.4166 16.9507,14.3868 19.9732,15.2908 3.0227,0.904 21.2751,-33.4893 24.2613,-33.6312 2.9866,-0.1419 28.8601,12.7732 31.1906,15.2817 2.3303,2.5086 4.0084,-13.8107 6.9951,-13.9525 2.9862,-0.1418 37.6559,7.6408 38.3845,7.0824 0.7283,-0.5584 -5.5885,-10.2115 -3.3486,-10.3179 38.0968,4.0124 85.4342,9.8792 120.9453,15.7332 -15.064,-12.4494 -35.0823,-41.2896 -31.4582,-44.6048 3.6245,-3.3153 17.1902,-0.2927 17.8824,-1.8971 0.6922,-1.6044 -8.5024,-7.9778 -6.3353,-10.1763 2.1676,-2.1982 29.4113,-14.4932 29.4113,-14.4932 0,0 -11.5248,-8.8821 -8.593,-10.5929 2.9321,-1.7109 31.3778,-14.0951 47.2936,-16.3903 -6.254,-2.0523 -22.9232,-14.1029 -20.0639,-17.9057 2.8597,-3.8028 4.3482,-4.9052 10.1806,-8.3414 -2.8756,-1.4028 -15.1313,-5.0436 -14.475,-7.6941 0.6561,-2.6505 7.669,-16.08 9.8365,-18.2783 2.1673,-2.1983 -15.715,-0.3013 -15.7875,-2.3933 -0.073,-2.0919 -4.035,-19.7273 57.7437,-54.761 -83.2235,20.4595 -112.419,9.0744 -137.2015,6.0608 -24.7832,-3.0137 -10.657,-16.205 -4.7654,-29.5443 -14.1178,8.1911 -31.774,12.405 -34.9093,6.8967 -3.8597,-3.4836 -3.994,-2.097 -8.575,-10.0698 -14.6377,11.8443 -19.6512,15.6012 -23.4019,15.2557 -3.7514,-0.3457 -32.7467,-6.8043 -44.883,-21.9655 -14.3956,11.6479 -25.0764,10.0967 -29.538,10.8323 -4.4615,0.7359 -7.2858,-3.5328 -12.344,-10.9383 -3.697,1.2231 -27.262,11.7719 -31.0312,10.9031 -3.7692,-0.8686 -3.503,1.1377 -9.8509,-3.7226 -2.95,1.1876 -16.244,6.01 -16.244,6.01 0,0 -8.4245,2.6565 -14.294,-2.4643 -12.0799,12.7819 -30.7305,17.3381 -38.1893,20.1489 -7.0601,-3.0778 -37.2134,-38.0455 -35.0824,-41.2898 2.1311,-3.2444 -32.0938,45.0043 -37.2656,46.8215 -5.1719,1.8172 -15.537,2.5627 -22.4522,-0.5051 -1.4392,1.6399 -5.6287,10.2205 -10.0904,10.9563 -4.4614,0.7357 -14.8413,3.3241 -14.8413,3.3241 l 1.6019,3.0672 c 0,0 -31.6472,-6.8785 -35.489,-9.8392 -3.8417,-2.9606 2.7109,13.4914 5.0955,17.569 -13.5834,-3.5457 -53.4614,-10.557 -56.5382,-13.0302 -3.0771,-2.4731 5.5519,9.1658 10.1584,12.6139 -6.027,-1.2853 -11.2714,-1.56 -11.2714,-1.56 l 17.6064,11.7361 -5.1897,1.2944 c 0,0 11.3982,5.2209 11.4888,7.836 0.09,2.615 -28.9183,7.1358 -28.9183,7.1358 0,0 12.1088,4.1395 9.2129,6.8963 -2.896,2.7569 -10.3075,4.6804 -10.3075,4.6804 l -1.2577,6.87 z"
       id="path5888"
       inkscape:connector-curvature="0"
       sodipodi:nodetypes="ccccccscccscccccscscsccccscccccccsscscccccccccccccccccccccccccsccccc" />
    <path
       style="color:#000000;fill:#ffffff;fill-opacity:1;fill-rule:nonzero;stroke:none;stroke-width:1px;marker:none;visibility:visible;display:inline;overflow:visible;enable-background:accumulate"
       d="M 807.29732,561.67147 C 755.58328,503.03368 695.30114,453.73285 653.54208,384.24679 l 0.24868,68.89257 C 628.1843,408.40611 637.96807,430.98231 619.38102,393.70889 l -18.01992,60.2902 C 581.49182,352.89275 565.95564,295.60802 556.10793,226.03045 L 444.14786,381.17687 c 55.50166,40.78524 116.41598,69.85083 165.82926,123.81844 l 16.73046,-38.36491 c 19.40004,15.60182 29.06638,22.96298 45.53232,43.9994 l 8.49089,-51.08249 z"
       id="path4032"
       inkscape:connector-curvature="0"
       sodipodi:nodetypes="cccccccccccc" />
    <flowRoot
       xml:space="preserve"
       id="flowRoot2987-4-9-3"
       style="font-style:normal;font-variant:normal;font-weight:normal;font-stretch:normal;font-size:12px;line-height:125%;font-family:Lavi;-inkscape-font-specification:Lavi;text-align:center;letter-spacing:0px;word-spacing:0px;text-anchor:middle;fill:#000000;fill-opacity:1;stroke:none"
       transform="translate(-29.715816,-94.27479)"><flowRegion
         id="flowRegion2989-5-4-5"><rect
           id="rect2991-7-9-6"
           width="602.40173"
           height="310.73996"
           x="120.55251"
           y="265.53046"
           style="font-style:normal;font-variant:normal;font-weight:normal;font-stretch:normal;font-family:Lavi;-inkscape-font-specification:Lavi;text-align:center;text-anchor:middle" /></flowRegion><flowPara
         style="font-size:48px;text-align:center;text-anchor:middle"
         id="flowPara3009">¡¡¿ Cómo pudieron</flowPara><flowPara
         style="font-size:48px;text-align:center;text-anchor:middle"
         id="flowPara3424">hacerme esto... </flowPara><flowPara
         style="font-size:48px;text-align:center;text-anchor:middle"
         id="flowPara3011">a        ?!!</flowPara></flowRoot>    <flowRoot
       xml:space="preserve"
       id="flowRoot2987-4-9-3-0"
       style="font-style:normal;font-variant:normal;font-weight:normal;font-stretch:normal;font-size:12px;line-height:125%;font-family:Lavi;-inkscape-font-specification:Lavi;text-align:center;letter-spacing:0px;word-spacing:0px;text-anchor:middle;fill:#000000;fill-opacity:1;stroke:none"
       transform="matrix(1.2147869,0,0,1.2147869,-139.78768,-40.854418)"><flowRegion
         id="flowRegion2989-5-4-5-1"><rect
           id="rect2991-7-9-6-4"
           width="602.40173"
           height="310.73996"
           x="120.55251"
           y="265.53046"
           style="font-style:normal;font-variant:normal;font-weight:normal;font-stretch:normal;font-family:Lavi;-inkscape-font-specification:Lavi;text-align:center;text-anchor:middle" /></flowRegion><flowPara
         style="font-style:italic;font-weight:bold;font-size:48px;-inkscape-font-specification:'Lavi Bold Italic';text-align:center;letter-spacing:1.5px;text-anchor:middle;stroke:#000000;stroke-width:3.15775537;stroke-miterlimit:4;stroke-dasharray:none;stroke-opacity:1"
         id="flowPara3030-8-7"> mí</flowPara></flowRoot>    <flowRoot
       xml:space="preserve"
       id="flowRoot3805"
       style="font-size:12px;font-style:normal;font-variant:normal;font-weight:normal;font-stretch:normal;line-height:125%;letter-spacing:0px;word-spacing:0px;fill:#000000;fill-opacity:1;stroke:none;font-family:Arial;-inkscape-font-specification:Arial"><flowRegion
         id="flowRegion3807"><rect
           id="rect3809"
           width="371.73911"
           height="402.17389"
           x="1565.2173"
           y="587.78271" /></flowRegion><flowPara
         id="flowPara3811" /></flowRoot>    <flowRoot
       xml:space="preserve"
       id="flowRoot2987-4-9-3-8"
       style="font-style:normal;font-variant:normal;font-weight:normal;font-stretch:normal;font-size:12px;line-height:125%;font-family:Lavi;-inkscape-font-specification:Lavi;text-align:center;letter-spacing:0px;word-spacing:0px;text-anchor:middle;opacity:0.75348834;fill:#c5a18a;fill-opacity:1;stroke:none;filter:url(#filter3066)"
       transform="matrix(0.75657286,-0.2150653,0.23488287,0.7872367,1451.7447,15.727537)"><flowRegion
         id="flowRegion2989-5-4-5-4"><rect
           id="rect2991-7-9-6-3"
           width="602.40173"
           height="310.73996"
           x="120.55251"
           y="265.53046"
           style="font-style:normal;font-variant:normal;font-weight:normal;font-stretch:normal;font-family:Lavi;-inkscape-font-specification:Lavi;text-align:center;text-anchor:middle;fill:#c5a18a;fill-opacity:1" /></flowRegion><flowPara
         style="font-style:normal;font-variant:normal;font-weight:normal;font-stretch:normal;font-size:48px;font-family:RoboKoz;-inkscape-font-specification:RoboKoz;text-align:center;text-anchor:middle;fill:#c5a18a;fill-opacity:1"
         id="flowPara3826">Conjuros de</flowPara><flowPara
         style="font-style:normal;font-variant:normal;font-weight:normal;font-stretch:normal;font-size:48px;font-family:RoboKoz;-inkscape-font-specification:RoboKoz;text-align:center;text-anchor:middle;fill:#c5a18a;fill-opacity:1"
         id="flowPara3432">Demonios</flowPara><flowPara
         style="font-style:normal;font-variant:normal;font-weight:normal;font-stretch:normal;font-size:48px;font-family:RoboKoz;-inkscape-font-specification:RoboKoz;text-align:center;text-anchor:middle;fill:#c5a18a;fill-opacity:1"
         id="flowPara3828">CHAOSAH</flowPara><flowPara
         style="font-style:normal;font-variant:normal;font-weight:normal;font-stretch:normal;font-size:48px;font-family:RoboKoz;-inkscape-font-specification:RoboKoz;text-align:center;text-anchor:middle;fill:#c5a18a;fill-opacity:1"
         id="flowPara3830">Vol .1</flowPara></flowRoot>    <flowRoot
       xml:space="preserve"
       id="flowRoot2987-4-9-3-7"
       style="font-style:normal;font-variant:normal;font-weight:normal;font-stretch:normal;font-size:12px;line-height:125%;font-family:Lavi;-inkscape-font-specification:Lavi;text-align:center;letter-spacing:0px;word-spacing:0px;text-anchor:middle;fill:#000000;fill-opacity:1;stroke:none"
       transform="translate(1437.4887,1288.2943)"><flowRegion
         id="flowRegion2989-5-4-5-6"><rect
           id="rect2991-7-9-6-7"
           width="602.40173"
           height="310.73996"
           x="120.55251"
           y="265.53046"
           style="font-style:normal;font-variant:normal;font-weight:normal;font-stretch:normal;font-family:Lavi;-inkscape-font-specification:Lavi;text-align:center;text-anchor:middle" /></flowRegion><flowPara
         style="font-size:48px;text-align:center;text-anchor:middle"
         id="flowPara3891">... ya que no puedo</flowPara><flowPara
         style="font-size:48px;text-align:center;text-anchor:middle"
         id="flowPara3425">contar con ellas!</flowPara></flowRoot>    <path
       style="color:#000000;fill:#ffffff;fill-opacity:1;fill-rule:nonzero;stroke:none;stroke-width:1px;marker:none;visibility:visible;display:inline;overflow:visible;enable-background:accumulate"
       d="m 1889.0397,1689.3949 c -18.4523,28.3798 -51.1226,88.4968 -53.6964,103.6923 24.9455,9.8716 63.3606,38.7994 61.4454,43.4826 -1.9154,4.6832 -64.3114,57.1793 -62.1183,64.6368 2.1932,7.4574 17.4097,29.1871 26.1857,34.615 -23.9099,-18.6352 -40.7903,-34.5159 -40.9424,-46.0736 -0.5159,-7.819 48.671,-48.3166 52.2072,-50.9091 -18.4319,-14.9363 -59.2654,-41.5126 -63.9461,-49.6536 1.5251,-11.9193 7.4437,-57.7273 34.6061,-108.1162 27.1625,-50.3889 46.2588,8.3258 46.2588,8.3258 z"
       id="path5901"
       inkscape:connector-curvature="0"
       sodipodi:nodetypes="ccccccccsc" />
    <flowRoot
       xml:space="preserve"
       id="flowRoot4133-6-9-4-8-5"
       style="color:#000000;font-style:normal;font-variant:normal;font-weight:normal;font-stretch:normal;font-size:12px;line-height:125%;font-family:Arial;-inkscape-font-specification:Arial;letter-spacing:0.00204969px;word-spacing:0px;display:inline;overflow:visible;visibility:visible;fill:#ffffff;fill-opacity:1;fill-rule:nonzero;stroke:#ffffff;stroke-width:0.0836072;stroke-linecap:butt;stroke-linejoin:miter;stroke-miterlimit:4;stroke-dasharray:none;stroke-dashoffset:0;stroke-opacity:1;marker:none;filter:url(#filter4375-4-1-1-15-1-3);enable-background:accumulate"
       transform="matrix(10.283923,-1.1779802,-12.443827,20.606946,2230.79,-17941.119)"><flowRegion
         id="flowRegion4135-2-9-3-5-2"
         style="stroke-width:0.86646658"><rect
           id="rect4137-1-7-1-2-1"
           width="115.42822"
           height="31.679224"
           x="1125.3193"
           y="1078.5308"
           style="color:#000000;letter-spacing:0.00204969px;display:inline;overflow:visible;visibility:visible;fill:#ffffff;fill-opacity:1;fill-rule:nonzero;stroke:#ffffff;stroke-width:0.0836072;stroke-linecap:butt;stroke-linejoin:miter;stroke-miterlimit:4;stroke-dasharray:none;stroke-dashoffset:0;stroke-opacity:1;marker:none;filter:url(#filter4375-4-1-1-15-1-3);enable-background:accumulate" /></flowRegion><flowPara
         id="flowPara4139-2-8-6-8-6"
         style="color:#000000;font-style:normal;font-variant:normal;font-weight:normal;font-stretch:normal;line-height:125%;font-family:Lavi;-inkscape-font-specification:Lavi;letter-spacing:0.00204969px;word-spacing:0.00204969px;display:inline;overflow:visible;visibility:visible;fill:#ffffff;fill-opacity:1;fill-rule:nonzero;stroke:#ffffff;stroke-width:0.0836072;stroke-linecap:butt;stroke-linejoin:miter;stroke-miterlimit:4;stroke-dasharray:none;stroke-dashoffset:0;stroke-opacity:1;marker:none;filter:url(#filter4375-4-1-1-15-1-3);enable-background:accumulate"><flowSpan
   id="flowSpan4823"
   style="color:#000000;font-size:8.55645752px;display:inline;overflow:visible;visibility:visible;fill:#ffffff;fill-opacity:1;fill-rule:nonzero;stroke:#ffffff;stroke-width:0.0836072;stroke-linecap:butt;stroke-linejoin:miter;stroke-miterlimit:4;stroke-dasharray:none;stroke-dashoffset:0;stroke-opacity:1;marker:none;filter:url(#filter4375-4-1-1-15-1-3);enable-background:accumulate">Z</flowSpan><flowSpan
   style="color:#000000;font-size:9.90925312px;display:inline;overflow:visible;visibility:visible;fill:#ffffff;fill-opacity:1;fill-rule:nonzero;stroke:#ffffff;stroke-width:0.0836072;stroke-linecap:butt;stroke-linejoin:miter;stroke-miterlimit:4;stroke-dasharray:none;stroke-dashoffset:0;stroke-opacity:1;marker:none;filter:url(#filter4375-4-1-1-15-1-3);enable-background:accumulate"
   id="flowSpan4271-5">Z</flowSpan>ZO<flowSpan
   id="flowSpan4277-2"
   style="color:#000000;font-size:17.85409164px;display:inline;overflow:visible;visibility:visible;fill:#ffffff;fill-opacity:1;fill-rule:nonzero;stroke:#ffffff;stroke-width:0.0836072;stroke-linecap:butt;stroke-linejoin:miter;stroke-miterlimit:4;stroke-dasharray:none;stroke-dashoffset:0;stroke-opacity:1;marker:none;filter:url(#filter4375-4-1-1-15-1-3);enable-background:accumulate">O<flowSpan
   style="font-size:20.70208168px"
   id="flowSpan4005">OMM</flowSpan></flowSpan></flowPara></flowRoot>  </g>
  <g
     inkscape:groupmode="layer"
     id="layer1"
     inkscape:label="txt" />
</svg>
